<?xml version='1.0' encoding='utf-8'?>
<mlt LC_NUMERIC="C" producer="main_bin" version="7.16.0" root="/mnt/arorg-items/lifecycle_22-12-15">
 <profile frame_rate_num="30000" sample_aspect_num="1" display_aspect_den="9" colorspace="709" progressive="1" description="HD 1080p 29.97 fps" display_aspect_num="16" frame_rate_den="1001" width="1920" height="1080" sample_aspect_den="1"/>
 <chain id="producer0" out="00:00:08.909">
  <property name="length">268</property>
  <property name="eof">pause</property>
  <property name="resource">01a quick.m4a</property>
  <property name="mlt_service">avformat</property>
  <property name="meta.media.nb_streams">1</property>
  <property name="meta.media.0.stream.type">audio</property>
  <property name="meta.media.0.codec.sample_fmt">fltp</property>
  <property name="meta.media.0.codec.sample_rate">48000</property>
  <property name="meta.media.0.codec.channels">1</property>
  <property name="meta.media.0.codec.name">aac</property>
  <property name="meta.media.0.codec.long_name">AAC (Advanced Audio Coding)</property>
  <property name="meta.media.0.codec.bit_rate">65246</property>
  <property name="meta.attr.0.stream.creation_time.markup">2022-12-15T01:49:36.000000Z</property>
  <property name="meta.attr.0.stream.handler_name.markup">Core Media Audio</property>
  <property name="meta.attr.0.stream.vendor_id.markup">[0][0][0][0]</property>
  <property name="meta.attr.major_brand.markup">M4A </property>
  <property name="meta.attr.minor_version.markup">0</property>
  <property name="meta.attr.compatible_brands.markup">M4A isommp42</property>
  <property name="meta.attr.creation_time.markup">2022-12-15T01:49:36.000000Z</property>
  <property name="meta.attr.title.markup">01a quick</property>
  <property name="meta.attr.voice-memo-uuid.markup">92111892-CAA8-4881-8548-3756B9EF5DF1</property>
  <property name="meta.attr.encoder.markup">com.apple.VoiceMemos (Blues (null))</property>
  <property name="seekable">1</property>
  <property name="audio_index">0</property>
  <property name="video_index">-1</property>
  <property name="kdenlive:clipname"/>
  <property name="kdenlive:clip_type">1</property>
  <property name="kdenlive:folderid">-1</property>
  <property name="kdenlive:id">2</property>
  <property name="kdenlive:file_size">81793</property>
  <property name="kdenlive:file_hash">a54825f331ea5cad6a5c91b9bc2ddf1e</property>
  <property name="kdenlive:audio_max0">169</property>
 </chain>
 <chain id="producer1" out="00:00:10.077">
  <property name="length">303</property>
  <property name="eof">pause</property>
  <property name="resource">01b warning.m4a</property>
  <property name="mlt_service">avformat</property>
  <property name="meta.media.nb_streams">1</property>
  <property name="meta.media.0.stream.type">audio</property>
  <property name="meta.media.0.codec.sample_fmt">fltp</property>
  <property name="meta.media.0.codec.sample_rate">48000</property>
  <property name="meta.media.0.codec.channels">1</property>
  <property name="meta.media.0.codec.name">aac</property>
  <property name="meta.media.0.codec.long_name">AAC (Advanced Audio Coding)</property>
  <property name="meta.media.0.codec.bit_rate">65064</property>
  <property name="meta.attr.0.stream.creation_time.markup">2022-12-15T01:50:07.000000Z</property>
  <property name="meta.attr.0.stream.handler_name.markup">Core Media Audio</property>
  <property name="meta.attr.0.stream.vendor_id.markup">[0][0][0][0]</property>
  <property name="meta.attr.major_brand.markup">M4A </property>
  <property name="meta.attr.minor_version.markup">0</property>
  <property name="meta.attr.compatible_brands.markup">M4A isommp42</property>
  <property name="meta.attr.creation_time.markup">2022-12-15T01:50:07.000000Z</property>
  <property name="meta.attr.title.markup">01b warning</property>
  <property name="meta.attr.voice-memo-uuid.markup">4B91A687-3512-4E6B-A6FE-A872D02E2EF0</property>
  <property name="meta.attr.encoder.markup">com.apple.VoiceMemos (Blues (null))</property>
  <property name="seekable">1</property>
  <property name="audio_index">0</property>
  <property name="video_index">-1</property>
  <property name="kdenlive:clipname"/>
  <property name="kdenlive:clip_type">1</property>
  <property name="kdenlive:folderid">-1</property>
  <property name="kdenlive:id">3</property>
  <property name="kdenlive:file_size">89174</property>
  <property name="kdenlive:file_hash">10dd8bcfd0aa65e934b4a51a1f7dcf31</property>
  <property name="kdenlive:audio_max0">175</property>
 </chain>
 <chain id="producer2" out="00:00:15.215">
  <property name="length">457</property>
  <property name="eof">pause</property>
  <property name="resource">01c cycle.m4a</property>
  <property name="mlt_service">avformat</property>
  <property name="meta.media.nb_streams">1</property>
  <property name="meta.media.0.stream.type">audio</property>
  <property name="meta.media.0.codec.sample_fmt">fltp</property>
  <property name="meta.media.0.codec.sample_rate">48000</property>
  <property name="meta.media.0.codec.channels">1</property>
  <property name="meta.media.0.codec.name">aac</property>
  <property name="meta.media.0.codec.long_name">AAC (Advanced Audio Coding)</property>
  <property name="meta.media.0.codec.bit_rate">64531</property>
  <property name="meta.attr.0.stream.creation_time.markup">2022-12-15T01:56:09.000000Z</property>
  <property name="meta.attr.0.stream.handler_name.markup">Core Media Audio</property>
  <property name="meta.attr.0.stream.vendor_id.markup">[0][0][0][0]</property>
  <property name="meta.attr.major_brand.markup">M4A </property>
  <property name="meta.attr.minor_version.markup">0</property>
  <property name="meta.attr.compatible_brands.markup">M4A isommp42</property>
  <property name="meta.attr.creation_time.markup">2022-12-15T01:56:09.000000Z</property>
  <property name="meta.attr.title.markup">01c cycle</property>
  <property name="meta.attr.voice-memo-uuid.markup">8651467F-C6CB-4ABA-B6C6-1454878D2915</property>
  <property name="meta.attr.encoder.markup">com.apple.VoiceMemos (Blues (null))</property>
  <property name="seekable">1</property>
  <property name="audio_index">0</property>
  <property name="video_index">-1</property>
  <property name="kdenlive:clipname"/>
  <property name="kdenlive:clip_type">1</property>
  <property name="kdenlive:folderid">-1</property>
  <property name="kdenlive:id">4</property>
  <property name="kdenlive:file_size">136102</property>
  <property name="kdenlive:file_hash">ac9d6cba9ebd834d130bd7639b0206fe</property>
  <property name="kdenlive:audio_max0">168</property>
 </chain>
 <chain id="producer3" out="00:00:24.157">
  <property name="length">725</property>
  <property name="eof">pause</property>
  <property name="resource">02a recs.m4a</property>
  <property name="mlt_service">avformat</property>
  <property name="meta.media.nb_streams">1</property>
  <property name="meta.media.0.stream.type">audio</property>
  <property name="meta.media.0.codec.sample_fmt">fltp</property>
  <property name="meta.media.0.codec.sample_rate">48000</property>
  <property name="meta.media.0.codec.channels">1</property>
  <property name="meta.media.0.codec.name">aac</property>
  <property name="meta.media.0.codec.long_name">AAC (Advanced Audio Coding)</property>
  <property name="meta.media.0.codec.bit_rate">64741</property>
  <property name="meta.attr.0.stream.creation_time.markup">2022-12-15T01:59:59.000000Z</property>
  <property name="meta.attr.0.stream.handler_name.markup">Core Media Audio</property>
  <property name="meta.attr.0.stream.vendor_id.markup">[0][0][0][0]</property>
  <property name="meta.attr.major_brand.markup">M4A </property>
  <property name="meta.attr.minor_version.markup">0</property>
  <property name="meta.attr.compatible_brands.markup">M4A isommp42</property>
  <property name="meta.attr.creation_time.markup">2022-12-15T01:59:59.000000Z</property>
  <property name="meta.attr.title.markup">02a recs</property>
  <property name="meta.attr.voice-memo-uuid.markup">7B3217B3-8CA8-422B-AA6C-C5A10200332A</property>
  <property name="meta.attr.encoder.markup">com.apple.VoiceMemos (Blues (null))</property>
  <property name="seekable">1</property>
  <property name="audio_index">0</property>
  <property name="video_index">-1</property>
  <property name="kdenlive:clipname"/>
  <property name="kdenlive:clip_type">1</property>
  <property name="kdenlive:folderid">-1</property>
  <property name="kdenlive:id">5</property>
  <property name="kdenlive:file_size">209143</property>
  <property name="kdenlive:file_hash">ce23b767bac4a23b21660231e775c3f6</property>
  <property name="kdenlive:audio_max0">176</property>
 </chain>
 <chain id="producer4" out="00:00:28.061">
  <property name="length">842</property>
  <property name="eof">pause</property>
  <property name="resource">02b list.m4a</property>
  <property name="mlt_service">avformat</property>
  <property name="meta.media.nb_streams">1</property>
  <property name="meta.media.0.stream.type">audio</property>
  <property name="meta.media.0.codec.sample_fmt">fltp</property>
  <property name="meta.media.0.codec.sample_rate">48000</property>
  <property name="meta.media.0.codec.channels">1</property>
  <property name="meta.media.0.codec.name">aac</property>
  <property name="meta.media.0.codec.long_name">AAC (Advanced Audio Coding)</property>
  <property name="meta.media.0.codec.bit_rate">65135</property>
  <property name="meta.attr.0.stream.creation_time.markup">2022-12-15T02:00:55.000000Z</property>
  <property name="meta.attr.0.stream.handler_name.markup">Core Media Audio</property>
  <property name="meta.attr.0.stream.vendor_id.markup">[0][0][0][0]</property>
  <property name="meta.attr.major_brand.markup">M4A </property>
  <property name="meta.attr.minor_version.markup">0</property>
  <property name="meta.attr.compatible_brands.markup">M4A isommp42</property>
  <property name="meta.attr.creation_time.markup">2022-12-15T02:00:55.000000Z</property>
  <property name="meta.attr.title.markup">02b list</property>
  <property name="meta.attr.voice-memo-uuid.markup">BE36A2FD-4380-4853-99BD-EACB8C6C5537</property>
  <property name="meta.attr.encoder.markup">com.apple.VoiceMemos (Blues (null))</property>
  <property name="seekable">1</property>
  <property name="audio_index">0</property>
  <property name="video_index">-1</property>
  <property name="kdenlive:clipname"/>
  <property name="kdenlive:clip_type">1</property>
  <property name="kdenlive:folderid">-1</property>
  <property name="kdenlive:id">6</property>
  <property name="kdenlive:file_size">243748</property>
  <property name="kdenlive:file_hash">0477177350823b98e6f1a3857c31c3c9</property>
  <property name="kdenlive:audio_max0">182</property>
 </chain>
 <chain id="producer5" out="00:00:08.642">
  <property name="length">260</property>
  <property name="eof">pause</property>
  <property name="resource">02c failure.m4a</property>
  <property name="mlt_service">avformat</property>
  <property name="meta.media.nb_streams">1</property>
  <property name="meta.media.0.stream.type">audio</property>
  <property name="meta.media.0.codec.sample_fmt">fltp</property>
  <property name="meta.media.0.codec.sample_rate">48000</property>
  <property name="meta.media.0.codec.channels">1</property>
  <property name="meta.media.0.codec.name">aac</property>
  <property name="meta.media.0.codec.long_name">AAC (Advanced Audio Coding)</property>
  <property name="meta.media.0.codec.bit_rate">65968</property>
  <property name="meta.attr.0.stream.creation_time.markup">2022-12-15T02:02:17.000000Z</property>
  <property name="meta.attr.0.stream.handler_name.markup">Core Media Audio</property>
  <property name="meta.attr.0.stream.vendor_id.markup">[0][0][0][0]</property>
  <property name="meta.attr.major_brand.markup">M4A </property>
  <property name="meta.attr.minor_version.markup">0</property>
  <property name="meta.attr.compatible_brands.markup">M4A isommp42</property>
  <property name="meta.attr.creation_time.markup">2022-12-15T02:02:17.000000Z</property>
  <property name="meta.attr.title.markup">02c failure</property>
  <property name="meta.attr.voice-memo-uuid.markup">7C7991C6-E085-4AFB-92F6-A76F627B9E07</property>
  <property name="meta.attr.encoder.markup">com.apple.VoiceMemos (Blues (null))</property>
  <property name="seekable">1</property>
  <property name="audio_index">0</property>
  <property name="video_index">-1</property>
  <property name="kdenlive:clipname"/>
  <property name="kdenlive:clip_type">1</property>
  <property name="kdenlive:folderid">-1</property>
  <property name="kdenlive:id">7</property>
  <property name="kdenlive:file_size">80113</property>
  <property name="kdenlive:file_hash">742682773c57e2e98bc02ee18b1c0f81</property>
  <property name="kdenlive:audio_max0">175</property>
 </chain>
 <chain id="producer6" out="00:00:24.958">
  <property name="length">749</property>
  <property name="eof">pause</property>
  <property name="resource">02d dead.m4a</property>
  <property name="mlt_service">avformat</property>
  <property name="meta.media.nb_streams">1</property>
  <property name="meta.media.0.stream.type">audio</property>
  <property name="meta.media.0.codec.sample_fmt">fltp</property>
  <property name="meta.media.0.codec.sample_rate">48000</property>
  <property name="meta.media.0.codec.channels">1</property>
  <property name="meta.media.0.codec.name">aac</property>
  <property name="meta.media.0.codec.long_name">AAC (Advanced Audio Coding)</property>
  <property name="meta.media.0.codec.bit_rate">65077</property>
  <property name="meta.attr.0.stream.creation_time.markup">2022-12-15T02:09:30.000000Z</property>
  <property name="meta.attr.0.stream.handler_name.markup">Core Media Audio</property>
  <property name="meta.attr.0.stream.vendor_id.markup">[0][0][0][0]</property>
  <property name="meta.attr.major_brand.markup">M4A </property>
  <property name="meta.attr.minor_version.markup">0</property>
  <property name="meta.attr.compatible_brands.markup">M4A isommp42</property>
  <property name="meta.attr.creation_time.markup">2022-12-15T02:09:30.000000Z</property>
  <property name="meta.attr.title.markup">02d dead</property>
  <property name="meta.attr.voice-memo-uuid.markup">C5D84A80-B8FD-4E2F-9EBB-3278BBBAED9B</property>
  <property name="meta.attr.encoder.markup">com.apple.VoiceMemos (Blues (null))</property>
  <property name="seekable">1</property>
  <property name="audio_index">0</property>
  <property name="video_index">-1</property>
  <property name="kdenlive:clipname"/>
  <property name="kdenlive:clip_type">1</property>
  <property name="kdenlive:folderid">-1</property>
  <property name="kdenlive:id">8</property>
  <property name="kdenlive:file_size">216734</property>
  <property name="kdenlive:file_hash">d3866049477edbc9d6fb283b0d90435f</property>
  <property name="kdenlive:audio_max0">176</property>
 </chain>
 <chain id="producer7" out="00:00:20.153">
  <property name="length">605</property>
  <property name="eof">pause</property>
  <property name="resource">02e dead2.m4a</property>
  <property name="mlt_service">avformat</property>
  <property name="meta.media.nb_streams">1</property>
  <property name="meta.media.0.stream.type">audio</property>
  <property name="meta.media.0.codec.sample_fmt">fltp</property>
  <property name="meta.media.0.codec.sample_rate">48000</property>
  <property name="meta.media.0.codec.channels">1</property>
  <property name="meta.media.0.codec.name">aac</property>
  <property name="meta.media.0.codec.long_name">AAC (Advanced Audio Coding)</property>
  <property name="meta.media.0.codec.bit_rate">65301</property>
  <property name="meta.attr.0.stream.creation_time.markup">2022-12-15T02:10:25.000000Z</property>
  <property name="meta.attr.0.stream.handler_name.markup">Core Media Audio</property>
  <property name="meta.attr.0.stream.vendor_id.markup">[0][0][0][0]</property>
  <property name="meta.attr.major_brand.markup">M4A </property>
  <property name="meta.attr.minor_version.markup">0</property>
  <property name="meta.attr.compatible_brands.markup">M4A isommp42</property>
  <property name="meta.attr.creation_time.markup">2022-12-15T02:10:25.000000Z</property>
  <property name="meta.attr.title.markup">02e dead2</property>
  <property name="meta.attr.voice-memo-uuid.markup">F32BFED8-4CFA-4FDC-A1E9-1D92D03D4A1D</property>
  <property name="meta.attr.encoder.markup">com.apple.VoiceMemos (Blues (null))</property>
  <property name="seekable">1</property>
  <property name="audio_index">0</property>
  <property name="video_index">-1</property>
  <property name="kdenlive:clipname"/>
  <property name="kdenlive:clip_type">1</property>
  <property name="kdenlive:folderid">-1</property>
  <property name="kdenlive:id">9</property>
  <property name="kdenlive:file_size">181117</property>
  <property name="kdenlive:file_hash">c4cb076968eea67d614c30b4a3df60fe</property>
  <property name="kdenlive:audio_max0">181</property>
 </chain>
 <chain id="producer8" out="00:00:48.882">
  <property name="length">1466</property>
  <property name="eof">pause</property>
  <property name="resource">02f reasons.m4a</property>
  <property name="mlt_service">avformat</property>
  <property name="meta.media.nb_streams">1</property>
  <property name="meta.media.0.stream.type">audio</property>
  <property name="meta.media.0.codec.sample_fmt">fltp</property>
  <property name="meta.media.0.codec.sample_rate">48000</property>
  <property name="meta.media.0.codec.channels">1</property>
  <property name="meta.media.0.codec.name">aac</property>
  <property name="meta.media.0.codec.long_name">AAC (Advanced Audio Coding)</property>
  <property name="meta.media.0.codec.bit_rate">65083</property>
  <property name="meta.attr.0.stream.creation_time.markup">2022-12-15T02:11:14.000000Z</property>
  <property name="meta.attr.0.stream.handler_name.markup">Core Media Audio</property>
  <property name="meta.attr.0.stream.vendor_id.markup">[0][0][0][0]</property>
  <property name="meta.attr.major_brand.markup">M4A </property>
  <property name="meta.attr.minor_version.markup">0</property>
  <property name="meta.attr.compatible_brands.markup">M4A isommp42</property>
  <property name="meta.attr.creation_time.markup">2022-12-15T02:11:14.000000Z</property>
  <property name="meta.attr.title.markup">02f reasons</property>
  <property name="meta.attr.voice-memo-uuid.markup">657FED14-3F97-42E3-A933-A584A35AAED2</property>
  <property name="meta.attr.encoder.markup">com.apple.VoiceMemos (Blues (null))</property>
  <property name="seekable">1</property>
  <property name="audio_index">0</property>
  <property name="video_index">-1</property>
  <property name="kdenlive:clipname"/>
  <property name="kdenlive:clip_type">1</property>
  <property name="kdenlive:folderid">-1</property>
  <property name="kdenlive:id">10</property>
  <property name="kdenlive:file_size">433123</property>
  <property name="kdenlive:file_hash">47baa0cdb39d5e69b3522daef030797a</property>
  <property name="kdenlive:audio_max0">192</property>
 </chain>
 <chain id="producer9" out="00:01:02.269">
  <property name="length">1867</property>
  <property name="eof">pause</property>
  <property name="resource">02g story.m4a</property>
  <property name="mlt_service">avformat</property>
  <property name="meta.media.nb_streams">1</property>
  <property name="meta.media.0.stream.type">audio</property>
  <property name="meta.media.0.codec.sample_fmt">fltp</property>
  <property name="meta.media.0.codec.sample_rate">48000</property>
  <property name="meta.media.0.codec.channels">1</property>
  <property name="meta.media.0.codec.name">aac</property>
  <property name="meta.media.0.codec.long_name">AAC (Advanced Audio Coding)</property>
  <property name="meta.media.0.codec.bit_rate">65275</property>
  <property name="meta.attr.0.stream.creation_time.markup">2022-12-15T02:13:05.000000Z</property>
  <property name="meta.attr.0.stream.handler_name.markup">Core Media Audio</property>
  <property name="meta.attr.0.stream.vendor_id.markup">[0][0][0][0]</property>
  <property name="meta.attr.major_brand.markup">M4A </property>
  <property name="meta.attr.minor_version.markup">0</property>
  <property name="meta.attr.compatible_brands.markup">M4A isommp42</property>
  <property name="meta.attr.creation_time.markup">2022-12-15T02:13:05.000000Z</property>
  <property name="meta.attr.title.markup">02g story</property>
  <property name="meta.attr.voice-memo-uuid.markup">F75B37BA-1172-4378-9FE5-722CD9F3ADB0</property>
  <property name="meta.attr.encoder.markup">com.apple.VoiceMemos (Blues (null))</property>
  <property name="seekable">1</property>
  <property name="audio_index">0</property>
  <property name="video_index">-1</property>
  <property name="kdenlive:clipname"/>
  <property name="kdenlive:clip_type">1</property>
  <property name="kdenlive:folderid">-1</property>
  <property name="kdenlive:id">11</property>
  <property name="kdenlive:file_size">552578</property>
  <property name="kdenlive:file_hash">3615ae8f441f34e6dff0560608667ea3</property>
  <property name="kdenlive:audio_max0">184</property>
 </chain>
 <chain id="producer10" out="00:00:12.346">
  <property name="length">371</property>
  <property name="eof">pause</property>
  <property name="resource">02h fault.m4a</property>
  <property name="mlt_service">avformat</property>
  <property name="meta.media.nb_streams">1</property>
  <property name="meta.media.0.stream.type">audio</property>
  <property name="meta.media.0.codec.sample_fmt">fltp</property>
  <property name="meta.media.0.codec.sample_rate">48000</property>
  <property name="meta.media.0.codec.channels">1</property>
  <property name="meta.media.0.codec.name">aac</property>
  <property name="meta.media.0.codec.long_name">AAC (Advanced Audio Coding)</property>
  <property name="meta.media.0.codec.bit_rate">64873</property>
  <property name="meta.attr.0.stream.creation_time.markup">2022-12-15T02:15:15.000000Z</property>
  <property name="meta.attr.0.stream.handler_name.markup">Core Media Audio</property>
  <property name="meta.attr.0.stream.vendor_id.markup">[0][0][0][0]</property>
  <property name="meta.attr.major_brand.markup">M4A </property>
  <property name="meta.attr.minor_version.markup">0</property>
  <property name="meta.attr.compatible_brands.markup">M4A isommp42</property>
  <property name="meta.attr.creation_time.markup">2022-12-15T02:15:15.000000Z</property>
  <property name="meta.attr.title.markup">02h fault</property>
  <property name="meta.attr.voice-memo-uuid.markup">1F6B5485-8058-4B5A-A964-4F3D591A2208</property>
  <property name="meta.attr.encoder.markup">com.apple.VoiceMemos (Blues (null))</property>
  <property name="seekable">1</property>
  <property name="audio_index">0</property>
  <property name="video_index">-1</property>
  <property name="kdenlive:clipname"/>
  <property name="kdenlive:clip_type">1</property>
  <property name="kdenlive:folderid">-1</property>
  <property name="kdenlive:id">12</property>
  <property name="kdenlive:file_size">111522</property>
  <property name="kdenlive:file_hash">a3c04badd89215859cf661fb1c808763</property>
  <property name="kdenlive:audio_max0">170</property>
 </chain>
 <chain id="producer11" out="00:00:14.348">
  <property name="length">431</property>
  <property name="eof">pause</property>
  <property name="resource">03a present.m4a</property>
  <property name="mlt_service">avformat</property>
  <property name="meta.media.nb_streams">1</property>
  <property name="meta.media.0.stream.type">audio</property>
  <property name="meta.media.0.codec.sample_fmt">fltp</property>
  <property name="meta.media.0.codec.sample_rate">48000</property>
  <property name="meta.media.0.codec.channels">1</property>
  <property name="meta.media.0.codec.name">aac</property>
  <property name="meta.media.0.codec.long_name">AAC (Advanced Audio Coding)</property>
  <property name="meta.media.0.codec.bit_rate">65223</property>
  <property name="meta.attr.0.stream.creation_time.markup">2022-12-15T02:23:29.000000Z</property>
  <property name="meta.attr.0.stream.handler_name.markup">Core Media Audio</property>
  <property name="meta.attr.0.stream.vendor_id.markup">[0][0][0][0]</property>
  <property name="meta.attr.major_brand.markup">M4A </property>
  <property name="meta.attr.minor_version.markup">0</property>
  <property name="meta.attr.compatible_brands.markup">M4A isommp42</property>
  <property name="meta.attr.creation_time.markup">2022-12-15T02:23:29.000000Z</property>
  <property name="meta.attr.title.markup">03a present</property>
  <property name="meta.attr.voice-memo-uuid.markup">E19C233D-07F3-49CA-9D55-404EC7531FFC</property>
  <property name="meta.attr.encoder.markup">com.apple.VoiceMemos (Blues (null))</property>
  <property name="seekable">1</property>
  <property name="audio_index">0</property>
  <property name="video_index">-1</property>
  <property name="kdenlive:clipname"/>
  <property name="kdenlive:clip_type">1</property>
  <property name="kdenlive:folderid">-1</property>
  <property name="kdenlive:id">13</property>
  <property name="kdenlive:file_size">129753</property>
  <property name="kdenlive:file_hash">e7e360bf62e67b8f6e74da637803249f</property>
  <property name="kdenlive:audio_max0">171</property>
 </chain>
 <chain id="producer12" out="00:00:28.695">
  <property name="length">861</property>
  <property name="eof">pause</property>
  <property name="resource">03b gone.m4a</property>
  <property name="mlt_service">avformat</property>
  <property name="meta.media.nb_streams">1</property>
  <property name="meta.media.0.stream.type">audio</property>
  <property name="meta.media.0.codec.sample_fmt">fltp</property>
  <property name="meta.media.0.codec.sample_rate">48000</property>
  <property name="meta.media.0.codec.channels">1</property>
  <property name="meta.media.0.codec.name">aac</property>
  <property name="meta.media.0.codec.long_name">AAC (Advanced Audio Coding)</property>
  <property name="meta.media.0.codec.bit_rate">65192</property>
  <property name="meta.attr.0.stream.creation_time.markup">2022-12-15T02:24:08.000000Z</property>
  <property name="meta.attr.0.stream.handler_name.markup">Core Media Audio</property>
  <property name="meta.attr.0.stream.vendor_id.markup">[0][0][0][0]</property>
  <property name="meta.attr.major_brand.markup">M4A </property>
  <property name="meta.attr.minor_version.markup">0</property>
  <property name="meta.attr.compatible_brands.markup">M4A isommp42</property>
  <property name="meta.attr.creation_time.markup">2022-12-15T02:24:08.000000Z</property>
  <property name="meta.attr.title.markup">03b gone</property>
  <property name="meta.attr.voice-memo-uuid.markup">CD639CC0-55C4-4477-8D3C-35B89CEC8B6F</property>
  <property name="meta.attr.encoder.markup">com.apple.VoiceMemos (Blues (null))</property>
  <property name="seekable">1</property>
  <property name="audio_index">0</property>
  <property name="video_index">-1</property>
  <property name="kdenlive:clipname"/>
  <property name="kdenlive:clip_type">1</property>
  <property name="kdenlive:folderid">-1</property>
  <property name="kdenlive:id">14</property>
  <property name="kdenlive:file_size">249590</property>
  <property name="kdenlive:file_hash">11493c04e2b70e709ffeb2a58fba143d</property>
  <property name="kdenlive:audio_max0">173</property>
 </chain>
 <chain id="producer13" out="00:00:21.021">
  <property name="length">631</property>
  <property name="eof">pause</property>
  <property name="resource">03c archive.m4a</property>
  <property name="mlt_service">avformat</property>
  <property name="meta.media.nb_streams">1</property>
  <property name="meta.media.0.stream.type">audio</property>
  <property name="meta.media.0.codec.sample_fmt">fltp</property>
  <property name="meta.media.0.codec.sample_rate">48000</property>
  <property name="meta.media.0.codec.channels">1</property>
  <property name="meta.media.0.codec.name">aac</property>
  <property name="meta.media.0.codec.long_name">AAC (Advanced Audio Coding)</property>
  <property name="meta.media.0.codec.bit_rate">65056</property>
  <property name="meta.attr.0.stream.creation_time.markup">2022-12-15T02:25:41.000000Z</property>
  <property name="meta.attr.0.stream.handler_name.markup">Core Media Audio</property>
  <property name="meta.attr.0.stream.vendor_id.markup">[0][0][0][0]</property>
  <property name="meta.attr.major_brand.markup">M4A </property>
  <property name="meta.attr.minor_version.markup">0</property>
  <property name="meta.attr.compatible_brands.markup">M4A isommp42</property>
  <property name="meta.attr.creation_time.markup">2022-12-15T02:25:41.000000Z</property>
  <property name="meta.attr.title.markup">03c archive</property>
  <property name="meta.attr.voice-memo-uuid.markup">9E2C980F-68F9-416B-812E-E8C3E1FEC1B7</property>
  <property name="meta.attr.encoder.markup">com.apple.VoiceMemos (Blues (null))</property>
  <property name="seekable">1</property>
  <property name="audio_index">0</property>
  <property name="video_index">-1</property>
  <property name="kdenlive:clipname"/>
  <property name="kdenlive:clip_type">1</property>
  <property name="kdenlive:folderid">-1</property>
  <property name="kdenlive:id">15</property>
  <property name="kdenlive:file_size">188157</property>
  <property name="kdenlive:file_hash">4a50052866fecb917cbb6c119b3b66a1</property>
  <property name="kdenlive:audio_max0">179</property>
 </chain>
 <chain id="producer14" out="00:00:12.846">
  <property name="length">386</property>
  <property name="eof">pause</property>
  <property name="resource">03d realize.m4a</property>
  <property name="mlt_service">avformat</property>
  <property name="meta.media.nb_streams">1</property>
  <property name="meta.media.0.stream.type">audio</property>
  <property name="meta.media.0.codec.sample_fmt">fltp</property>
  <property name="meta.media.0.codec.sample_rate">48000</property>
  <property name="meta.media.0.codec.channels">1</property>
  <property name="meta.media.0.codec.name">aac</property>
  <property name="meta.media.0.codec.long_name">AAC (Advanced Audio Coding)</property>
  <property name="meta.media.0.codec.bit_rate">65381</property>
  <property name="meta.attr.0.stream.creation_time.markup">2022-12-15T02:33:41.000000Z</property>
  <property name="meta.attr.0.stream.handler_name.markup">Core Media Audio</property>
  <property name="meta.attr.0.stream.vendor_id.markup">[0][0][0][0]</property>
  <property name="meta.attr.major_brand.markup">M4A </property>
  <property name="meta.attr.minor_version.markup">0</property>
  <property name="meta.attr.compatible_brands.markup">M4A isommp42</property>
  <property name="meta.attr.creation_time.markup">2022-12-15T02:33:41.000000Z</property>
  <property name="meta.attr.title.markup">03d realize</property>
  <property name="meta.attr.voice-memo-uuid.markup">9C4E8BF8-C30E-4E2A-A8C7-E968C42A83EF</property>
  <property name="meta.attr.encoder.markup">com.apple.VoiceMemos (Blues (null))</property>
  <property name="seekable">1</property>
  <property name="audio_index">0</property>
  <property name="video_index">-1</property>
  <property name="kdenlive:clipname"/>
  <property name="kdenlive:clip_type">1</property>
  <property name="kdenlive:folderid">-1</property>
  <property name="kdenlive:id">16</property>
  <property name="kdenlive:file_size">116599</property>
  <property name="kdenlive:file_hash">e52e7e485dfd7c3b46741ba655b5fa26</property>
  <property name="kdenlive:audio_max0">189</property>
 </chain>
 <chain id="producer15" out="00:00:18.218">
  <property name="length">547</property>
  <property name="eof">pause</property>
  <property name="resource">04d verify.m4a</property>
  <property name="mlt_service">avformat</property>
  <property name="meta.media.nb_streams">1</property>
  <property name="meta.media.0.stream.type">audio</property>
  <property name="meta.media.0.codec.sample_fmt">fltp</property>
  <property name="meta.media.0.codec.sample_rate">48000</property>
  <property name="meta.media.0.codec.channels">1</property>
  <property name="meta.media.0.codec.name">aac</property>
  <property name="meta.media.0.codec.long_name">AAC (Advanced Audio Coding)</property>
  <property name="meta.media.0.codec.bit_rate">65454</property>
  <property name="meta.attr.0.stream.creation_time.markup">2022-12-15T03:02:05.000000Z</property>
  <property name="meta.attr.0.stream.handler_name.markup">Core Media Audio</property>
  <property name="meta.attr.0.stream.vendor_id.markup">[0][0][0][0]</property>
  <property name="meta.attr.major_brand.markup">M4A </property>
  <property name="meta.attr.minor_version.markup">0</property>
  <property name="meta.attr.compatible_brands.markup">M4A isommp42</property>
  <property name="meta.attr.creation_time.markup">2022-12-15T03:02:05.000000Z</property>
  <property name="meta.attr.title.markup">04d verify</property>
  <property name="meta.attr.voice-memo-uuid.markup">2231DE79-CDC1-46DB-98AF-A7A771AF8EDC</property>
  <property name="meta.attr.encoder.markup">com.apple.VoiceMemos (Blues (null))</property>
  <property name="seekable">1</property>
  <property name="audio_index">0</property>
  <property name="video_index">-1</property>
  <property name="kdenlive:clipname"/>
  <property name="kdenlive:clip_type">1</property>
  <property name="kdenlive:folderid">-1</property>
  <property name="kdenlive:id">17</property>
  <property name="kdenlive:file_size">164323</property>
  <property name="kdenlive:file_hash">01b61fccc2fd2ec2350f29f5d3d641f7</property>
  <property name="kdenlive:audio_max0">176</property>
 </chain>
 <chain id="producer16" out="00:00:27.494">
  <property name="length">825</property>
  <property name="eof">pause</property>
  <property name="resource">03e design.m4a</property>
  <property name="mlt_service">avformat</property>
  <property name="meta.media.nb_streams">1</property>
  <property name="meta.media.0.stream.type">audio</property>
  <property name="meta.media.0.codec.sample_fmt">fltp</property>
  <property name="meta.media.0.codec.sample_rate">48000</property>
  <property name="meta.media.0.codec.channels">1</property>
  <property name="meta.media.0.codec.name">aac</property>
  <property name="meta.media.0.codec.long_name">AAC (Advanced Audio Coding)</property>
  <property name="meta.media.0.codec.bit_rate">64762</property>
  <property name="meta.attr.0.stream.creation_time.markup">2022-12-15T02:35:43.000000Z</property>
  <property name="meta.attr.0.stream.handler_name.markup">Core Media Audio</property>
  <property name="meta.attr.0.stream.vendor_id.markup">[0][0][0][0]</property>
  <property name="meta.attr.major_brand.markup">M4A </property>
  <property name="meta.attr.minor_version.markup">0</property>
  <property name="meta.attr.compatible_brands.markup">M4A isommp42</property>
  <property name="meta.attr.creation_time.markup">2022-12-15T02:35:43.000000Z</property>
  <property name="meta.attr.title.markup">03e design</property>
  <property name="meta.attr.voice-memo-uuid.markup">74A28737-C180-4273-B203-2F6435D0E543</property>
  <property name="meta.attr.encoder.markup">com.apple.VoiceMemos (Blues (null))</property>
  <property name="seekable">1</property>
  <property name="audio_index">0</property>
  <property name="video_index">-1</property>
  <property name="kdenlive:clipname"/>
  <property name="kdenlive:clip_type">1</property>
  <property name="kdenlive:folderid">-1</property>
  <property name="kdenlive:id">18</property>
  <property name="kdenlive:file_size">244123</property>
  <property name="kdenlive:file_hash">1fedd8b878d8887db8097eb4c0de08a2</property>
  <property name="kdenlive:audio_max0">177</property>
 </chain>
 <chain id="producer17" out="00:00:48.815">
  <property name="length">1464</property>
  <property name="eof">pause</property>
  <property name="resource">03f inhumane.m4a</property>
  <property name="mlt_service">avformat</property>
  <property name="meta.media.nb_streams">1</property>
  <property name="meta.media.0.stream.type">audio</property>
  <property name="meta.media.0.codec.sample_fmt">fltp</property>
  <property name="meta.media.0.codec.sample_rate">48000</property>
  <property name="meta.media.0.codec.channels">1</property>
  <property name="meta.media.0.codec.name">aac</property>
  <property name="meta.media.0.codec.long_name">AAC (Advanced Audio Coding)</property>
  <property name="meta.media.0.codec.bit_rate">65262</property>
  <property name="meta.attr.0.stream.creation_time.markup">2022-12-15T02:49:08.000000Z</property>
  <property name="meta.attr.0.stream.handler_name.markup">Core Media Audio</property>
  <property name="meta.attr.0.stream.vendor_id.markup">[0][0][0][0]</property>
  <property name="meta.attr.major_brand.markup">M4A </property>
  <property name="meta.attr.minor_version.markup">0</property>
  <property name="meta.attr.compatible_brands.markup">M4A isommp42</property>
  <property name="meta.attr.creation_time.markup">2022-12-15T02:49:08.000000Z</property>
  <property name="meta.attr.title.markup">03f inhumane</property>
  <property name="meta.attr.voice-memo-uuid.markup">2BFD1868-7305-4328-90DC-977F4C4E4864</property>
  <property name="meta.attr.encoder.markup">com.apple.VoiceMemos (Blues (null))</property>
  <property name="seekable">1</property>
  <property name="audio_index">0</property>
  <property name="video_index">-1</property>
  <property name="kdenlive:clipname"/>
  <property name="kdenlive:clip_type">1</property>
  <property name="kdenlive:folderid">-1</property>
  <property name="kdenlive:id">19</property>
  <property name="kdenlive:file_size">433663</property>
  <property name="kdenlive:file_hash">dc5299eac9804c141551d9b41440fcc6</property>
  <property name="kdenlive:audio_max0">182</property>
 </chain>
 <chain id="producer18" out="00:00:27.394">
  <property name="length">822</property>
  <property name="eof">pause</property>
  <property name="resource">04a paradox.m4a</property>
  <property name="mlt_service">avformat</property>
  <property name="meta.media.nb_streams">1</property>
  <property name="meta.media.0.stream.type">audio</property>
  <property name="meta.media.0.codec.sample_fmt">fltp</property>
  <property name="meta.media.0.codec.sample_rate">48000</property>
  <property name="meta.media.0.codec.channels">1</property>
  <property name="meta.media.0.codec.name">aac</property>
  <property name="meta.media.0.codec.long_name">AAC (Advanced Audio Coding)</property>
  <property name="meta.media.0.codec.bit_rate">64835</property>
  <property name="meta.attr.0.stream.creation_time.markup">2022-12-15T02:58:21.000000Z</property>
  <property name="meta.attr.0.stream.handler_name.markup">Core Media Audio</property>
  <property name="meta.attr.0.stream.vendor_id.markup">[0][0][0][0]</property>
  <property name="meta.attr.major_brand.markup">M4A </property>
  <property name="meta.attr.minor_version.markup">0</property>
  <property name="meta.attr.compatible_brands.markup">M4A isommp42</property>
  <property name="meta.attr.creation_time.markup">2022-12-15T02:58:21.000000Z</property>
  <property name="meta.attr.title.markup">04a paradox</property>
  <property name="meta.attr.voice-memo-uuid.markup">4088A727-E8EB-4F55-BE90-74462E439496</property>
  <property name="meta.attr.encoder.markup">com.apple.VoiceMemos (Blues (null))</property>
  <property name="seekable">1</property>
  <property name="audio_index">0</property>
  <property name="video_index">-1</property>
  <property name="kdenlive:clipname"/>
  <property name="kdenlive:clip_type">1</property>
  <property name="kdenlive:folderid">-1</property>
  <property name="kdenlive:id">20</property>
  <property name="kdenlive:file_size">243453</property>
  <property name="kdenlive:file_hash">2255e30bb8a2e8b88dd0969fa7822b11</property>
  <property name="kdenlive:audio_max0">181</property>
 </chain>
 <chain id="producer19" out="00:00:11.912">
  <property name="length">358</property>
  <property name="eof">pause</property>
  <property name="resource">04b train.m4a</property>
  <property name="mlt_service">avformat</property>
  <property name="meta.media.nb_streams">1</property>
  <property name="meta.media.0.stream.type">audio</property>
  <property name="meta.media.0.codec.sample_fmt">fltp</property>
  <property name="meta.media.0.codec.sample_rate">48000</property>
  <property name="meta.media.0.codec.channels">1</property>
  <property name="meta.media.0.codec.name">aac</property>
  <property name="meta.media.0.codec.long_name">AAC (Advanced Audio Coding)</property>
  <property name="meta.media.0.codec.bit_rate">65330</property>
  <property name="meta.attr.0.stream.creation_time.markup">2022-12-15T02:59:32.000000Z</property>
  <property name="meta.attr.0.stream.handler_name.markup">Core Media Audio</property>
  <property name="meta.attr.0.stream.vendor_id.markup">[0][0][0][0]</property>
  <property name="meta.attr.major_brand.markup">M4A </property>
  <property name="meta.attr.minor_version.markup">0</property>
  <property name="meta.attr.compatible_brands.markup">M4A isommp42</property>
  <property name="meta.attr.creation_time.markup">2022-12-15T02:59:32.000000Z</property>
  <property name="meta.attr.title.markup">04b train</property>
  <property name="meta.attr.voice-memo-uuid.markup">BF576DA5-CBD5-4823-8259-3D5A9939A52B</property>
  <property name="meta.attr.encoder.markup">com.apple.VoiceMemos (Blues (null))</property>
  <property name="seekable">1</property>
  <property name="audio_index">0</property>
  <property name="video_index">-1</property>
  <property name="kdenlive:clipname"/>
  <property name="kdenlive:clip_type">1</property>
  <property name="kdenlive:folderid">-1</property>
  <property name="kdenlive:id">21</property>
  <property name="kdenlive:file_size">108352</property>
  <property name="kdenlive:file_hash">7ae582384cac7667ff67e862b7a47ce5</property>
  <property name="kdenlive:audio_max0">177</property>
 </chain>
 <chain id="producer20" out="00:00:45.913">
  <property name="length">1377</property>
  <property name="eof">pause</property>
  <property name="resource">04c activity.m4a</property>
  <property name="mlt_service">avformat</property>
  <property name="meta.media.nb_streams">1</property>
  <property name="meta.media.0.stream.type">audio</property>
  <property name="meta.media.0.codec.sample_fmt">fltp</property>
  <property name="meta.media.0.codec.sample_rate">48000</property>
  <property name="meta.media.0.codec.channels">1</property>
  <property name="meta.media.0.codec.name">aac</property>
  <property name="meta.media.0.codec.long_name">AAC (Advanced Audio Coding)</property>
  <property name="meta.media.0.codec.bit_rate">65148</property>
  <property name="meta.attr.0.stream.creation_time.markup">2022-12-15T03:00:27.000000Z</property>
  <property name="meta.attr.0.stream.handler_name.markup">Core Media Audio</property>
  <property name="meta.attr.0.stream.vendor_id.markup">[0][0][0][0]</property>
  <property name="meta.attr.major_brand.markup">M4A </property>
  <property name="meta.attr.minor_version.markup">0</property>
  <property name="meta.attr.compatible_brands.markup">M4A isommp42</property>
  <property name="meta.attr.creation_time.markup">2022-12-15T03:00:27.000000Z</property>
  <property name="meta.attr.title.markup">04c activity</property>
  <property name="meta.attr.voice-memo-uuid.markup">1D7463F2-356F-4E73-90A9-D3A4BC849860</property>
  <property name="meta.attr.encoder.markup">com.apple.VoiceMemos (Blues (null))</property>
  <property name="seekable">1</property>
  <property name="audio_index">0</property>
  <property name="video_index">-1</property>
  <property name="kdenlive:clipname"/>
  <property name="kdenlive:clip_type">1</property>
  <property name="kdenlive:folderid">-1</property>
  <property name="kdenlive:id">22</property>
  <property name="kdenlive:file_size">407558</property>
  <property name="kdenlive:file_hash">f1c5d67275d9b038e6d0423a2adf3593</property>
  <property name="kdenlive:audio_max0">186</property>
 </chain>
 <chain id="producer21" out="00:00:18.652">
  <property name="length">560</property>
  <property name="eof">pause</property>
  <property name="resource">05d shape.m4a</property>
  <property name="mlt_service">avformat</property>
  <property name="meta.media.nb_streams">1</property>
  <property name="meta.media.0.stream.type">audio</property>
  <property name="meta.media.0.codec.sample_fmt">fltp</property>
  <property name="meta.media.0.codec.sample_rate">48000</property>
  <property name="meta.media.0.codec.channels">1</property>
  <property name="meta.media.0.codec.name">aac</property>
  <property name="meta.media.0.codec.long_name">AAC (Advanced Audio Coding)</property>
  <property name="meta.media.0.codec.bit_rate">65036</property>
  <property name="meta.attr.0.stream.creation_time.markup">2022-12-15T04:01:09.000000Z</property>
  <property name="meta.attr.0.stream.handler_name.markup">Core Media Audio</property>
  <property name="meta.attr.0.stream.vendor_id.markup">[0][0][0][0]</property>
  <property name="meta.attr.major_brand.markup">M4A </property>
  <property name="meta.attr.minor_version.markup">0</property>
  <property name="meta.attr.compatible_brands.markup">M4A isommp42</property>
  <property name="meta.attr.creation_time.markup">2022-12-15T04:01:09.000000Z</property>
  <property name="meta.attr.title.markup">05d shape</property>
  <property name="meta.attr.voice-memo-uuid.markup">C714E4AA-DE1C-4896-8BD9-8A32FD32D0A7</property>
  <property name="meta.attr.encoder.markup">com.apple.VoiceMemos (Blues (null))</property>
  <property name="seekable">1</property>
  <property name="audio_index">0</property>
  <property name="video_index">-1</property>
  <property name="kdenlive:clipname"/>
  <property name="kdenlive:clip_type">1</property>
  <property name="kdenlive:folderid">-1</property>
  <property name="kdenlive:id">23</property>
  <property name="kdenlive:file_size">167258</property>
  <property name="kdenlive:file_hash">fd48af07b29289d635500719b2147e5c</property>
  <property name="kdenlive:audio_max0">178</property>
 </chain>
 <chain id="producer22" out="00:00:26.026">
  <property name="length">781</property>
  <property name="eof">pause</property>
  <property name="resource">04e suggest.m4a</property>
  <property name="mlt_service">avformat</property>
  <property name="meta.media.nb_streams">1</property>
  <property name="meta.media.0.stream.type">audio</property>
  <property name="meta.media.0.codec.sample_fmt">fltp</property>
  <property name="meta.media.0.codec.sample_rate">48000</property>
  <property name="meta.media.0.codec.channels">1</property>
  <property name="meta.media.0.codec.name">aac</property>
  <property name="meta.media.0.codec.long_name">AAC (Advanced Audio Coding)</property>
  <property name="meta.media.0.codec.bit_rate">64892</property>
  <property name="meta.attr.0.stream.creation_time.markup">2022-12-15T03:03:08.000000Z</property>
  <property name="meta.attr.0.stream.handler_name.markup">Core Media Audio</property>
  <property name="meta.attr.0.stream.vendor_id.markup">[0][0][0][0]</property>
  <property name="meta.attr.major_brand.markup">M4A </property>
  <property name="meta.attr.minor_version.markup">0</property>
  <property name="meta.attr.compatible_brands.markup">M4A isommp42</property>
  <property name="meta.attr.creation_time.markup">2022-12-15T03:03:08.000000Z</property>
  <property name="meta.attr.title.markup">04e suggest</property>
  <property name="meta.attr.voice-memo-uuid.markup">3D21C9C9-7F3F-4029-9E5A-1E9492035157</property>
  <property name="meta.attr.encoder.markup">com.apple.VoiceMemos (Blues (null))</property>
  <property name="seekable">1</property>
  <property name="audio_index">0</property>
  <property name="video_index">-1</property>
  <property name="kdenlive:clipname"/>
  <property name="kdenlive:clip_type">1</property>
  <property name="kdenlive:folderid">-1</property>
  <property name="kdenlive:id">24</property>
  <property name="kdenlive:file_size">231568</property>
  <property name="kdenlive:file_hash">4e4e4513815f1a5a710dd654e7990d93</property>
  <property name="kdenlive:audio_max0">179</property>
 </chain>
 <chain id="producer23" out="00:00:15.215">
  <property name="length">457</property>
  <property name="eof">pause</property>
  <property name="resource">04f nicer.m4a</property>
  <property name="mlt_service">avformat</property>
  <property name="meta.media.nb_streams">1</property>
  <property name="meta.media.0.stream.type">audio</property>
  <property name="meta.media.0.codec.sample_fmt">fltp</property>
  <property name="meta.media.0.codec.sample_rate">48000</property>
  <property name="meta.media.0.codec.channels">1</property>
  <property name="meta.media.0.codec.name">aac</property>
  <property name="meta.media.0.codec.long_name">AAC (Advanced Audio Coding)</property>
  <property name="meta.media.0.codec.bit_rate">65238</property>
  <property name="meta.attr.0.stream.creation_time.markup">2022-12-15T03:10:26.000000Z</property>
  <property name="meta.attr.0.stream.handler_name.markup">Core Media Audio</property>
  <property name="meta.attr.0.stream.vendor_id.markup">[0][0][0][0]</property>
  <property name="meta.attr.major_brand.markup">M4A </property>
  <property name="meta.attr.minor_version.markup">0</property>
  <property name="meta.attr.compatible_brands.markup">M4A isommp42</property>
  <property name="meta.attr.creation_time.markup">2022-12-15T03:10:26.000000Z</property>
  <property name="meta.attr.title.markup">04f nicer</property>
  <property name="meta.attr.voice-memo-uuid.markup">EDD389B4-FE38-435F-89E0-B571D87CD78A</property>
  <property name="meta.attr.encoder.markup">com.apple.VoiceMemos (Blues (null))</property>
  <property name="seekable">1</property>
  <property name="audio_index">0</property>
  <property name="video_index">-1</property>
  <property name="kdenlive:clipname"/>
  <property name="kdenlive:clip_type">1</property>
  <property name="kdenlive:folderid">-1</property>
  <property name="kdenlive:id">25</property>
  <property name="kdenlive:file_size">137269</property>
  <property name="kdenlive:file_hash">1e3436c43e990877577637696874fdf3</property>
  <property name="kdenlive:audio_max0">184</property>
 </chain>
 <chain id="producer24" out="00:00:29.496">
  <property name="length">885</property>
  <property name="eof">pause</property>
  <property name="resource">05a game.m4a</property>
  <property name="mlt_service">avformat</property>
  <property name="meta.media.nb_streams">1</property>
  <property name="meta.media.0.stream.type">audio</property>
  <property name="meta.media.0.codec.sample_fmt">fltp</property>
  <property name="meta.media.0.codec.sample_rate">48000</property>
  <property name="meta.media.0.codec.channels">1</property>
  <property name="meta.media.0.codec.name">aac</property>
  <property name="meta.media.0.codec.long_name">AAC (Advanced Audio Coding)</property>
  <property name="meta.media.0.codec.bit_rate">65078</property>
  <property name="meta.attr.0.stream.creation_time.markup">2022-12-15T03:13:05.000000Z</property>
  <property name="meta.attr.0.stream.handler_name.markup">Core Media Audio</property>
  <property name="meta.attr.0.stream.vendor_id.markup">[0][0][0][0]</property>
  <property name="meta.attr.major_brand.markup">M4A </property>
  <property name="meta.attr.minor_version.markup">0</property>
  <property name="meta.attr.compatible_brands.markup">M4A isommp42</property>
  <property name="meta.attr.creation_time.markup">2022-12-15T03:13:05.000000Z</property>
  <property name="meta.attr.title.markup">05a game</property>
  <property name="meta.attr.voice-memo-uuid.markup">2C531936-52E6-4EF4-83F8-2D0DE6D6E530</property>
  <property name="meta.attr.encoder.markup">com.apple.VoiceMemos (Blues (null))</property>
  <property name="seekable">1</property>
  <property name="audio_index">0</property>
  <property name="video_index">-1</property>
  <property name="kdenlive:clipname"/>
  <property name="kdenlive:clip_type">1</property>
  <property name="kdenlive:folderid">-1</property>
  <property name="kdenlive:id">26</property>
  <property name="kdenlive:file_size">255931</property>
  <property name="kdenlive:file_hash">060e868d4e0d264df292a16e89035bd0</property>
  <property name="kdenlive:audio_max0">180</property>
 </chain>
 <chain id="producer25" out="00:00:35.302">
  <property name="length">1059</property>
  <property name="eof">pause</property>
  <property name="resource">05b skim.m4a</property>
  <property name="mlt_service">avformat</property>
  <property name="meta.media.nb_streams">1</property>
  <property name="meta.media.0.stream.type">audio</property>
  <property name="meta.media.0.codec.sample_fmt">fltp</property>
  <property name="meta.media.0.codec.sample_rate">48000</property>
  <property name="meta.media.0.codec.channels">1</property>
  <property name="meta.media.0.codec.name">aac</property>
  <property name="meta.media.0.codec.long_name">AAC (Advanced Audio Coding)</property>
  <property name="meta.media.0.codec.bit_rate">65149</property>
  <property name="meta.attr.0.stream.creation_time.markup">2022-12-15T03:59:39.000000Z</property>
  <property name="meta.attr.0.stream.handler_name.markup">Core Media Audio</property>
  <property name="meta.attr.0.stream.vendor_id.markup">[0][0][0][0]</property>
  <property name="meta.attr.major_brand.markup">M4A </property>
  <property name="meta.attr.minor_version.markup">0</property>
  <property name="meta.attr.compatible_brands.markup">M4A isommp42</property>
  <property name="meta.attr.creation_time.markup">2022-12-15T03:59:39.000000Z</property>
  <property name="meta.attr.title.markup">05b skim</property>
  <property name="meta.attr.voice-memo-uuid.markup">D0727D9C-770A-4451-94B7-C401DEF375BE</property>
  <property name="meta.attr.encoder.markup">com.apple.VoiceMemos (Blues (null))</property>
  <property name="seekable">1</property>
  <property name="audio_index">0</property>
  <property name="video_index">-1</property>
  <property name="kdenlive:clipname"/>
  <property name="kdenlive:clip_type">1</property>
  <property name="kdenlive:folderid">-1</property>
  <property name="kdenlive:id">27</property>
  <property name="kdenlive:file_size">306119</property>
  <property name="kdenlive:file_hash">dd3ee705038991e0d30831a2fb0446ff</property>
  <property name="kdenlive:audio_max0">182</property>
 </chain>
 <chain id="producer26" out="00:00:21.722">
  <property name="length">652</property>
  <property name="eof">pause</property>
  <property name="resource">05c quick.m4a</property>
  <property name="mlt_service">avformat</property>
  <property name="meta.media.nb_streams">1</property>
  <property name="meta.media.0.stream.type">audio</property>
  <property name="meta.media.0.codec.sample_fmt">fltp</property>
  <property name="meta.media.0.codec.sample_rate">48000</property>
  <property name="meta.media.0.codec.channels">1</property>
  <property name="meta.media.0.codec.name">aac</property>
  <property name="meta.media.0.codec.long_name">AAC (Advanced Audio Coding)</property>
  <property name="meta.media.0.codec.bit_rate">65064</property>
  <property name="meta.attr.0.stream.creation_time.markup">2022-12-15T04:03:46.000000Z</property>
  <property name="meta.attr.0.stream.handler_name.markup">Core Media Audio</property>
  <property name="meta.attr.0.stream.vendor_id.markup">[0][0][0][0]</property>
  <property name="meta.attr.major_brand.markup">M4A </property>
  <property name="meta.attr.minor_version.markup">0</property>
  <property name="meta.attr.compatible_brands.markup">M4A isommp42</property>
  <property name="meta.attr.creation_time.markup">2022-12-15T04:03:46.000000Z</property>
  <property name="meta.attr.title.markup">05c quick</property>
  <property name="meta.attr.voice-memo-uuid.markup">749F7A20-7DCE-4CBC-805C-E3721AF74055</property>
  <property name="meta.attr.encoder.markup">com.apple.VoiceMemos (Blues (null))</property>
  <property name="seekable">1</property>
  <property name="audio_index">0</property>
  <property name="video_index">-1</property>
  <property name="kdenlive:clipname"/>
  <property name="kdenlive:clip_type">1</property>
  <property name="kdenlive:folderid">-1</property>
  <property name="kdenlive:id">28</property>
  <property name="kdenlive:file_size">194112</property>
  <property name="kdenlive:file_hash">45b93ee34bb0c649b49d41662d2a6065</property>
  <property name="kdenlive:audio_max0">179</property>
 </chain>
 <chain id="producer27" out="00:00:05.939">
  <property name="length">179</property>
  <property name="eof">pause</property>
  <property name="resource">06a near.m4a</property>
  <property name="mlt_service">avformat</property>
  <property name="meta.media.nb_streams">1</property>
  <property name="meta.media.0.stream.type">audio</property>
  <property name="meta.media.0.codec.sample_fmt">fltp</property>
  <property name="meta.media.0.codec.sample_rate">48000</property>
  <property name="meta.media.0.codec.channels">1</property>
  <property name="meta.media.0.codec.name">aac</property>
  <property name="meta.media.0.codec.long_name">AAC (Advanced Audio Coding)</property>
  <property name="meta.media.0.codec.bit_rate">65787</property>
  <property name="meta.attr.0.stream.creation_time.markup">2022-12-15T03:46:48.000000Z</property>
  <property name="meta.attr.0.stream.handler_name.markup">Core Media Audio</property>
  <property name="meta.attr.0.stream.vendor_id.markup">[0][0][0][0]</property>
  <property name="meta.attr.major_brand.markup">M4A </property>
  <property name="meta.attr.minor_version.markup">0</property>
  <property name="meta.attr.compatible_brands.markup">M4A isommp42</property>
  <property name="meta.attr.creation_time.markup">2022-12-15T03:46:48.000000Z</property>
  <property name="meta.attr.title.markup">06a near</property>
  <property name="meta.attr.voice-memo-uuid.markup">874FDF8F-DB03-4675-B183-8C4B5737F602</property>
  <property name="meta.attr.encoder.markup">com.apple.VoiceMemos (Blues (null))</property>
  <property name="seekable">1</property>
  <property name="audio_index">0</property>
  <property name="video_index">-1</property>
  <property name="kdenlive:clipname"/>
  <property name="kdenlive:clip_type">1</property>
  <property name="kdenlive:folderid">-1</property>
  <property name="kdenlive:id">29</property>
  <property name="kdenlive:file_size">53868</property>
  <property name="kdenlive:file_hash">63e40861b35d39d45d7631d7e2a070e3</property>
  <property name="kdenlive:audio_max0">175</property>
 </chain>
 <chain id="producer28" out="00:00:23.223">
  <property name="length">697</property>
  <property name="eof">pause</property>
  <property name="resource">06b platform.m4a</property>
  <property name="mlt_service">avformat</property>
  <property name="meta.media.nb_streams">1</property>
  <property name="meta.media.0.stream.type">audio</property>
  <property name="meta.media.0.codec.sample_fmt">fltp</property>
  <property name="meta.media.0.codec.sample_rate">48000</property>
  <property name="meta.media.0.codec.channels">1</property>
  <property name="meta.media.0.codec.name">aac</property>
  <property name="meta.media.0.codec.long_name">AAC (Advanced Audio Coding)</property>
  <property name="meta.media.0.codec.bit_rate">64824</property>
  <property name="meta.attr.0.stream.creation_time.markup">2022-12-15T03:48:53.000000Z</property>
  <property name="meta.attr.0.stream.handler_name.markup">Core Media Audio</property>
  <property name="meta.attr.0.stream.vendor_id.markup">[0][0][0][0]</property>
  <property name="meta.attr.major_brand.markup">M4A </property>
  <property name="meta.attr.minor_version.markup">0</property>
  <property name="meta.attr.compatible_brands.markup">M4A isommp42</property>
  <property name="meta.attr.creation_time.markup">2022-12-15T03:48:53.000000Z</property>
  <property name="meta.attr.title.markup">06b platform</property>
  <property name="meta.attr.voice-memo-uuid.markup">35D9E15F-73CC-47FE-89BE-36FED419BD1E</property>
  <property name="meta.attr.encoder.markup">com.apple.VoiceMemos (Blues (null))</property>
  <property name="seekable">1</property>
  <property name="audio_index">0</property>
  <property name="video_index">-1</property>
  <property name="kdenlive:clipname"/>
  <property name="kdenlive:clip_type">1</property>
  <property name="kdenlive:folderid">-1</property>
  <property name="kdenlive:id">30</property>
  <property name="kdenlive:file_size">206793</property>
  <property name="kdenlive:file_hash">d637cfecf5ecd84013d02b05bebee545</property>
  <property name="kdenlive:audio_max0">193</property>
 </chain>
 <chain id="producer29" out="00:00:36.904">
  <property name="length">1107</property>
  <property name="eof">pause</property>
  <property name="resource">06c subscribe.m4a</property>
  <property name="mlt_service">avformat</property>
  <property name="meta.media.nb_streams">1</property>
  <property name="meta.media.0.stream.type">audio</property>
  <property name="meta.media.0.codec.sample_fmt">fltp</property>
  <property name="meta.media.0.codec.sample_rate">48000</property>
  <property name="meta.media.0.codec.channels">1</property>
  <property name="meta.media.0.codec.name">aac</property>
  <property name="meta.media.0.codec.long_name">AAC (Advanced Audio Coding)</property>
  <property name="meta.media.0.codec.bit_rate">64984</property>
  <property name="meta.attr.0.stream.creation_time.markup">2022-12-15T04:14:02.000000Z</property>
  <property name="meta.attr.0.stream.handler_name.markup">Core Media Audio</property>
  <property name="meta.attr.0.stream.vendor_id.markup">[0][0][0][0]</property>
  <property name="meta.attr.major_brand.markup">M4A </property>
  <property name="meta.attr.minor_version.markup">0</property>
  <property name="meta.attr.compatible_brands.markup">M4A isommp42</property>
  <property name="meta.attr.creation_time.markup">2022-12-15T04:14:02.000000Z</property>
  <property name="meta.attr.title.markup">06d subscribe</property>
  <property name="meta.attr.voice-memo-uuid.markup">CF6EA5DB-EC7B-4138-9E85-902FB02DF8CB</property>
  <property name="meta.attr.encoder.markup">com.apple.VoiceMemos (Blues (null))</property>
  <property name="seekable">1</property>
  <property name="audio_index">0</property>
  <property name="video_index">-1</property>
  <property name="kdenlive:clipname"/>
  <property name="kdenlive:clip_type">1</property>
  <property name="kdenlive:folderid">-1</property>
  <property name="kdenlive:id">31</property>
  <property name="kdenlive:file_size">327568</property>
  <property name="kdenlive:file_hash">57dc803bc5fac608ff718081ee057b87</property>
  <property name="kdenlive:audio_max0">183</property>
 </chain>
 <chain id="producer30" out="00:00:24.024">
  <property name="length">721</property>
  <property name="eof">pause</property>
  <property name="resource">06d sort.m4a</property>
  <property name="mlt_service">avformat</property>
  <property name="meta.media.nb_streams">1</property>
  <property name="meta.media.0.stream.type">audio</property>
  <property name="meta.media.0.codec.sample_fmt">fltp</property>
  <property name="meta.media.0.codec.sample_rate">48000</property>
  <property name="meta.media.0.codec.channels">1</property>
  <property name="meta.media.0.codec.name">aac</property>
  <property name="meta.media.0.codec.long_name">AAC (Advanced Audio Coding)</property>
  <property name="meta.media.0.codec.bit_rate">64770</property>
  <property name="meta.attr.0.stream.creation_time.markup">2022-12-15T03:49:48.000000Z</property>
  <property name="meta.attr.0.stream.handler_name.markup">Core Media Audio</property>
  <property name="meta.attr.0.stream.vendor_id.markup">[0][0][0][0]</property>
  <property name="meta.attr.major_brand.markup">M4A </property>
  <property name="meta.attr.minor_version.markup">0</property>
  <property name="meta.attr.compatible_brands.markup">M4A isommp42</property>
  <property name="meta.attr.creation_time.markup">2022-12-15T03:49:48.000000Z</property>
  <property name="meta.attr.title.markup">06c sort</property>
  <property name="meta.attr.voice-memo-uuid.markup">C084D194-1236-4B53-9B63-92174D9D62E0</property>
  <property name="meta.attr.encoder.markup">com.apple.VoiceMemos (Blues (null))</property>
  <property name="seekable">1</property>
  <property name="audio_index">0</property>
  <property name="video_index">-1</property>
  <property name="kdenlive:clipname"/>
  <property name="kdenlive:clip_type">1</property>
  <property name="kdenlive:folderid">-1</property>
  <property name="kdenlive:id">32</property>
  <property name="kdenlive:file_size">207966</property>
  <property name="kdenlive:file_hash">49955dca600555eb8885c154f6a1dfb5</property>
  <property name="kdenlive:audio_max0">186</property>
 </chain>
 <chain id="producer31" out="00:00:30.230">
  <property name="length">907</property>
  <property name="eof">pause</property>
  <property name="resource">06e filter.m4a</property>
  <property name="mlt_service">avformat</property>
  <property name="meta.media.nb_streams">1</property>
  <property name="meta.media.0.stream.type">audio</property>
  <property name="meta.media.0.codec.sample_fmt">fltp</property>
  <property name="meta.media.0.codec.sample_rate">48000</property>
  <property name="meta.media.0.codec.channels">1</property>
  <property name="meta.media.0.codec.name">aac</property>
  <property name="meta.media.0.codec.long_name">AAC (Advanced Audio Coding)</property>
  <property name="meta.media.0.codec.bit_rate">65279</property>
  <property name="meta.attr.0.stream.creation_time.markup">2022-12-15T04:16:42.000000Z</property>
  <property name="meta.attr.0.stream.handler_name.markup">Core Media Audio</property>
  <property name="meta.attr.0.stream.vendor_id.markup">[0][0][0][0]</property>
  <property name="meta.attr.major_brand.markup">M4A </property>
  <property name="meta.attr.minor_version.markup">0</property>
  <property name="meta.attr.compatible_brands.markup">M4A isommp42</property>
  <property name="meta.attr.creation_time.markup">2022-12-15T04:16:42.000000Z</property>
  <property name="meta.attr.title.markup">06e filter</property>
  <property name="meta.attr.voice-memo-uuid.markup">1D581806-29A4-46ED-9527-F0652D3324D5</property>
  <property name="meta.attr.encoder.markup">com.apple.VoiceMemos (Blues (null))</property>
  <property name="seekable">1</property>
  <property name="audio_index">0</property>
  <property name="video_index">-1</property>
  <property name="kdenlive:clipname"/>
  <property name="kdenlive:clip_type">1</property>
  <property name="kdenlive:folderid">-1</property>
  <property name="kdenlive:id">33</property>
  <property name="kdenlive:file_size">269904</property>
  <property name="kdenlive:file_hash">d9e2ab791a6dc6c6c2b9cfc235264404</property>
  <property name="kdenlive:audio_max0">182</property>
 </chain>
 <chain id="producer32" out="00:00:38.071">
  <property name="length">1142</property>
  <property name="eof">pause</property>
  <property name="resource">06f contribute.m4a</property>
  <property name="mlt_service">avformat</property>
  <property name="meta.media.nb_streams">1</property>
  <property name="meta.media.0.stream.type">audio</property>
  <property name="meta.media.0.codec.sample_fmt">fltp</property>
  <property name="meta.media.0.codec.sample_rate">48000</property>
  <property name="meta.media.0.codec.channels">1</property>
  <property name="meta.media.0.codec.name">aac</property>
  <property name="meta.media.0.codec.long_name">AAC (Advanced Audio Coding)</property>
  <property name="meta.media.0.codec.bit_rate">64967</property>
  <property name="meta.attr.0.stream.creation_time.markup">2022-12-15T04:38:55.000000Z</property>
  <property name="meta.attr.0.stream.handler_name.markup">Core Media Audio</property>
  <property name="meta.attr.0.stream.vendor_id.markup">[0][0][0][0]</property>
  <property name="meta.attr.major_brand.markup">M4A </property>
  <property name="meta.attr.minor_version.markup">0</property>
  <property name="meta.attr.compatible_brands.markup">M4A isommp42</property>
  <property name="meta.attr.creation_time.markup">2022-12-15T04:38:55.000000Z</property>
  <property name="meta.attr.title.markup">06f contribute</property>
  <property name="meta.attr.voice-memo-uuid.markup">3CD2C5C4-EB01-42C2-B35B-8F785CD00886</property>
  <property name="meta.attr.encoder.markup">com.apple.VoiceMemos (Blues (null))</property>
  <property name="seekable">1</property>
  <property name="audio_index">0</property>
  <property name="video_index">-1</property>
  <property name="kdenlive:clipname"/>
  <property name="kdenlive:clip_type">1</property>
  <property name="kdenlive:folderid">-1</property>
  <property name="kdenlive:id">34</property>
  <property name="kdenlive:file_size">337517</property>
  <property name="kdenlive:file_hash">43bb63b039d14bfc8e5fee9873f582cd</property>
  <property name="kdenlive:audio_max0">179</property>
 </chain>
 <chain id="producer33" out="00:00:24.558">
  <property name="length">737</property>
  <property name="eof">pause</property>
  <property name="resource">06g curate.m4a</property>
  <property name="mlt_service">avformat</property>
  <property name="meta.media.nb_streams">1</property>
  <property name="meta.media.0.stream.type">audio</property>
  <property name="meta.media.0.codec.sample_fmt">fltp</property>
  <property name="meta.media.0.codec.sample_rate">48000</property>
  <property name="meta.media.0.codec.channels">1</property>
  <property name="meta.media.0.codec.name">aac</property>
  <property name="meta.media.0.codec.long_name">AAC (Advanced Audio Coding)</property>
  <property name="meta.media.0.codec.bit_rate">65150</property>
  <property name="meta.attr.0.stream.creation_time.markup">2022-12-15T04:41:10.000000Z</property>
  <property name="meta.attr.0.stream.handler_name.markup">Core Media Audio</property>
  <property name="meta.attr.0.stream.vendor_id.markup">[0][0][0][0]</property>
  <property name="meta.attr.major_brand.markup">M4A </property>
  <property name="meta.attr.minor_version.markup">0</property>
  <property name="meta.attr.compatible_brands.markup">M4A isommp42</property>
  <property name="meta.attr.creation_time.markup">2022-12-15T04:41:10.000000Z</property>
  <property name="meta.attr.title.markup">06g curate</property>
  <property name="meta.attr.voice-memo-uuid.markup">BCBFC26A-4DDB-4801-8286-527FA20F6A5D</property>
  <property name="meta.attr.encoder.markup">com.apple.VoiceMemos (Blues (null))</property>
  <property name="seekable">1</property>
  <property name="audio_index">0</property>
  <property name="video_index">-1</property>
  <property name="kdenlive:clipname"/>
  <property name="kdenlive:clip_type">1</property>
  <property name="kdenlive:folderid">-1</property>
  <property name="kdenlive:id">35</property>
  <property name="kdenlive:file_size">219571</property>
  <property name="kdenlive:file_hash">e133f0766157578a48326a3288f0f939</property>
  <property name="kdenlive:audio_max0">175</property>
 </chain>
 <chain id="producer34" out="00:00:45.679">
  <property name="length">1370</property>
  <property name="eof">pause</property>
  <property name="resource">06h nope.m4a</property>
  <property name="mlt_service">avformat</property>
  <property name="meta.media.nb_streams">1</property>
  <property name="meta.media.0.stream.type">audio</property>
  <property name="meta.media.0.codec.sample_fmt">fltp</property>
  <property name="meta.media.0.codec.sample_rate">48000</property>
  <property name="meta.media.0.codec.channels">1</property>
  <property name="meta.media.0.codec.name">aac</property>
  <property name="meta.media.0.codec.long_name">AAC (Advanced Audio Coding)</property>
  <property name="meta.media.0.codec.bit_rate">64998</property>
  <property name="meta.attr.0.stream.creation_time.markup">2022-12-15T04:48:43.000000Z</property>
  <property name="meta.attr.0.stream.handler_name.markup">Core Media Audio</property>
  <property name="meta.attr.0.stream.vendor_id.markup">[0][0][0][0]</property>
  <property name="meta.attr.major_brand.markup">M4A </property>
  <property name="meta.attr.minor_version.markup">0</property>
  <property name="meta.attr.compatible_brands.markup">M4A isommp42</property>
  <property name="meta.attr.creation_time.markup">2022-12-15T04:48:43.000000Z</property>
  <property name="meta.attr.title.markup">06h nope</property>
  <property name="meta.attr.voice-memo-uuid.markup">6505D5B8-054B-4065-9131-28C3C120385B</property>
  <property name="meta.attr.encoder.markup">com.apple.VoiceMemos (Blues (null))</property>
  <property name="seekable">1</property>
  <property name="audio_index">0</property>
  <property name="video_index">-1</property>
  <property name="kdenlive:clipname"/>
  <property name="kdenlive:clip_type">1</property>
  <property name="kdenlive:folderid">-1</property>
  <property name="kdenlive:id">36</property>
  <property name="kdenlive:file_size">394410</property>
  <property name="kdenlive:file_hash">18b43bd5d43b98449dd4546dd844e99c</property>
  <property name="kdenlive:audio_max0">196</property>
 </chain>
 <chain id="producer35" out="00:00:30.831">
  <property name="length">925</property>
  <property name="eof">pause</property>
  <property name="resource">06i masto.m4a</property>
  <property name="mlt_service">avformat</property>
  <property name="meta.media.nb_streams">1</property>
  <property name="meta.media.0.stream.type">audio</property>
  <property name="meta.media.0.codec.sample_fmt">fltp</property>
  <property name="meta.media.0.codec.sample_rate">48000</property>
  <property name="meta.media.0.codec.channels">1</property>
  <property name="meta.media.0.codec.name">aac</property>
  <property name="meta.media.0.codec.long_name">AAC (Advanced Audio Coding)</property>
  <property name="meta.media.0.codec.bit_rate">65079</property>
  <property name="meta.attr.0.stream.creation_time.markup">2022-12-15T04:53:24.000000Z</property>
  <property name="meta.attr.0.stream.handler_name.markup">Core Media Audio</property>
  <property name="meta.attr.0.stream.vendor_id.markup">[0][0][0][0]</property>
  <property name="meta.attr.major_brand.markup">M4A </property>
  <property name="meta.attr.minor_version.markup">0</property>
  <property name="meta.attr.compatible_brands.markup">M4A isommp42</property>
  <property name="meta.attr.creation_time.markup">2022-12-15T04:53:24.000000Z</property>
  <property name="meta.attr.title.markup">06i masto</property>
  <property name="meta.attr.voice-memo-uuid.markup">7ED64CA9-808C-4CDB-821B-6F44B0AC8035</property>
  <property name="meta.attr.encoder.markup">com.apple.VoiceMemos (Blues (null))</property>
  <property name="seekable">1</property>
  <property name="audio_index">0</property>
  <property name="video_index">-1</property>
  <property name="kdenlive:clipname"/>
  <property name="kdenlive:clip_type">1</property>
  <property name="kdenlive:folderid">-1</property>
  <property name="kdenlive:id">37</property>
  <property name="kdenlive:file_size">274525</property>
  <property name="kdenlive:file_hash">0bc2d2a5066b4f5479863db680a92da6</property>
  <property name="kdenlive:audio_max0">175</property>
 </chain>
 <chain id="producer36" out="00:00:07.841">
  <property name="length">236</property>
  <property name="eof">pause</property>
  <property name="resource">06j not.m4a</property>
  <property name="mlt_service">avformat</property>
  <property name="meta.media.nb_streams">1</property>
  <property name="meta.media.0.stream.type">audio</property>
  <property name="meta.media.0.codec.sample_fmt">fltp</property>
  <property name="meta.media.0.codec.sample_rate">48000</property>
  <property name="meta.media.0.codec.channels">1</property>
  <property name="meta.media.0.codec.name">aac</property>
  <property name="meta.media.0.codec.long_name">AAC (Advanced Audio Coding)</property>
  <property name="meta.media.0.codec.bit_rate">65826</property>
  <property name="meta.attr.0.stream.creation_time.markup">2022-12-15T05:03:58.000000Z</property>
  <property name="meta.attr.0.stream.handler_name.markup">Core Media Audio</property>
  <property name="meta.attr.0.stream.vendor_id.markup">[0][0][0][0]</property>
  <property name="meta.attr.major_brand.markup">M4A </property>
  <property name="meta.attr.minor_version.markup">0</property>
  <property name="meta.attr.compatible_brands.markup">M4A isommp42</property>
  <property name="meta.attr.creation_time.markup">2022-12-15T05:03:58.000000Z</property>
  <property name="meta.attr.title.markup">06j not</property>
  <property name="meta.attr.voice-memo-uuid.markup">DC1AF005-834B-4D78-8AA4-792704B0161A</property>
  <property name="meta.attr.encoder.markup">com.apple.VoiceMemos (Blues (null))</property>
  <property name="seekable">1</property>
  <property name="audio_index">0</property>
  <property name="video_index">-1</property>
  <property name="kdenlive:clipname"/>
  <property name="kdenlive:clip_type">1</property>
  <property name="kdenlive:folderid">-1</property>
  <property name="kdenlive:id">38</property>
  <property name="kdenlive:file_size">70588</property>
  <property name="kdenlive:file_hash">f69eda00f1eb6cdcbe8927c2aa40a94d</property>
  <property name="kdenlive:audio_max0">166</property>
 </chain>
 <chain id="producer37" out="00:00:12.946">
  <property name="length">389</property>
  <property name="eof">pause</property>
  <property name="resource">06k bad.m4a</property>
  <property name="mlt_service">avformat</property>
  <property name="meta.media.nb_streams">1</property>
  <property name="meta.media.0.stream.type">audio</property>
  <property name="meta.media.0.codec.sample_fmt">fltp</property>
  <property name="meta.media.0.codec.sample_rate">48000</property>
  <property name="meta.media.0.codec.channels">1</property>
  <property name="meta.media.0.codec.name">aac</property>
  <property name="meta.media.0.codec.long_name">AAC (Advanced Audio Coding)</property>
  <property name="meta.media.0.codec.bit_rate">64782</property>
  <property name="meta.attr.0.stream.creation_time.markup">2022-12-15T05:05:44.000000Z</property>
  <property name="meta.attr.0.stream.handler_name.markup">Core Media Audio</property>
  <property name="meta.attr.0.stream.vendor_id.markup">[0][0][0][0]</property>
  <property name="meta.attr.major_brand.markup">M4A </property>
  <property name="meta.attr.minor_version.markup">0</property>
  <property name="meta.attr.compatible_brands.markup">M4A isommp42</property>
  <property name="meta.attr.creation_time.markup">2022-12-15T05:05:44.000000Z</property>
  <property name="meta.attr.title.markup">06k bad</property>
  <property name="meta.attr.voice-memo-uuid.markup">F9D4E3CD-5395-4731-80D9-1BB348D1211D</property>
  <property name="meta.attr.encoder.markup">com.apple.VoiceMemos (Blues (null))</property>
  <property name="seekable">1</property>
  <property name="audio_index">0</property>
  <property name="video_index">-1</property>
  <property name="kdenlive:clipname"/>
  <property name="kdenlive:clip_type">1</property>
  <property name="kdenlive:folderid">-1</property>
  <property name="kdenlive:id">39</property>
  <property name="kdenlive:file_size">113208</property>
  <property name="kdenlive:file_hash">f1769efd9fe91290720a2a6632123648</property>
  <property name="kdenlive:audio_max0">177</property>
 </chain>
 <chain id="producer38" out="00:00:26.460">
  <property name="length">794</property>
  <property name="eof">pause</property>
  <property name="resource">07a summary.m4a</property>
  <property name="mlt_service">avformat</property>
  <property name="meta.media.nb_streams">1</property>
  <property name="meta.media.0.stream.type">audio</property>
  <property name="meta.media.0.codec.sample_fmt">fltp</property>
  <property name="meta.media.0.codec.sample_rate">48000</property>
  <property name="meta.media.0.codec.channels">1</property>
  <property name="meta.media.0.codec.name">aac</property>
  <property name="meta.media.0.codec.long_name">AAC (Advanced Audio Coding)</property>
  <property name="meta.media.0.codec.bit_rate">64997</property>
  <property name="meta.attr.0.stream.creation_time.markup">2022-12-15T05:17:15.000000Z</property>
  <property name="meta.attr.0.stream.handler_name.markup">Core Media Audio</property>
  <property name="meta.attr.0.stream.vendor_id.markup">[0][0][0][0]</property>
  <property name="meta.attr.major_brand.markup">M4A </property>
  <property name="meta.attr.minor_version.markup">0</property>
  <property name="meta.attr.compatible_brands.markup">M4A isommp42</property>
  <property name="meta.attr.creation_time.markup">2022-12-15T05:17:15.000000Z</property>
  <property name="meta.attr.title.markup">07a summary</property>
  <property name="meta.attr.voice-memo-uuid.markup">9748B85F-4D90-4E1E-9E46-4623C2E8F2AF</property>
  <property name="meta.attr.encoder.markup">com.apple.VoiceMemos (Blues (null))</property>
  <property name="seekable">1</property>
  <property name="audio_index">0</property>
  <property name="video_index">-1</property>
  <property name="kdenlive:clipname"/>
  <property name="kdenlive:clip_type">1</property>
  <property name="kdenlive:folderid">-1</property>
  <property name="kdenlive:id">40</property>
  <property name="kdenlive:file_size">235804</property>
  <property name="kdenlive:file_hash">93cd371c18d597ac29885745c8390fd3</property>
  <property name="kdenlive:audio_max0">179</property>
 </chain>
 <chain id="producer39" out="00:00:19.486">
  <property name="length">585</property>
  <property name="eof">pause</property>
  <property name="resource">07b archive.m4a</property>
  <property name="mlt_service">avformat</property>
  <property name="meta.media.nb_streams">1</property>
  <property name="meta.media.0.stream.type">audio</property>
  <property name="meta.media.0.codec.sample_fmt">fltp</property>
  <property name="meta.media.0.codec.sample_rate">48000</property>
  <property name="meta.media.0.codec.channels">1</property>
  <property name="meta.media.0.codec.name">aac</property>
  <property name="meta.media.0.codec.long_name">AAC (Advanced Audio Coding)</property>
  <property name="meta.media.0.codec.bit_rate">65537</property>
  <property name="meta.attr.0.stream.creation_time.markup">2022-12-15T05:27:12.000000Z</property>
  <property name="meta.attr.0.stream.handler_name.markup">Core Media Audio</property>
  <property name="meta.attr.0.stream.vendor_id.markup">[0][0][0][0]</property>
  <property name="meta.attr.major_brand.markup">M4A </property>
  <property name="meta.attr.minor_version.markup">0</property>
  <property name="meta.attr.compatible_brands.markup">M4A isommp42</property>
  <property name="meta.attr.creation_time.markup">2022-12-15T05:27:12.000000Z</property>
  <property name="meta.attr.title.markup">07b archive</property>
  <property name="meta.attr.voice-memo-uuid.markup">D52A94BB-5499-43ED-90C0-D57C94EFB3C8</property>
  <property name="meta.attr.encoder.markup">com.apple.VoiceMemos (Blues (null))</property>
  <property name="seekable">1</property>
  <property name="audio_index">0</property>
  <property name="video_index">-1</property>
  <property name="kdenlive:clipname"/>
  <property name="kdenlive:clip_type">1</property>
  <property name="kdenlive:folderid">-1</property>
  <property name="kdenlive:id">41</property>
  <property name="kdenlive:file_size">175771</property>
  <property name="kdenlive:file_hash">3282507f967c125afd931f8de60a6706</property>
  <property name="kdenlive:audio_max0">176</property>
 </chain>
 <chain id="producer40" out="00:00:15.616">
  <property name="length">469</property>
  <property name="eof">pause</property>
  <property name="resource">07c more.m4a</property>
  <property name="mlt_service">avformat</property>
  <property name="meta.media.nb_streams">1</property>
  <property name="meta.media.0.stream.type">audio</property>
  <property name="meta.media.0.codec.sample_fmt">fltp</property>
  <property name="meta.media.0.codec.sample_rate">48000</property>
  <property name="meta.media.0.codec.channels">1</property>
  <property name="meta.media.0.codec.name">aac</property>
  <property name="meta.media.0.codec.long_name">AAC (Advanced Audio Coding)</property>
  <property name="meta.media.0.codec.bit_rate">64935</property>
  <property name="meta.attr.0.stream.creation_time.markup">2022-12-15T05:28:35.000000Z</property>
  <property name="meta.attr.0.stream.handler_name.markup">Core Media Audio</property>
  <property name="meta.attr.0.stream.vendor_id.markup">[0][0][0][0]</property>
  <property name="meta.attr.major_brand.markup">M4A </property>
  <property name="meta.attr.minor_version.markup">0</property>
  <property name="meta.attr.compatible_brands.markup">M4A isommp42</property>
  <property name="meta.attr.creation_time.markup">2022-12-15T05:28:35.000000Z</property>
  <property name="meta.attr.title.markup">07c more</property>
  <property name="meta.attr.voice-memo-uuid.markup">2230973A-37B5-429D-8394-84BC88F946D1</property>
  <property name="meta.attr.encoder.markup">com.apple.VoiceMemos (Blues (null))</property>
  <property name="seekable">1</property>
  <property name="audio_index">0</property>
  <property name="video_index">-1</property>
  <property name="kdenlive:clipname"/>
  <property name="kdenlive:clip_type">1</property>
  <property name="kdenlive:folderid">-1</property>
  <property name="kdenlive:id">42</property>
  <property name="kdenlive:file_size">136310</property>
  <property name="kdenlive:file_hash">20241e3c21168fa6983ddde5528f8aee</property>
  <property name="kdenlive:audio_max0">180</property>
 </chain>
 <chain id="producer41" out="00:00:16.383">
  <property name="length">492</property>
  <property name="eof">pause</property>
  <property name="resource">07d attention.m4a</property>
  <property name="mlt_service">avformat</property>
  <property name="meta.media.nb_streams">1</property>
  <property name="meta.media.0.stream.type">audio</property>
  <property name="meta.media.0.codec.sample_fmt">fltp</property>
  <property name="meta.media.0.codec.sample_rate">48000</property>
  <property name="meta.media.0.codec.channels">1</property>
  <property name="meta.media.0.codec.name">aac</property>
  <property name="meta.media.0.codec.long_name">AAC (Advanced Audio Coding)</property>
  <property name="meta.media.0.codec.bit_rate">65780</property>
  <property name="meta.attr.0.stream.creation_time.markup">2022-12-15T05:29:53.000000Z</property>
  <property name="meta.attr.0.stream.handler_name.markup">Core Media Audio</property>
  <property name="meta.attr.0.stream.vendor_id.markup">[0][0][0][0]</property>
  <property name="meta.attr.major_brand.markup">M4A </property>
  <property name="meta.attr.minor_version.markup">0</property>
  <property name="meta.attr.compatible_brands.markup">M4A isommp42</property>
  <property name="meta.attr.creation_time.markup">2022-12-15T05:29:53.000000Z</property>
  <property name="meta.attr.title.markup">07d attention</property>
  <property name="meta.attr.voice-memo-uuid.markup">351E5F21-0DC8-4851-B585-2A97FFD05F0C</property>
  <property name="meta.attr.encoder.markup">com.apple.VoiceMemos (Blues (null))</property>
  <property name="seekable">1</property>
  <property name="audio_index">0</property>
  <property name="video_index">-1</property>
  <property name="kdenlive:clipname"/>
  <property name="kdenlive:clip_type">1</property>
  <property name="kdenlive:folderid">-1</property>
  <property name="kdenlive:id">43</property>
  <property name="kdenlive:file_size">148932</property>
  <property name="kdenlive:file_hash">e15826524b461637c86bf55f8022d12b</property>
  <property name="kdenlive:audio_max0">182</property>
 </chain>
 <chain id="producer42" out="00:00:14.414">
  <property name="length">433</property>
  <property name="eof">pause</property>
  <property name="resource">07e agitate.m4a</property>
  <property name="mlt_service">avformat</property>
  <property name="meta.media.nb_streams">1</property>
  <property name="meta.media.0.stream.type">audio</property>
  <property name="meta.media.0.codec.sample_fmt">fltp</property>
  <property name="meta.media.0.codec.sample_rate">48000</property>
  <property name="meta.media.0.codec.channels">1</property>
  <property name="meta.media.0.codec.name">aac</property>
  <property name="meta.media.0.codec.long_name">AAC (Advanced Audio Coding)</property>
  <property name="meta.media.0.codec.bit_rate">65751</property>
  <property name="meta.attr.0.stream.creation_time.markup">2022-12-15T05:37:53.000000Z</property>
  <property name="meta.attr.0.stream.handler_name.markup">Core Media Audio</property>
  <property name="meta.attr.0.stream.vendor_id.markup">[0][0][0][0]</property>
  <property name="meta.attr.major_brand.markup">M4A </property>
  <property name="meta.attr.minor_version.markup">0</property>
  <property name="meta.attr.compatible_brands.markup">M4A isommp42</property>
  <property name="meta.attr.creation_time.markup">2022-12-15T05:37:53.000000Z</property>
  <property name="meta.attr.title.markup">07e agitate</property>
  <property name="meta.attr.voice-memo-uuid.markup">4612E3BC-CD2A-4CEC-9051-C5AD4FE4FDAA</property>
  <property name="meta.attr.encoder.markup">com.apple.VoiceMemos (Blues (null))</property>
  <property name="seekable">1</property>
  <property name="audio_index">0</property>
  <property name="video_index">-1</property>
  <property name="kdenlive:clipname"/>
  <property name="kdenlive:clip_type">1</property>
  <property name="kdenlive:folderid">-1</property>
  <property name="kdenlive:id">44</property>
  <property name="kdenlive:file_size">131269</property>
  <property name="kdenlive:file_hash">c699ad2275d4ba19264e0420b91d4a85</property>
  <property name="kdenlive:audio_max0">184</property>
 </chain>
 <chain id="producer43" out="00:00:40.073">
  <property name="length">1202</property>
  <property name="eof">pause</property>
  <property name="resource">07f climb.m4a</property>
  <property name="mlt_service">avformat</property>
  <property name="meta.media.nb_streams">1</property>
  <property name="meta.media.0.stream.type">audio</property>
  <property name="meta.media.0.codec.sample_fmt">fltp</property>
  <property name="meta.media.0.codec.sample_rate">48000</property>
  <property name="meta.media.0.codec.channels">1</property>
  <property name="meta.media.0.codec.name">aac</property>
  <property name="meta.media.0.codec.long_name">AAC (Advanced Audio Coding)</property>
  <property name="meta.media.0.codec.bit_rate">64731</property>
  <property name="meta.attr.0.stream.creation_time.markup">2022-12-15T05:38:53.000000Z</property>
  <property name="meta.attr.0.stream.handler_name.markup">Core Media Audio</property>
  <property name="meta.attr.0.stream.vendor_id.markup">[0][0][0][0]</property>
  <property name="meta.attr.major_brand.markup">M4A </property>
  <property name="meta.attr.minor_version.markup">0</property>
  <property name="meta.attr.compatible_brands.markup">M4A isommp42</property>
  <property name="meta.attr.creation_time.markup">2022-12-15T05:38:53.000000Z</property>
  <property name="meta.attr.title.markup">07f climb</property>
  <property name="meta.attr.voice-memo-uuid.markup">D9CBF2EF-E2BE-453D-8A8A-21258C965864</property>
  <property name="meta.attr.encoder.markup">com.apple.VoiceMemos (Blues (null))</property>
  <property name="seekable">1</property>
  <property name="audio_index">0</property>
  <property name="video_index">-1</property>
  <property name="kdenlive:clipname"/>
  <property name="kdenlive:clip_type">1</property>
  <property name="kdenlive:folderid">-1</property>
  <property name="kdenlive:id">45</property>
  <property name="kdenlive:file_size">353917</property>
  <property name="kdenlive:file_hash">1de1a8d9cb557ffafa2e7b9985f02d50</property>
  <property name="kdenlive:audio_max0">185</property>
 </chain>
 <chain id="producer44" out="00:00:44.211">
  <property name="length">1326</property>
  <property name="eof">pause</property>
  <property name="resource">07g ignore.m4a</property>
  <property name="mlt_service">avformat</property>
  <property name="meta.media.nb_streams">1</property>
  <property name="meta.media.0.stream.type">audio</property>
  <property name="meta.media.0.codec.sample_fmt">fltp</property>
  <property name="meta.media.0.codec.sample_rate">48000</property>
  <property name="meta.media.0.codec.channels">1</property>
  <property name="meta.media.0.codec.name">aac</property>
  <property name="meta.media.0.codec.long_name">AAC (Advanced Audio Coding)</property>
  <property name="meta.media.0.codec.bit_rate">64726</property>
  <property name="meta.attr.0.stream.creation_time.markup">2022-12-15T05:41:02.000000Z</property>
  <property name="meta.attr.0.stream.handler_name.markup">Core Media Audio</property>
  <property name="meta.attr.0.stream.vendor_id.markup">[0][0][0][0]</property>
  <property name="meta.attr.major_brand.markup">M4A </property>
  <property name="meta.attr.minor_version.markup">0</property>
  <property name="meta.attr.compatible_brands.markup">M4A isommp42</property>
  <property name="meta.attr.creation_time.markup">2022-12-15T05:41:02.000000Z</property>
  <property name="meta.attr.title.markup">07g ignore</property>
  <property name="meta.attr.voice-memo-uuid.markup">8B740E15-255F-4EB8-9543-4E24AD103FAD</property>
  <property name="meta.attr.encoder.markup">com.apple.VoiceMemos (Blues (null))</property>
  <property name="seekable">1</property>
  <property name="audio_index">0</property>
  <property name="video_index">-1</property>
  <property name="kdenlive:clipname"/>
  <property name="kdenlive:clip_type">1</property>
  <property name="kdenlive:folderid">-1</property>
  <property name="kdenlive:id">46</property>
  <property name="kdenlive:file_size">390123</property>
  <property name="kdenlive:file_hash">045a1267d095187d9b7952ab5200d530</property>
  <property name="kdenlive:audio_max0">186</property>
 </chain>
 <chain id="producer45" out="00:00:19.820">
  <property name="length">595</property>
  <property name="eof">pause</property>
  <property name="resource">07h compete.m4a</property>
  <property name="mlt_service">avformat</property>
  <property name="meta.media.nb_streams">1</property>
  <property name="meta.media.0.stream.type">audio</property>
  <property name="meta.media.0.codec.sample_fmt">fltp</property>
  <property name="meta.media.0.codec.sample_rate">48000</property>
  <property name="meta.media.0.codec.channels">1</property>
  <property name="meta.media.0.codec.name">aac</property>
  <property name="meta.media.0.codec.long_name">AAC (Advanced Audio Coding)</property>
  <property name="meta.media.0.codec.bit_rate">64672</property>
  <property name="meta.attr.0.stream.creation_time.markup">2022-12-15T05:49:08.000000Z</property>
  <property name="meta.attr.0.stream.handler_name.markup">Core Media Audio</property>
  <property name="meta.attr.0.stream.vendor_id.markup">[0][0][0][0]</property>
  <property name="meta.attr.major_brand.markup">M4A </property>
  <property name="meta.attr.minor_version.markup">0</property>
  <property name="meta.attr.compatible_brands.markup">M4A isommp42</property>
  <property name="meta.attr.creation_time.markup">2022-12-15T05:49:08.000000Z</property>
  <property name="meta.attr.title.markup">07h compete</property>
  <property name="meta.attr.voice-memo-uuid.markup">5AE1E82D-A381-4DE7-B461-2AE3E3F41955</property>
  <property name="meta.attr.encoder.markup">com.apple.VoiceMemos (Blues (null))</property>
  <property name="seekable">1</property>
  <property name="audio_index">0</property>
  <property name="video_index">-1</property>
  <property name="kdenlive:clipname"/>
  <property name="kdenlive:clip_type">1</property>
  <property name="kdenlive:folderid">-1</property>
  <property name="kdenlive:id">47</property>
  <property name="kdenlive:file_size">176421</property>
  <property name="kdenlive:file_hash">aa2866d9ec6c915cef8ffcec0b5d35d1</property>
  <property name="kdenlive:audio_max0">193</property>
 </chain>
 <chain id="producer46" out="00:00:49.449">
  <property name="length">1483</property>
  <property name="eof">pause</property>
  <property name="resource">07i AI.m4a</property>
  <property name="mlt_service">avformat</property>
  <property name="meta.media.nb_streams">1</property>
  <property name="meta.media.0.stream.type">audio</property>
  <property name="meta.media.0.codec.sample_fmt">fltp</property>
  <property name="meta.media.0.codec.sample_rate">48000</property>
  <property name="meta.media.0.codec.channels">1</property>
  <property name="meta.media.0.codec.name">aac</property>
  <property name="meta.media.0.codec.long_name">AAC (Advanced Audio Coding)</property>
  <property name="meta.media.0.codec.bit_rate">64866</property>
  <property name="meta.attr.0.stream.creation_time.markup">2022-12-15T05:52:53.000000Z</property>
  <property name="meta.attr.0.stream.handler_name.markup">Core Media Audio</property>
  <property name="meta.attr.0.stream.vendor_id.markup">[0][0][0][0]</property>
  <property name="meta.attr.major_brand.markup">M4A </property>
  <property name="meta.attr.minor_version.markup">0</property>
  <property name="meta.attr.compatible_brands.markup">M4A isommp42</property>
  <property name="meta.attr.creation_time.markup">2022-12-15T05:52:53.000000Z</property>
  <property name="meta.attr.title.markup">07i AI</property>
  <property name="meta.attr.voice-memo-uuid.markup">734B0568-A71A-4410-B60A-3A54D929FD98</property>
  <property name="meta.attr.encoder.markup">com.apple.VoiceMemos (Blues (null))</property>
  <property name="seekable">1</property>
  <property name="audio_index">0</property>
  <property name="video_index">-1</property>
  <property name="kdenlive:clipname"/>
  <property name="kdenlive:clip_type">1</property>
  <property name="kdenlive:folderid">-1</property>
  <property name="kdenlive:id">48</property>
  <property name="kdenlive:file_size">426193</property>
  <property name="kdenlive:file_hash">0f197c188ee2cd3c5ef15896aa946fc4</property>
  <property name="kdenlive:audio_max0">206</property>
 </chain>
 <chain id="producer47" out="00:00:09.409">
  <property name="length">283</property>
  <property name="eof">pause</property>
  <property name="resource">07k bye.m4a</property>
  <property name="mlt_service">avformat</property>
  <property name="meta.media.nb_streams">1</property>
  <property name="meta.media.0.stream.type">audio</property>
  <property name="meta.media.0.codec.sample_fmt">fltp</property>
  <property name="meta.media.0.codec.sample_rate">48000</property>
  <property name="meta.media.0.codec.channels">1</property>
  <property name="meta.media.0.codec.name">aac</property>
  <property name="meta.media.0.codec.long_name">AAC (Advanced Audio Coding)</property>
  <property name="meta.media.0.codec.bit_rate">64930</property>
  <property name="meta.attr.0.stream.creation_time.markup">2022-12-15T05:56:17.000000Z</property>
  <property name="meta.attr.0.stream.handler_name.markup">Core Media Audio</property>
  <property name="meta.attr.0.stream.vendor_id.markup">[0][0][0][0]</property>
  <property name="meta.attr.major_brand.markup">M4A </property>
  <property name="meta.attr.minor_version.markup">0</property>
  <property name="meta.attr.compatible_brands.markup">M4A isommp42</property>
  <property name="meta.attr.creation_time.markup">2022-12-15T05:56:17.000000Z</property>
  <property name="meta.attr.title.markup">07k bye</property>
  <property name="meta.attr.voice-memo-uuid.markup">FD9D4A6A-0F34-4B02-B124-4EA08848B53F</property>
  <property name="meta.attr.encoder.markup">com.apple.VoiceMemos (Blues (null))</property>
  <property name="seekable">1</property>
  <property name="audio_index">0</property>
  <property name="video_index">-1</property>
  <property name="kdenlive:clipname"/>
  <property name="kdenlive:clip_type">1</property>
  <property name="kdenlive:folderid">-1</property>
  <property name="kdenlive:id">49</property>
  <property name="kdenlive:file_size">83071</property>
  <property name="kdenlive:file_hash">ae5cff9b3e4a3769f21cb3332cfc4709</property>
  <property name="kdenlive:audio_max0">186</property>
 </chain>
 <chain id="producer48" out="00:00:09.142">
  <property name="length">275</property>
  <property name="eof">pause</property>
  <property name="resource">07j more.m4a</property>
  <property name="mlt_service">avformat</property>
  <property name="meta.media.nb_streams">1</property>
  <property name="meta.media.0.stream.type">audio</property>
  <property name="meta.media.0.codec.sample_fmt">fltp</property>
  <property name="meta.media.0.codec.sample_rate">48000</property>
  <property name="meta.media.0.codec.channels">1</property>
  <property name="meta.media.0.codec.name">aac</property>
  <property name="meta.media.0.codec.long_name">AAC (Advanced Audio Coding)</property>
  <property name="meta.media.0.codec.bit_rate">64452</property>
  <property name="meta.attr.0.stream.creation_time.markup">2022-12-15T05:54:44.000000Z</property>
  <property name="meta.attr.0.stream.handler_name.markup">Core Media Audio</property>
  <property name="meta.attr.0.stream.vendor_id.markup">[0][0][0][0]</property>
  <property name="meta.attr.major_brand.markup">M4A </property>
  <property name="meta.attr.minor_version.markup">0</property>
  <property name="meta.attr.compatible_brands.markup">M4A isommp42</property>
  <property name="meta.attr.creation_time.markup">2022-12-15T05:54:44.000000Z</property>
  <property name="meta.attr.title.markup">07j more</property>
  <property name="meta.attr.voice-memo-uuid.markup">52A66064-F670-4323-A067-33F8C57338E9</property>
  <property name="meta.attr.encoder.markup">com.apple.VoiceMemos (Blues (null))</property>
  <property name="seekable">1</property>
  <property name="audio_index">0</property>
  <property name="video_index">-1</property>
  <property name="kdenlive:clipname"/>
  <property name="kdenlive:clip_type">1</property>
  <property name="kdenlive:folderid">-1</property>
  <property name="kdenlive:id">50</property>
  <property name="kdenlive:file_size">80345</property>
  <property name="kdenlive:file_hash">b66a3a12a79414a43734be1c8449c407</property>
  <property name="kdenlive:audio_max0">170</property>
 </chain>
 <producer id="producer49" in="00:00:00.000" out="00:21:00.868">
  <property name="length">37789</property>
  <property name="eof">pause</property>
  <property name="resource">00 title_card.png</property>
  <property name="ttl">25</property>
  <property name="aspect_ratio">1</property>
  <property name="progressive">1</property>
  <property name="seekable">1</property>
  <property name="format">2</property>
  <property name="meta.media.width">1920</property>
  <property name="meta.media.height">1080</property>
  <property name="mlt_service">qimage</property>
  <property name="kdenlive:clipname"/>
  <property name="kdenlive:duration">00:00:05.005</property>
  <property name="kdenlive:folderid">-1</property>
  <property name="kdenlive:clip_type">2</property>
  <property name="kdenlive:id">51</property>
  <property name="kdenlive:file_size">1422010</property>
  <property name="kdenlive:file_hash">35d6d6cea0b482a65b1b2a871da4f565</property>
 </producer>
 <producer id="producer50" in="00:00:00.000" out="00:00:22.155">
  <property name="length">665</property>
  <property name="eof">pause</property>
  <property name="resource">/mnt/haven/rd-sgu/rsgu-items/lifecycle_22-12-15/23-01-03_15-20_recs.png</property>
  <property name="ttl">25</property>
  <property name="aspect_ratio">1</property>
  <property name="progressive">1</property>
  <property name="seekable">1</property>
  <property name="format">2</property>
  <property name="meta.media.width">1594</property>
  <property name="meta.media.height">896</property>
  <property name="mlt_service">qimage</property>
  <property name="kdenlive:clipname"/>
  <property name="kdenlive:duration">00:00:05.005</property>
  <property name="kdenlive:folderid">-1</property>
  <property name="kdenlive:clip_type">2</property>
  <property name="kdenlive:id">52</property>
  <property name="kdenlive:file_size">2304052</property>
  <property name="kdenlive:file_hash">8a9c9f875fd995f2ca07c6be01c8c616</property>
 </producer>
 <producer id="producer51" in="00:00:00.000" out="00:00:06.373">
  <property name="length">00:00:06.406</property>
  <property name="eof">pause</property>
  <property name="resource">/mnt/haven/rd-sgu/rsgu-items/lifecycle_22-12-15/23-01-03_16-42_details.png</property>
  <property name="ttl">25</property>
  <property name="aspect_ratio">1</property>
  <property name="progressive">1</property>
  <property name="seekable">1</property>
  <property name="format">1</property>
  <property name="meta.media.width">1920</property>
  <property name="meta.media.height">1080</property>
  <property name="mlt_service">qimage</property>
  <property name="kdenlive:clipname"/>
  <property name="kdenlive:duration">00:00:05.005</property>
  <property name="kdenlive:folderid">-1</property>
  <property name="kdenlive:clip_type">2</property>
  <property name="kdenlive:id">53</property>
  <property name="kdenlive:file_size">374790</property>
  <property name="kdenlive:file_hash">db5fa6645d1133cd076ab87da77be46c</property>
 </producer>
 <producer id="producer52" in="00:00:00.000" out="00:36:43.677">
  <property name="length">2147483647</property>
  <property name="eof">continue</property>
  <property name="resource">black</property>
  <property name="aspect_ratio">1</property>
  <property name="mlt_service">color</property>
  <property name="kdenlive:playlistid">black_track</property>
  <property name="mlt_image_format">rgba</property>
  <property name="set.test_audio">0</property>
 </producer>
 <playlist id="playlist0">
  <property name="kdenlive:audio_track">1</property>
 </playlist>
 <playlist id="playlist1">
  <property name="kdenlive:audio_track">1</property>
 </playlist>
 <tractor id="tractor0" in="00:00:00.000">
  <property name="kdenlive:audio_track">1</property>
  <property name="kdenlive:trackheight">61</property>
  <property name="kdenlive:timeline_active">1</property>
  <property name="kdenlive:collapsed">0</property>
  <property name="kdenlive:thumbs_format"/>
  <property name="kdenlive:audio_rec"/>
  <track hide="video" producer="playlist0"/>
  <track hide="video" producer="playlist1"/>
  <filter id="filter0">
   <property name="window">75</property>
   <property name="max_gain">20dB</property>
   <property name="mlt_service">volume</property>
   <property name="internal_added">237</property>
   <property name="disable">1</property>
  </filter>
  <filter id="filter1">
   <property name="channel">-1</property>
   <property name="mlt_service">panner</property>
   <property name="internal_added">237</property>
   <property name="start">0.5</property>
   <property name="disable">1</property>
  </filter>
  <filter id="filter2">
   <property name="iec_scale">0</property>
   <property name="mlt_service">audiolevel</property>
   <property name="dbpeak">1</property>
   <property name="disable">1</property>
  </filter>
 </tractor>
 <chain id="chain0" out="00:00:08.909">
  <property name="length">268</property>
  <property name="eof">pause</property>
  <property name="resource">01a quick.m4a</property>
  <property name="mlt_service">avformat-novalidate</property>
  <property name="audio_index">0</property>
  <property name="video_index">-1</property>
  <property name="meta.media.nb_streams">1</property>
  <property name="meta.media.0.stream.type">audio</property>
  <property name="meta.media.0.codec.sample_fmt">fltp</property>
  <property name="meta.media.0.codec.sample_rate">48000</property>
  <property name="meta.media.0.codec.channels">1</property>
  <property name="meta.media.0.codec.name">aac</property>
  <property name="meta.media.0.codec.long_name">AAC (Advanced Audio Coding)</property>
  <property name="meta.media.0.codec.bit_rate">65246</property>
  <property name="meta.attr.0.stream.creation_time.markup">2022-12-15T01:49:36.000000Z</property>
  <property name="meta.attr.0.stream.handler_name.markup">Core Media Audio</property>
  <property name="meta.attr.0.stream.vendor_id.markup">[0][0][0][0]</property>
  <property name="meta.attr.major_brand.markup">M4A </property>
  <property name="meta.attr.minor_version.markup">0</property>
  <property name="meta.attr.compatible_brands.markup">M4A isommp42</property>
  <property name="meta.attr.creation_time.markup">2022-12-15T01:49:36.000000Z</property>
  <property name="meta.attr.title.markup">01a quick</property>
  <property name="meta.attr.voice-memo-uuid.markup">92111892-CAA8-4881-8548-3756B9EF5DF1</property>
  <property name="meta.attr.encoder.markup">com.apple.VoiceMemos (Blues (null))</property>
  <property name="seekable">1</property>
  <property name="kdenlive:clipname"/>
  <property name="kdenlive:clip_type">1</property>
  <property name="kdenlive:folderid">-1</property>
  <property name="kdenlive:id">2</property>
  <property name="kdenlive:file_size">81793</property>
  <property name="kdenlive:file_hash">a54825f331ea5cad6a5c91b9bc2ddf1e</property>
  <property name="xml">was here</property>
  <property name="set.test_audio">0</property>
  <property name="set.test_image">1</property>
 </chain>
 <chain id="producer53" out="00:00:10.077">
  <property name="length">303</property>
  <property name="eof">pause</property>
  <property name="resource">01b warning.m4a</property>
  <property name="mlt_service">avformat-novalidate</property>
  <property name="audio_index">0</property>
  <property name="video_index">-1</property>
  <property name="meta.media.nb_streams">1</property>
  <property name="meta.media.0.stream.type">audio</property>
  <property name="meta.media.0.codec.sample_fmt">fltp</property>
  <property name="meta.media.0.codec.sample_rate">48000</property>
  <property name="meta.media.0.codec.channels">1</property>
  <property name="meta.media.0.codec.name">aac</property>
  <property name="meta.media.0.codec.long_name">AAC (Advanced Audio Coding)</property>
  <property name="meta.media.0.codec.bit_rate">65064</property>
  <property name="meta.attr.0.stream.creation_time.markup">2022-12-15T01:50:07.000000Z</property>
  <property name="meta.attr.0.stream.handler_name.markup">Core Media Audio</property>
  <property name="meta.attr.0.stream.vendor_id.markup">[0][0][0][0]</property>
  <property name="meta.attr.major_brand.markup">M4A </property>
  <property name="meta.attr.minor_version.markup">0</property>
  <property name="meta.attr.compatible_brands.markup">M4A isommp42</property>
  <property name="meta.attr.creation_time.markup">2022-12-15T01:50:07.000000Z</property>
  <property name="meta.attr.title.markup">01b warning</property>
  <property name="meta.attr.voice-memo-uuid.markup">4B91A687-3512-4E6B-A6FE-A872D02E2EF0</property>
  <property name="meta.attr.encoder.markup">com.apple.VoiceMemos (Blues (null))</property>
  <property name="seekable">1</property>
  <property name="kdenlive:clipname"/>
  <property name="kdenlive:clip_type">1</property>
  <property name="kdenlive:folderid">-1</property>
  <property name="kdenlive:id">3</property>
  <property name="kdenlive:file_size">89174</property>
  <property name="kdenlive:file_hash">10dd8bcfd0aa65e934b4a51a1f7dcf31</property>
  <property name="xml">was here</property>
  <property name="set.test_audio">0</property>
  <property name="set.test_image">1</property>
 </chain>
 <chain id="producer54" out="00:00:15.215">
  <property name="length">457</property>
  <property name="eof">pause</property>
  <property name="resource">01c cycle.m4a</property>
  <property name="mlt_service">avformat-novalidate</property>
  <property name="audio_index">0</property>
  <property name="video_index">-1</property>
  <property name="meta.media.nb_streams">1</property>
  <property name="meta.media.0.stream.type">audio</property>
  <property name="meta.media.0.codec.sample_fmt">fltp</property>
  <property name="meta.media.0.codec.sample_rate">48000</property>
  <property name="meta.media.0.codec.channels">1</property>
  <property name="meta.media.0.codec.name">aac</property>
  <property name="meta.media.0.codec.long_name">AAC (Advanced Audio Coding)</property>
  <property name="meta.media.0.codec.bit_rate">64531</property>
  <property name="meta.attr.0.stream.creation_time.markup">2022-12-15T01:56:09.000000Z</property>
  <property name="meta.attr.0.stream.handler_name.markup">Core Media Audio</property>
  <property name="meta.attr.0.stream.vendor_id.markup">[0][0][0][0]</property>
  <property name="meta.attr.major_brand.markup">M4A </property>
  <property name="meta.attr.minor_version.markup">0</property>
  <property name="meta.attr.compatible_brands.markup">M4A isommp42</property>
  <property name="meta.attr.creation_time.markup">2022-12-15T01:56:09.000000Z</property>
  <property name="meta.attr.title.markup">01c cycle</property>
  <property name="meta.attr.voice-memo-uuid.markup">8651467F-C6CB-4ABA-B6C6-1454878D2915</property>
  <property name="meta.attr.encoder.markup">com.apple.VoiceMemos (Blues (null))</property>
  <property name="seekable">1</property>
  <property name="kdenlive:clipname"/>
  <property name="kdenlive:clip_type">1</property>
  <property name="kdenlive:folderid">-1</property>
  <property name="kdenlive:id">4</property>
  <property name="kdenlive:file_size">136102</property>
  <property name="kdenlive:file_hash">ac9d6cba9ebd834d130bd7639b0206fe</property>
  <property name="xml">was here</property>
  <property name="set.test_audio">0</property>
  <property name="set.test_image">1</property>
 </chain>
 <chain id="producer55" out="00:00:24.157">
  <property name="length">725</property>
  <property name="eof">pause</property>
  <property name="resource">02a recs.m4a</property>
  <property name="mlt_service">avformat-novalidate</property>
  <property name="audio_index">0</property>
  <property name="video_index">-1</property>
  <property name="meta.media.nb_streams">1</property>
  <property name="meta.media.0.stream.type">audio</property>
  <property name="meta.media.0.codec.sample_fmt">fltp</property>
  <property name="meta.media.0.codec.sample_rate">48000</property>
  <property name="meta.media.0.codec.channels">1</property>
  <property name="meta.media.0.codec.name">aac</property>
  <property name="meta.media.0.codec.long_name">AAC (Advanced Audio Coding)</property>
  <property name="meta.media.0.codec.bit_rate">64741</property>
  <property name="meta.attr.0.stream.creation_time.markup">2022-12-15T01:59:59.000000Z</property>
  <property name="meta.attr.0.stream.handler_name.markup">Core Media Audio</property>
  <property name="meta.attr.0.stream.vendor_id.markup">[0][0][0][0]</property>
  <property name="meta.attr.major_brand.markup">M4A </property>
  <property name="meta.attr.minor_version.markup">0</property>
  <property name="meta.attr.compatible_brands.markup">M4A isommp42</property>
  <property name="meta.attr.creation_time.markup">2022-12-15T01:59:59.000000Z</property>
  <property name="meta.attr.title.markup">02a recs</property>
  <property name="meta.attr.voice-memo-uuid.markup">7B3217B3-8CA8-422B-AA6C-C5A10200332A</property>
  <property name="meta.attr.encoder.markup">com.apple.VoiceMemos (Blues (null))</property>
  <property name="seekable">1</property>
  <property name="kdenlive:clipname"/>
  <property name="kdenlive:clip_type">1</property>
  <property name="kdenlive:folderid">-1</property>
  <property name="kdenlive:id">5</property>
  <property name="kdenlive:file_size">209143</property>
  <property name="kdenlive:file_hash">ce23b767bac4a23b21660231e775c3f6</property>
  <property name="xml">was here</property>
  <property name="set.test_audio">0</property>
  <property name="set.test_image">1</property>
 </chain>
 <chain id="producer56" out="00:00:28.061">
  <property name="length">842</property>
  <property name="eof">pause</property>
  <property name="resource">02b list.m4a</property>
  <property name="mlt_service">avformat-novalidate</property>
  <property name="audio_index">0</property>
  <property name="video_index">-1</property>
  <property name="meta.media.nb_streams">1</property>
  <property name="meta.media.0.stream.type">audio</property>
  <property name="meta.media.0.codec.sample_fmt">fltp</property>
  <property name="meta.media.0.codec.sample_rate">48000</property>
  <property name="meta.media.0.codec.channels">1</property>
  <property name="meta.media.0.codec.name">aac</property>
  <property name="meta.media.0.codec.long_name">AAC (Advanced Audio Coding)</property>
  <property name="meta.media.0.codec.bit_rate">65135</property>
  <property name="meta.attr.0.stream.creation_time.markup">2022-12-15T02:00:55.000000Z</property>
  <property name="meta.attr.0.stream.handler_name.markup">Core Media Audio</property>
  <property name="meta.attr.0.stream.vendor_id.markup">[0][0][0][0]</property>
  <property name="meta.attr.major_brand.markup">M4A </property>
  <property name="meta.attr.minor_version.markup">0</property>
  <property name="meta.attr.compatible_brands.markup">M4A isommp42</property>
  <property name="meta.attr.creation_time.markup">2022-12-15T02:00:55.000000Z</property>
  <property name="meta.attr.title.markup">02b list</property>
  <property name="meta.attr.voice-memo-uuid.markup">BE36A2FD-4380-4853-99BD-EACB8C6C5537</property>
  <property name="meta.attr.encoder.markup">com.apple.VoiceMemos (Blues (null))</property>
  <property name="seekable">1</property>
  <property name="kdenlive:clipname"/>
  <property name="kdenlive:clip_type">1</property>
  <property name="kdenlive:folderid">-1</property>
  <property name="kdenlive:id">6</property>
  <property name="kdenlive:file_size">243748</property>
  <property name="kdenlive:file_hash">0477177350823b98e6f1a3857c31c3c9</property>
  <property name="xml">was here</property>
  <property name="set.test_audio">0</property>
  <property name="set.test_image">1</property>
 </chain>
 <chain id="producer57" out="00:00:08.642">
  <property name="length">260</property>
  <property name="eof">pause</property>
  <property name="resource">02c failure.m4a</property>
  <property name="mlt_service">avformat-novalidate</property>
  <property name="audio_index">0</property>
  <property name="video_index">-1</property>
  <property name="meta.media.nb_streams">1</property>
  <property name="meta.media.0.stream.type">audio</property>
  <property name="meta.media.0.codec.sample_fmt">fltp</property>
  <property name="meta.media.0.codec.sample_rate">48000</property>
  <property name="meta.media.0.codec.channels">1</property>
  <property name="meta.media.0.codec.name">aac</property>
  <property name="meta.media.0.codec.long_name">AAC (Advanced Audio Coding)</property>
  <property name="meta.media.0.codec.bit_rate">65968</property>
  <property name="meta.attr.0.stream.creation_time.markup">2022-12-15T02:02:17.000000Z</property>
  <property name="meta.attr.0.stream.handler_name.markup">Core Media Audio</property>
  <property name="meta.attr.0.stream.vendor_id.markup">[0][0][0][0]</property>
  <property name="meta.attr.major_brand.markup">M4A </property>
  <property name="meta.attr.minor_version.markup">0</property>
  <property name="meta.attr.compatible_brands.markup">M4A isommp42</property>
  <property name="meta.attr.creation_time.markup">2022-12-15T02:02:17.000000Z</property>
  <property name="meta.attr.title.markup">02c failure</property>
  <property name="meta.attr.voice-memo-uuid.markup">7C7991C6-E085-4AFB-92F6-A76F627B9E07</property>
  <property name="meta.attr.encoder.markup">com.apple.VoiceMemos (Blues (null))</property>
  <property name="seekable">1</property>
  <property name="kdenlive:clipname"/>
  <property name="kdenlive:clip_type">1</property>
  <property name="kdenlive:folderid">-1</property>
  <property name="kdenlive:id">7</property>
  <property name="kdenlive:file_size">80113</property>
  <property name="kdenlive:file_hash">742682773c57e2e98bc02ee18b1c0f81</property>
  <property name="xml">was here</property>
  <property name="set.test_audio">0</property>
  <property name="set.test_image">1</property>
 </chain>
 <chain id="producer58" out="00:00:24.958">
  <property name="length">749</property>
  <property name="eof">pause</property>
  <property name="resource">02d dead.m4a</property>
  <property name="mlt_service">avformat-novalidate</property>
  <property name="audio_index">0</property>
  <property name="video_index">-1</property>
  <property name="meta.media.nb_streams">1</property>
  <property name="meta.media.0.stream.type">audio</property>
  <property name="meta.media.0.codec.sample_fmt">fltp</property>
  <property name="meta.media.0.codec.sample_rate">48000</property>
  <property name="meta.media.0.codec.channels">1</property>
  <property name="meta.media.0.codec.name">aac</property>
  <property name="meta.media.0.codec.long_name">AAC (Advanced Audio Coding)</property>
  <property name="meta.media.0.codec.bit_rate">65077</property>
  <property name="meta.attr.0.stream.creation_time.markup">2022-12-15T02:09:30.000000Z</property>
  <property name="meta.attr.0.stream.handler_name.markup">Core Media Audio</property>
  <property name="meta.attr.0.stream.vendor_id.markup">[0][0][0][0]</property>
  <property name="meta.attr.major_brand.markup">M4A </property>
  <property name="meta.attr.minor_version.markup">0</property>
  <property name="meta.attr.compatible_brands.markup">M4A isommp42</property>
  <property name="meta.attr.creation_time.markup">2022-12-15T02:09:30.000000Z</property>
  <property name="meta.attr.title.markup">02d dead</property>
  <property name="meta.attr.voice-memo-uuid.markup">C5D84A80-B8FD-4E2F-9EBB-3278BBBAED9B</property>
  <property name="meta.attr.encoder.markup">com.apple.VoiceMemos (Blues (null))</property>
  <property name="seekable">1</property>
  <property name="kdenlive:clipname"/>
  <property name="kdenlive:clip_type">1</property>
  <property name="kdenlive:folderid">-1</property>
  <property name="kdenlive:id">8</property>
  <property name="kdenlive:file_size">216734</property>
  <property name="kdenlive:file_hash">d3866049477edbc9d6fb283b0d90435f</property>
  <property name="xml">was here</property>
  <property name="set.test_audio">0</property>
  <property name="set.test_image">1</property>
 </chain>
 <chain id="producer59" out="00:00:20.153">
  <property name="length">605</property>
  <property name="eof">pause</property>
  <property name="resource">02e dead2.m4a</property>
  <property name="mlt_service">avformat-novalidate</property>
  <property name="audio_index">0</property>
  <property name="video_index">-1</property>
  <property name="meta.media.nb_streams">1</property>
  <property name="meta.media.0.stream.type">audio</property>
  <property name="meta.media.0.codec.sample_fmt">fltp</property>
  <property name="meta.media.0.codec.sample_rate">48000</property>
  <property name="meta.media.0.codec.channels">1</property>
  <property name="meta.media.0.codec.name">aac</property>
  <property name="meta.media.0.codec.long_name">AAC (Advanced Audio Coding)</property>
  <property name="meta.media.0.codec.bit_rate">65301</property>
  <property name="meta.attr.0.stream.creation_time.markup">2022-12-15T02:10:25.000000Z</property>
  <property name="meta.attr.0.stream.handler_name.markup">Core Media Audio</property>
  <property name="meta.attr.0.stream.vendor_id.markup">[0][0][0][0]</property>
  <property name="meta.attr.major_brand.markup">M4A </property>
  <property name="meta.attr.minor_version.markup">0</property>
  <property name="meta.attr.compatible_brands.markup">M4A isommp42</property>
  <property name="meta.attr.creation_time.markup">2022-12-15T02:10:25.000000Z</property>
  <property name="meta.attr.title.markup">02e dead2</property>
  <property name="meta.attr.voice-memo-uuid.markup">F32BFED8-4CFA-4FDC-A1E9-1D92D03D4A1D</property>
  <property name="meta.attr.encoder.markup">com.apple.VoiceMemos (Blues (null))</property>
  <property name="seekable">1</property>
  <property name="kdenlive:clipname"/>
  <property name="kdenlive:clip_type">1</property>
  <property name="kdenlive:folderid">-1</property>
  <property name="kdenlive:id">9</property>
  <property name="kdenlive:file_size">181117</property>
  <property name="kdenlive:file_hash">c4cb076968eea67d614c30b4a3df60fe</property>
  <property name="xml">was here</property>
  <property name="set.test_audio">0</property>
  <property name="set.test_image">1</property>
 </chain>
 <chain id="producer60" out="00:00:48.882">
  <property name="length">1466</property>
  <property name="eof">pause</property>
  <property name="resource">02f reasons.m4a</property>
  <property name="mlt_service">avformat-novalidate</property>
  <property name="audio_index">0</property>
  <property name="video_index">-1</property>
  <property name="meta.media.nb_streams">1</property>
  <property name="meta.media.0.stream.type">audio</property>
  <property name="meta.media.0.codec.sample_fmt">fltp</property>
  <property name="meta.media.0.codec.sample_rate">48000</property>
  <property name="meta.media.0.codec.channels">1</property>
  <property name="meta.media.0.codec.name">aac</property>
  <property name="meta.media.0.codec.long_name">AAC (Advanced Audio Coding)</property>
  <property name="meta.media.0.codec.bit_rate">65083</property>
  <property name="meta.attr.0.stream.creation_time.markup">2022-12-15T02:11:14.000000Z</property>
  <property name="meta.attr.0.stream.handler_name.markup">Core Media Audio</property>
  <property name="meta.attr.0.stream.vendor_id.markup">[0][0][0][0]</property>
  <property name="meta.attr.major_brand.markup">M4A </property>
  <property name="meta.attr.minor_version.markup">0</property>
  <property name="meta.attr.compatible_brands.markup">M4A isommp42</property>
  <property name="meta.attr.creation_time.markup">2022-12-15T02:11:14.000000Z</property>
  <property name="meta.attr.title.markup">02f reasons</property>
  <property name="meta.attr.voice-memo-uuid.markup">657FED14-3F97-42E3-A933-A584A35AAED2</property>
  <property name="meta.attr.encoder.markup">com.apple.VoiceMemos (Blues (null))</property>
  <property name="seekable">1</property>
  <property name="kdenlive:clipname"/>
  <property name="kdenlive:clip_type">1</property>
  <property name="kdenlive:folderid">-1</property>
  <property name="kdenlive:id">10</property>
  <property name="kdenlive:file_size">433123</property>
  <property name="kdenlive:file_hash">47baa0cdb39d5e69b3522daef030797a</property>
  <property name="xml">was here</property>
  <property name="set.test_audio">0</property>
  <property name="set.test_image">1</property>
 </chain>
 <chain id="producer61" out="00:01:02.269">
  <property name="length">1867</property>
  <property name="eof">pause</property>
  <property name="resource">02g story.m4a</property>
  <property name="mlt_service">avformat-novalidate</property>
  <property name="audio_index">0</property>
  <property name="video_index">-1</property>
  <property name="meta.media.nb_streams">1</property>
  <property name="meta.media.0.stream.type">audio</property>
  <property name="meta.media.0.codec.sample_fmt">fltp</property>
  <property name="meta.media.0.codec.sample_rate">48000</property>
  <property name="meta.media.0.codec.channels">1</property>
  <property name="meta.media.0.codec.name">aac</property>
  <property name="meta.media.0.codec.long_name">AAC (Advanced Audio Coding)</property>
  <property name="meta.media.0.codec.bit_rate">65275</property>
  <property name="meta.attr.0.stream.creation_time.markup">2022-12-15T02:13:05.000000Z</property>
  <property name="meta.attr.0.stream.handler_name.markup">Core Media Audio</property>
  <property name="meta.attr.0.stream.vendor_id.markup">[0][0][0][0]</property>
  <property name="meta.attr.major_brand.markup">M4A </property>
  <property name="meta.attr.minor_version.markup">0</property>
  <property name="meta.attr.compatible_brands.markup">M4A isommp42</property>
  <property name="meta.attr.creation_time.markup">2022-12-15T02:13:05.000000Z</property>
  <property name="meta.attr.title.markup">02g story</property>
  <property name="meta.attr.voice-memo-uuid.markup">F75B37BA-1172-4378-9FE5-722CD9F3ADB0</property>
  <property name="meta.attr.encoder.markup">com.apple.VoiceMemos (Blues (null))</property>
  <property name="seekable">1</property>
  <property name="kdenlive:clipname"/>
  <property name="kdenlive:clip_type">1</property>
  <property name="kdenlive:folderid">-1</property>
  <property name="kdenlive:id">11</property>
  <property name="kdenlive:file_size">552578</property>
  <property name="kdenlive:file_hash">3615ae8f441f34e6dff0560608667ea3</property>
  <property name="xml">was here</property>
  <property name="set.test_audio">0</property>
  <property name="set.test_image">1</property>
 </chain>
 <chain id="producer62" out="00:00:12.346">
  <property name="length">371</property>
  <property name="eof">pause</property>
  <property name="resource">02h fault.m4a</property>
  <property name="mlt_service">avformat-novalidate</property>
  <property name="audio_index">0</property>
  <property name="video_index">-1</property>
  <property name="meta.media.nb_streams">1</property>
  <property name="meta.media.0.stream.type">audio</property>
  <property name="meta.media.0.codec.sample_fmt">fltp</property>
  <property name="meta.media.0.codec.sample_rate">48000</property>
  <property name="meta.media.0.codec.channels">1</property>
  <property name="meta.media.0.codec.name">aac</property>
  <property name="meta.media.0.codec.long_name">AAC (Advanced Audio Coding)</property>
  <property name="meta.media.0.codec.bit_rate">64873</property>
  <property name="meta.attr.0.stream.creation_time.markup">2022-12-15T02:15:15.000000Z</property>
  <property name="meta.attr.0.stream.handler_name.markup">Core Media Audio</property>
  <property name="meta.attr.0.stream.vendor_id.markup">[0][0][0][0]</property>
  <property name="meta.attr.major_brand.markup">M4A </property>
  <property name="meta.attr.minor_version.markup">0</property>
  <property name="meta.attr.compatible_brands.markup">M4A isommp42</property>
  <property name="meta.attr.creation_time.markup">2022-12-15T02:15:15.000000Z</property>
  <property name="meta.attr.title.markup">02h fault</property>
  <property name="meta.attr.voice-memo-uuid.markup">1F6B5485-8058-4B5A-A964-4F3D591A2208</property>
  <property name="meta.attr.encoder.markup">com.apple.VoiceMemos (Blues (null))</property>
  <property name="seekable">1</property>
  <property name="kdenlive:clipname"/>
  <property name="kdenlive:clip_type">1</property>
  <property name="kdenlive:folderid">-1</property>
  <property name="kdenlive:id">12</property>
  <property name="kdenlive:file_size">111522</property>
  <property name="kdenlive:file_hash">a3c04badd89215859cf661fb1c808763</property>
  <property name="xml">was here</property>
  <property name="set.test_audio">0</property>
  <property name="set.test_image">1</property>
 </chain>
 <chain id="producer63" out="00:00:14.348">
  <property name="length">431</property>
  <property name="eof">pause</property>
  <property name="resource">03a present.m4a</property>
  <property name="mlt_service">avformat-novalidate</property>
  <property name="audio_index">0</property>
  <property name="video_index">-1</property>
  <property name="meta.media.nb_streams">1</property>
  <property name="meta.media.0.stream.type">audio</property>
  <property name="meta.media.0.codec.sample_fmt">fltp</property>
  <property name="meta.media.0.codec.sample_rate">48000</property>
  <property name="meta.media.0.codec.channels">1</property>
  <property name="meta.media.0.codec.name">aac</property>
  <property name="meta.media.0.codec.long_name">AAC (Advanced Audio Coding)</property>
  <property name="meta.media.0.codec.bit_rate">65223</property>
  <property name="meta.attr.0.stream.creation_time.markup">2022-12-15T02:23:29.000000Z</property>
  <property name="meta.attr.0.stream.handler_name.markup">Core Media Audio</property>
  <property name="meta.attr.0.stream.vendor_id.markup">[0][0][0][0]</property>
  <property name="meta.attr.major_brand.markup">M4A </property>
  <property name="meta.attr.minor_version.markup">0</property>
  <property name="meta.attr.compatible_brands.markup">M4A isommp42</property>
  <property name="meta.attr.creation_time.markup">2022-12-15T02:23:29.000000Z</property>
  <property name="meta.attr.title.markup">03a present</property>
  <property name="meta.attr.voice-memo-uuid.markup">E19C233D-07F3-49CA-9D55-404EC7531FFC</property>
  <property name="meta.attr.encoder.markup">com.apple.VoiceMemos (Blues (null))</property>
  <property name="seekable">1</property>
  <property name="kdenlive:clipname"/>
  <property name="kdenlive:clip_type">1</property>
  <property name="kdenlive:folderid">-1</property>
  <property name="kdenlive:id">13</property>
  <property name="kdenlive:file_size">129753</property>
  <property name="kdenlive:file_hash">e7e360bf62e67b8f6e74da637803249f</property>
  <property name="xml">was here</property>
  <property name="set.test_audio">0</property>
  <property name="set.test_image">1</property>
 </chain>
 <chain id="producer64" out="00:00:28.695">
  <property name="length">861</property>
  <property name="eof">pause</property>
  <property name="resource">03b gone.m4a</property>
  <property name="mlt_service">avformat-novalidate</property>
  <property name="audio_index">0</property>
  <property name="video_index">-1</property>
  <property name="meta.media.nb_streams">1</property>
  <property name="meta.media.0.stream.type">audio</property>
  <property name="meta.media.0.codec.sample_fmt">fltp</property>
  <property name="meta.media.0.codec.sample_rate">48000</property>
  <property name="meta.media.0.codec.channels">1</property>
  <property name="meta.media.0.codec.name">aac</property>
  <property name="meta.media.0.codec.long_name">AAC (Advanced Audio Coding)</property>
  <property name="meta.media.0.codec.bit_rate">65192</property>
  <property name="meta.attr.0.stream.creation_time.markup">2022-12-15T02:24:08.000000Z</property>
  <property name="meta.attr.0.stream.handler_name.markup">Core Media Audio</property>
  <property name="meta.attr.0.stream.vendor_id.markup">[0][0][0][0]</property>
  <property name="meta.attr.major_brand.markup">M4A </property>
  <property name="meta.attr.minor_version.markup">0</property>
  <property name="meta.attr.compatible_brands.markup">M4A isommp42</property>
  <property name="meta.attr.creation_time.markup">2022-12-15T02:24:08.000000Z</property>
  <property name="meta.attr.title.markup">03b gone</property>
  <property name="meta.attr.voice-memo-uuid.markup">CD639CC0-55C4-4477-8D3C-35B89CEC8B6F</property>
  <property name="meta.attr.encoder.markup">com.apple.VoiceMemos (Blues (null))</property>
  <property name="seekable">1</property>
  <property name="kdenlive:clipname"/>
  <property name="kdenlive:clip_type">1</property>
  <property name="kdenlive:folderid">-1</property>
  <property name="kdenlive:id">14</property>
  <property name="kdenlive:file_size">249590</property>
  <property name="kdenlive:file_hash">11493c04e2b70e709ffeb2a58fba143d</property>
  <property name="xml">was here</property>
  <property name="set.test_audio">0</property>
  <property name="set.test_image">1</property>
 </chain>
 <chain id="producer65" out="00:00:21.021">
  <property name="length">631</property>
  <property name="eof">pause</property>
  <property name="resource">03c archive.m4a</property>
  <property name="mlt_service">avformat-novalidate</property>
  <property name="audio_index">0</property>
  <property name="video_index">-1</property>
  <property name="meta.media.nb_streams">1</property>
  <property name="meta.media.0.stream.type">audio</property>
  <property name="meta.media.0.codec.sample_fmt">fltp</property>
  <property name="meta.media.0.codec.sample_rate">48000</property>
  <property name="meta.media.0.codec.channels">1</property>
  <property name="meta.media.0.codec.name">aac</property>
  <property name="meta.media.0.codec.long_name">AAC (Advanced Audio Coding)</property>
  <property name="meta.media.0.codec.bit_rate">65056</property>
  <property name="meta.attr.0.stream.creation_time.markup">2022-12-15T02:25:41.000000Z</property>
  <property name="meta.attr.0.stream.handler_name.markup">Core Media Audio</property>
  <property name="meta.attr.0.stream.vendor_id.markup">[0][0][0][0]</property>
  <property name="meta.attr.major_brand.markup">M4A </property>
  <property name="meta.attr.minor_version.markup">0</property>
  <property name="meta.attr.compatible_brands.markup">M4A isommp42</property>
  <property name="meta.attr.creation_time.markup">2022-12-15T02:25:41.000000Z</property>
  <property name="meta.attr.title.markup">03c archive</property>
  <property name="meta.attr.voice-memo-uuid.markup">9E2C980F-68F9-416B-812E-E8C3E1FEC1B7</property>
  <property name="meta.attr.encoder.markup">com.apple.VoiceMemos (Blues (null))</property>
  <property name="seekable">1</property>
  <property name="kdenlive:clipname"/>
  <property name="kdenlive:clip_type">1</property>
  <property name="kdenlive:folderid">-1</property>
  <property name="kdenlive:id">15</property>
  <property name="kdenlive:file_size">188157</property>
  <property name="kdenlive:file_hash">4a50052866fecb917cbb6c119b3b66a1</property>
  <property name="xml">was here</property>
  <property name="set.test_audio">0</property>
  <property name="set.test_image">1</property>
 </chain>
 <chain id="producer66" out="00:00:12.846">
  <property name="length">386</property>
  <property name="eof">pause</property>
  <property name="resource">03d realize.m4a</property>
  <property name="mlt_service">avformat-novalidate</property>
  <property name="audio_index">0</property>
  <property name="video_index">-1</property>
  <property name="meta.media.nb_streams">1</property>
  <property name="meta.media.0.stream.type">audio</property>
  <property name="meta.media.0.codec.sample_fmt">fltp</property>
  <property name="meta.media.0.codec.sample_rate">48000</property>
  <property name="meta.media.0.codec.channels">1</property>
  <property name="meta.media.0.codec.name">aac</property>
  <property name="meta.media.0.codec.long_name">AAC (Advanced Audio Coding)</property>
  <property name="meta.media.0.codec.bit_rate">65381</property>
  <property name="meta.attr.0.stream.creation_time.markup">2022-12-15T02:33:41.000000Z</property>
  <property name="meta.attr.0.stream.handler_name.markup">Core Media Audio</property>
  <property name="meta.attr.0.stream.vendor_id.markup">[0][0][0][0]</property>
  <property name="meta.attr.major_brand.markup">M4A </property>
  <property name="meta.attr.minor_version.markup">0</property>
  <property name="meta.attr.compatible_brands.markup">M4A isommp42</property>
  <property name="meta.attr.creation_time.markup">2022-12-15T02:33:41.000000Z</property>
  <property name="meta.attr.title.markup">03d realize</property>
  <property name="meta.attr.voice-memo-uuid.markup">9C4E8BF8-C30E-4E2A-A8C7-E968C42A83EF</property>
  <property name="meta.attr.encoder.markup">com.apple.VoiceMemos (Blues (null))</property>
  <property name="seekable">1</property>
  <property name="kdenlive:clipname"/>
  <property name="kdenlive:clip_type">1</property>
  <property name="kdenlive:folderid">-1</property>
  <property name="kdenlive:id">16</property>
  <property name="kdenlive:file_size">116599</property>
  <property name="kdenlive:file_hash">e52e7e485dfd7c3b46741ba655b5fa26</property>
  <property name="xml">was here</property>
  <property name="set.test_audio">0</property>
  <property name="set.test_image">1</property>
 </chain>
 <chain id="producer67" out="00:00:27.494">
  <property name="length">825</property>
  <property name="eof">pause</property>
  <property name="resource">03e design.m4a</property>
  <property name="mlt_service">avformat-novalidate</property>
  <property name="audio_index">0</property>
  <property name="video_index">-1</property>
  <property name="meta.media.nb_streams">1</property>
  <property name="meta.media.0.stream.type">audio</property>
  <property name="meta.media.0.codec.sample_fmt">fltp</property>
  <property name="meta.media.0.codec.sample_rate">48000</property>
  <property name="meta.media.0.codec.channels">1</property>
  <property name="meta.media.0.codec.name">aac</property>
  <property name="meta.media.0.codec.long_name">AAC (Advanced Audio Coding)</property>
  <property name="meta.media.0.codec.bit_rate">64762</property>
  <property name="meta.attr.0.stream.creation_time.markup">2022-12-15T02:35:43.000000Z</property>
  <property name="meta.attr.0.stream.handler_name.markup">Core Media Audio</property>
  <property name="meta.attr.0.stream.vendor_id.markup">[0][0][0][0]</property>
  <property name="meta.attr.major_brand.markup">M4A </property>
  <property name="meta.attr.minor_version.markup">0</property>
  <property name="meta.attr.compatible_brands.markup">M4A isommp42</property>
  <property name="meta.attr.creation_time.markup">2022-12-15T02:35:43.000000Z</property>
  <property name="meta.attr.title.markup">03e design</property>
  <property name="meta.attr.voice-memo-uuid.markup">74A28737-C180-4273-B203-2F6435D0E543</property>
  <property name="meta.attr.encoder.markup">com.apple.VoiceMemos (Blues (null))</property>
  <property name="seekable">1</property>
  <property name="kdenlive:clipname"/>
  <property name="kdenlive:clip_type">1</property>
  <property name="kdenlive:folderid">-1</property>
  <property name="kdenlive:id">18</property>
  <property name="kdenlive:file_size">244123</property>
  <property name="kdenlive:file_hash">1fedd8b878d8887db8097eb4c0de08a2</property>
  <property name="xml">was here</property>
  <property name="set.test_audio">0</property>
  <property name="set.test_image">1</property>
 </chain>
 <chain id="producer68" out="00:00:48.815">
  <property name="length">1464</property>
  <property name="eof">pause</property>
  <property name="resource">03f inhumane.m4a</property>
  <property name="mlt_service">avformat-novalidate</property>
  <property name="audio_index">0</property>
  <property name="video_index">-1</property>
  <property name="meta.media.nb_streams">1</property>
  <property name="meta.media.0.stream.type">audio</property>
  <property name="meta.media.0.codec.sample_fmt">fltp</property>
  <property name="meta.media.0.codec.sample_rate">48000</property>
  <property name="meta.media.0.codec.channels">1</property>
  <property name="meta.media.0.codec.name">aac</property>
  <property name="meta.media.0.codec.long_name">AAC (Advanced Audio Coding)</property>
  <property name="meta.media.0.codec.bit_rate">65262</property>
  <property name="meta.attr.0.stream.creation_time.markup">2022-12-15T02:49:08.000000Z</property>
  <property name="meta.attr.0.stream.handler_name.markup">Core Media Audio</property>
  <property name="meta.attr.0.stream.vendor_id.markup">[0][0][0][0]</property>
  <property name="meta.attr.major_brand.markup">M4A </property>
  <property name="meta.attr.minor_version.markup">0</property>
  <property name="meta.attr.compatible_brands.markup">M4A isommp42</property>
  <property name="meta.attr.creation_time.markup">2022-12-15T02:49:08.000000Z</property>
  <property name="meta.attr.title.markup">03f inhumane</property>
  <property name="meta.attr.voice-memo-uuid.markup">2BFD1868-7305-4328-90DC-977F4C4E4864</property>
  <property name="meta.attr.encoder.markup">com.apple.VoiceMemos (Blues (null))</property>
  <property name="seekable">1</property>
  <property name="kdenlive:clipname"/>
  <property name="kdenlive:clip_type">1</property>
  <property name="kdenlive:folderid">-1</property>
  <property name="kdenlive:id">19</property>
  <property name="kdenlive:file_size">433663</property>
  <property name="kdenlive:file_hash">dc5299eac9804c141551d9b41440fcc6</property>
  <property name="xml">was here</property>
  <property name="set.test_audio">0</property>
  <property name="set.test_image">1</property>
 </chain>
 <chain id="producer69" out="00:00:27.394">
  <property name="length">822</property>
  <property name="eof">pause</property>
  <property name="resource">04a paradox.m4a</property>
  <property name="mlt_service">avformat-novalidate</property>
  <property name="audio_index">0</property>
  <property name="video_index">-1</property>
  <property name="meta.media.nb_streams">1</property>
  <property name="meta.media.0.stream.type">audio</property>
  <property name="meta.media.0.codec.sample_fmt">fltp</property>
  <property name="meta.media.0.codec.sample_rate">48000</property>
  <property name="meta.media.0.codec.channels">1</property>
  <property name="meta.media.0.codec.name">aac</property>
  <property name="meta.media.0.codec.long_name">AAC (Advanced Audio Coding)</property>
  <property name="meta.media.0.codec.bit_rate">64835</property>
  <property name="meta.attr.0.stream.creation_time.markup">2022-12-15T02:58:21.000000Z</property>
  <property name="meta.attr.0.stream.handler_name.markup">Core Media Audio</property>
  <property name="meta.attr.0.stream.vendor_id.markup">[0][0][0][0]</property>
  <property name="meta.attr.major_brand.markup">M4A </property>
  <property name="meta.attr.minor_version.markup">0</property>
  <property name="meta.attr.compatible_brands.markup">M4A isommp42</property>
  <property name="meta.attr.creation_time.markup">2022-12-15T02:58:21.000000Z</property>
  <property name="meta.attr.title.markup">04a paradox</property>
  <property name="meta.attr.voice-memo-uuid.markup">4088A727-E8EB-4F55-BE90-74462E439496</property>
  <property name="meta.attr.encoder.markup">com.apple.VoiceMemos (Blues (null))</property>
  <property name="seekable">1</property>
  <property name="kdenlive:clipname"/>
  <property name="kdenlive:clip_type">1</property>
  <property name="kdenlive:folderid">-1</property>
  <property name="kdenlive:id">20</property>
  <property name="kdenlive:file_size">243453</property>
  <property name="kdenlive:file_hash">2255e30bb8a2e8b88dd0969fa7822b11</property>
  <property name="xml">was here</property>
  <property name="set.test_audio">0</property>
  <property name="set.test_image">1</property>
 </chain>
 <chain id="producer70" out="00:00:11.912">
  <property name="length">358</property>
  <property name="eof">pause</property>
  <property name="resource">04b train.m4a</property>
  <property name="mlt_service">avformat-novalidate</property>
  <property name="audio_index">0</property>
  <property name="video_index">-1</property>
  <property name="meta.media.nb_streams">1</property>
  <property name="meta.media.0.stream.type">audio</property>
  <property name="meta.media.0.codec.sample_fmt">fltp</property>
  <property name="meta.media.0.codec.sample_rate">48000</property>
  <property name="meta.media.0.codec.channels">1</property>
  <property name="meta.media.0.codec.name">aac</property>
  <property name="meta.media.0.codec.long_name">AAC (Advanced Audio Coding)</property>
  <property name="meta.media.0.codec.bit_rate">65330</property>
  <property name="meta.attr.0.stream.creation_time.markup">2022-12-15T02:59:32.000000Z</property>
  <property name="meta.attr.0.stream.handler_name.markup">Core Media Audio</property>
  <property name="meta.attr.0.stream.vendor_id.markup">[0][0][0][0]</property>
  <property name="meta.attr.major_brand.markup">M4A </property>
  <property name="meta.attr.minor_version.markup">0</property>
  <property name="meta.attr.compatible_brands.markup">M4A isommp42</property>
  <property name="meta.attr.creation_time.markup">2022-12-15T02:59:32.000000Z</property>
  <property name="meta.attr.title.markup">04b train</property>
  <property name="meta.attr.voice-memo-uuid.markup">BF576DA5-CBD5-4823-8259-3D5A9939A52B</property>
  <property name="meta.attr.encoder.markup">com.apple.VoiceMemos (Blues (null))</property>
  <property name="seekable">1</property>
  <property name="kdenlive:clipname"/>
  <property name="kdenlive:clip_type">1</property>
  <property name="kdenlive:folderid">-1</property>
  <property name="kdenlive:id">21</property>
  <property name="kdenlive:file_size">108352</property>
  <property name="kdenlive:file_hash">7ae582384cac7667ff67e862b7a47ce5</property>
  <property name="xml">was here</property>
  <property name="set.test_audio">0</property>
  <property name="set.test_image">1</property>
 </chain>
 <chain id="producer71" out="00:00:45.913">
  <property name="length">1377</property>
  <property name="eof">pause</property>
  <property name="resource">04c activity.m4a</property>
  <property name="mlt_service">avformat-novalidate</property>
  <property name="audio_index">0</property>
  <property name="video_index">-1</property>
  <property name="meta.media.nb_streams">1</property>
  <property name="meta.media.0.stream.type">audio</property>
  <property name="meta.media.0.codec.sample_fmt">fltp</property>
  <property name="meta.media.0.codec.sample_rate">48000</property>
  <property name="meta.media.0.codec.channels">1</property>
  <property name="meta.media.0.codec.name">aac</property>
  <property name="meta.media.0.codec.long_name">AAC (Advanced Audio Coding)</property>
  <property name="meta.media.0.codec.bit_rate">65148</property>
  <property name="meta.attr.0.stream.creation_time.markup">2022-12-15T03:00:27.000000Z</property>
  <property name="meta.attr.0.stream.handler_name.markup">Core Media Audio</property>
  <property name="meta.attr.0.stream.vendor_id.markup">[0][0][0][0]</property>
  <property name="meta.attr.major_brand.markup">M4A </property>
  <property name="meta.attr.minor_version.markup">0</property>
  <property name="meta.attr.compatible_brands.markup">M4A isommp42</property>
  <property name="meta.attr.creation_time.markup">2022-12-15T03:00:27.000000Z</property>
  <property name="meta.attr.title.markup">04c activity</property>
  <property name="meta.attr.voice-memo-uuid.markup">1D7463F2-356F-4E73-90A9-D3A4BC849860</property>
  <property name="meta.attr.encoder.markup">com.apple.VoiceMemos (Blues (null))</property>
  <property name="seekable">1</property>
  <property name="kdenlive:clipname"/>
  <property name="kdenlive:clip_type">1</property>
  <property name="kdenlive:folderid">-1</property>
  <property name="kdenlive:id">22</property>
  <property name="kdenlive:file_size">407558</property>
  <property name="kdenlive:file_hash">f1c5d67275d9b038e6d0423a2adf3593</property>
  <property name="xml">was here</property>
  <property name="set.test_audio">0</property>
  <property name="set.test_image">1</property>
 </chain>
 <chain id="producer72" out="00:00:18.218">
  <property name="length">547</property>
  <property name="eof">pause</property>
  <property name="resource">04d verify.m4a</property>
  <property name="mlt_service">avformat-novalidate</property>
  <property name="audio_index">0</property>
  <property name="video_index">-1</property>
  <property name="meta.media.nb_streams">1</property>
  <property name="meta.media.0.stream.type">audio</property>
  <property name="meta.media.0.codec.sample_fmt">fltp</property>
  <property name="meta.media.0.codec.sample_rate">48000</property>
  <property name="meta.media.0.codec.channels">1</property>
  <property name="meta.media.0.codec.name">aac</property>
  <property name="meta.media.0.codec.long_name">AAC (Advanced Audio Coding)</property>
  <property name="meta.media.0.codec.bit_rate">65454</property>
  <property name="meta.attr.0.stream.creation_time.markup">2022-12-15T03:02:05.000000Z</property>
  <property name="meta.attr.0.stream.handler_name.markup">Core Media Audio</property>
  <property name="meta.attr.0.stream.vendor_id.markup">[0][0][0][0]</property>
  <property name="meta.attr.major_brand.markup">M4A </property>
  <property name="meta.attr.minor_version.markup">0</property>
  <property name="meta.attr.compatible_brands.markup">M4A isommp42</property>
  <property name="meta.attr.creation_time.markup">2022-12-15T03:02:05.000000Z</property>
  <property name="meta.attr.title.markup">04d verify</property>
  <property name="meta.attr.voice-memo-uuid.markup">2231DE79-CDC1-46DB-98AF-A7A771AF8EDC</property>
  <property name="meta.attr.encoder.markup">com.apple.VoiceMemos (Blues (null))</property>
  <property name="seekable">1</property>
  <property name="kdenlive:clipname"/>
  <property name="kdenlive:clip_type">1</property>
  <property name="kdenlive:folderid">-1</property>
  <property name="kdenlive:id">17</property>
  <property name="kdenlive:file_size">164323</property>
  <property name="kdenlive:file_hash">01b61fccc2fd2ec2350f29f5d3d641f7</property>
  <property name="xml">was here</property>
  <property name="set.test_audio">0</property>
  <property name="set.test_image">1</property>
 </chain>
 <chain id="producer73" out="00:00:26.026">
  <property name="length">781</property>
  <property name="eof">pause</property>
  <property name="resource">04e suggest.m4a</property>
  <property name="mlt_service">avformat-novalidate</property>
  <property name="audio_index">0</property>
  <property name="video_index">-1</property>
  <property name="meta.media.nb_streams">1</property>
  <property name="meta.media.0.stream.type">audio</property>
  <property name="meta.media.0.codec.sample_fmt">fltp</property>
  <property name="meta.media.0.codec.sample_rate">48000</property>
  <property name="meta.media.0.codec.channels">1</property>
  <property name="meta.media.0.codec.name">aac</property>
  <property name="meta.media.0.codec.long_name">AAC (Advanced Audio Coding)</property>
  <property name="meta.media.0.codec.bit_rate">64892</property>
  <property name="meta.attr.0.stream.creation_time.markup">2022-12-15T03:03:08.000000Z</property>
  <property name="meta.attr.0.stream.handler_name.markup">Core Media Audio</property>
  <property name="meta.attr.0.stream.vendor_id.markup">[0][0][0][0]</property>
  <property name="meta.attr.major_brand.markup">M4A </property>
  <property name="meta.attr.minor_version.markup">0</property>
  <property name="meta.attr.compatible_brands.markup">M4A isommp42</property>
  <property name="meta.attr.creation_time.markup">2022-12-15T03:03:08.000000Z</property>
  <property name="meta.attr.title.markup">04e suggest</property>
  <property name="meta.attr.voice-memo-uuid.markup">3D21C9C9-7F3F-4029-9E5A-1E9492035157</property>
  <property name="meta.attr.encoder.markup">com.apple.VoiceMemos (Blues (null))</property>
  <property name="seekable">1</property>
  <property name="kdenlive:clipname"/>
  <property name="kdenlive:clip_type">1</property>
  <property name="kdenlive:folderid">-1</property>
  <property name="kdenlive:id">24</property>
  <property name="kdenlive:file_size">231568</property>
  <property name="kdenlive:file_hash">4e4e4513815f1a5a710dd654e7990d93</property>
  <property name="xml">was here</property>
  <property name="set.test_audio">0</property>
  <property name="set.test_image">1</property>
 </chain>
 <chain id="producer74" out="00:00:15.215">
  <property name="length">457</property>
  <property name="eof">pause</property>
  <property name="resource">04f nicer.m4a</property>
  <property name="mlt_service">avformat-novalidate</property>
  <property name="audio_index">0</property>
  <property name="video_index">-1</property>
  <property name="meta.media.nb_streams">1</property>
  <property name="meta.media.0.stream.type">audio</property>
  <property name="meta.media.0.codec.sample_fmt">fltp</property>
  <property name="meta.media.0.codec.sample_rate">48000</property>
  <property name="meta.media.0.codec.channels">1</property>
  <property name="meta.media.0.codec.name">aac</property>
  <property name="meta.media.0.codec.long_name">AAC (Advanced Audio Coding)</property>
  <property name="meta.media.0.codec.bit_rate">65238</property>
  <property name="meta.attr.0.stream.creation_time.markup">2022-12-15T03:10:26.000000Z</property>
  <property name="meta.attr.0.stream.handler_name.markup">Core Media Audio</property>
  <property name="meta.attr.0.stream.vendor_id.markup">[0][0][0][0]</property>
  <property name="meta.attr.major_brand.markup">M4A </property>
  <property name="meta.attr.minor_version.markup">0</property>
  <property name="meta.attr.compatible_brands.markup">M4A isommp42</property>
  <property name="meta.attr.creation_time.markup">2022-12-15T03:10:26.000000Z</property>
  <property name="meta.attr.title.markup">04f nicer</property>
  <property name="meta.attr.voice-memo-uuid.markup">EDD389B4-FE38-435F-89E0-B571D87CD78A</property>
  <property name="meta.attr.encoder.markup">com.apple.VoiceMemos (Blues (null))</property>
  <property name="seekable">1</property>
  <property name="kdenlive:clipname"/>
  <property name="kdenlive:clip_type">1</property>
  <property name="kdenlive:folderid">-1</property>
  <property name="kdenlive:id">25</property>
  <property name="kdenlive:file_size">137269</property>
  <property name="kdenlive:file_hash">1e3436c43e990877577637696874fdf3</property>
  <property name="xml">was here</property>
  <property name="set.test_audio">0</property>
  <property name="set.test_image">1</property>
 </chain>
 <chain id="producer75" out="00:00:29.496">
  <property name="length">885</property>
  <property name="eof">pause</property>
  <property name="resource">05a game.m4a</property>
  <property name="mlt_service">avformat-novalidate</property>
  <property name="audio_index">0</property>
  <property name="video_index">-1</property>
  <property name="meta.media.nb_streams">1</property>
  <property name="meta.media.0.stream.type">audio</property>
  <property name="meta.media.0.codec.sample_fmt">fltp</property>
  <property name="meta.media.0.codec.sample_rate">48000</property>
  <property name="meta.media.0.codec.channels">1</property>
  <property name="meta.media.0.codec.name">aac</property>
  <property name="meta.media.0.codec.long_name">AAC (Advanced Audio Coding)</property>
  <property name="meta.media.0.codec.bit_rate">65078</property>
  <property name="meta.attr.0.stream.creation_time.markup">2022-12-15T03:13:05.000000Z</property>
  <property name="meta.attr.0.stream.handler_name.markup">Core Media Audio</property>
  <property name="meta.attr.0.stream.vendor_id.markup">[0][0][0][0]</property>
  <property name="meta.attr.major_brand.markup">M4A </property>
  <property name="meta.attr.minor_version.markup">0</property>
  <property name="meta.attr.compatible_brands.markup">M4A isommp42</property>
  <property name="meta.attr.creation_time.markup">2022-12-15T03:13:05.000000Z</property>
  <property name="meta.attr.title.markup">05a game</property>
  <property name="meta.attr.voice-memo-uuid.markup">2C531936-52E6-4EF4-83F8-2D0DE6D6E530</property>
  <property name="meta.attr.encoder.markup">com.apple.VoiceMemos (Blues (null))</property>
  <property name="seekable">1</property>
  <property name="kdenlive:clipname"/>
  <property name="kdenlive:clip_type">1</property>
  <property name="kdenlive:folderid">-1</property>
  <property name="kdenlive:id">26</property>
  <property name="kdenlive:file_size">255931</property>
  <property name="kdenlive:file_hash">060e868d4e0d264df292a16e89035bd0</property>
  <property name="xml">was here</property>
  <property name="set.test_audio">0</property>
  <property name="set.test_image">1</property>
 </chain>
 <chain id="producer76" out="00:00:35.302">
  <property name="length">1059</property>
  <property name="eof">pause</property>
  <property name="resource">05b skim.m4a</property>
  <property name="mlt_service">avformat-novalidate</property>
  <property name="audio_index">0</property>
  <property name="video_index">-1</property>
  <property name="meta.media.nb_streams">1</property>
  <property name="meta.media.0.stream.type">audio</property>
  <property name="meta.media.0.codec.sample_fmt">fltp</property>
  <property name="meta.media.0.codec.sample_rate">48000</property>
  <property name="meta.media.0.codec.channels">1</property>
  <property name="meta.media.0.codec.name">aac</property>
  <property name="meta.media.0.codec.long_name">AAC (Advanced Audio Coding)</property>
  <property name="meta.media.0.codec.bit_rate">65149</property>
  <property name="meta.attr.0.stream.creation_time.markup">2022-12-15T03:59:39.000000Z</property>
  <property name="meta.attr.0.stream.handler_name.markup">Core Media Audio</property>
  <property name="meta.attr.0.stream.vendor_id.markup">[0][0][0][0]</property>
  <property name="meta.attr.major_brand.markup">M4A </property>
  <property name="meta.attr.minor_version.markup">0</property>
  <property name="meta.attr.compatible_brands.markup">M4A isommp42</property>
  <property name="meta.attr.creation_time.markup">2022-12-15T03:59:39.000000Z</property>
  <property name="meta.attr.title.markup">05b skim</property>
  <property name="meta.attr.voice-memo-uuid.markup">D0727D9C-770A-4451-94B7-C401DEF375BE</property>
  <property name="meta.attr.encoder.markup">com.apple.VoiceMemos (Blues (null))</property>
  <property name="seekable">1</property>
  <property name="kdenlive:clipname"/>
  <property name="kdenlive:clip_type">1</property>
  <property name="kdenlive:folderid">-1</property>
  <property name="kdenlive:id">27</property>
  <property name="kdenlive:file_size">306119</property>
  <property name="kdenlive:file_hash">dd3ee705038991e0d30831a2fb0446ff</property>
  <property name="xml">was here</property>
  <property name="set.test_audio">0</property>
  <property name="set.test_image">1</property>
 </chain>
 <chain id="producer77" out="00:00:21.722">
  <property name="length">652</property>
  <property name="eof">pause</property>
  <property name="resource">05c quick.m4a</property>
  <property name="mlt_service">avformat-novalidate</property>
  <property name="audio_index">0</property>
  <property name="video_index">-1</property>
  <property name="meta.media.nb_streams">1</property>
  <property name="meta.media.0.stream.type">audio</property>
  <property name="meta.media.0.codec.sample_fmt">fltp</property>
  <property name="meta.media.0.codec.sample_rate">48000</property>
  <property name="meta.media.0.codec.channels">1</property>
  <property name="meta.media.0.codec.name">aac</property>
  <property name="meta.media.0.codec.long_name">AAC (Advanced Audio Coding)</property>
  <property name="meta.media.0.codec.bit_rate">65064</property>
  <property name="meta.attr.0.stream.creation_time.markup">2022-12-15T04:03:46.000000Z</property>
  <property name="meta.attr.0.stream.handler_name.markup">Core Media Audio</property>
  <property name="meta.attr.0.stream.vendor_id.markup">[0][0][0][0]</property>
  <property name="meta.attr.major_brand.markup">M4A </property>
  <property name="meta.attr.minor_version.markup">0</property>
  <property name="meta.attr.compatible_brands.markup">M4A isommp42</property>
  <property name="meta.attr.creation_time.markup">2022-12-15T04:03:46.000000Z</property>
  <property name="meta.attr.title.markup">05c quick</property>
  <property name="meta.attr.voice-memo-uuid.markup">749F7A20-7DCE-4CBC-805C-E3721AF74055</property>
  <property name="meta.attr.encoder.markup">com.apple.VoiceMemos (Blues (null))</property>
  <property name="seekable">1</property>
  <property name="kdenlive:clipname"/>
  <property name="kdenlive:clip_type">1</property>
  <property name="kdenlive:folderid">-1</property>
  <property name="kdenlive:id">28</property>
  <property name="kdenlive:file_size">194112</property>
  <property name="kdenlive:file_hash">45b93ee34bb0c649b49d41662d2a6065</property>
  <property name="xml">was here</property>
  <property name="set.test_audio">0</property>
  <property name="set.test_image">1</property>
 </chain>
 <chain id="producer78" out="00:00:18.652">
  <property name="length">560</property>
  <property name="eof">pause</property>
  <property name="resource">05d shape.m4a</property>
  <property name="mlt_service">avformat-novalidate</property>
  <property name="audio_index">0</property>
  <property name="video_index">-1</property>
  <property name="meta.media.nb_streams">1</property>
  <property name="meta.media.0.stream.type">audio</property>
  <property name="meta.media.0.codec.sample_fmt">fltp</property>
  <property name="meta.media.0.codec.sample_rate">48000</property>
  <property name="meta.media.0.codec.channels">1</property>
  <property name="meta.media.0.codec.name">aac</property>
  <property name="meta.media.0.codec.long_name">AAC (Advanced Audio Coding)</property>
  <property name="meta.media.0.codec.bit_rate">65036</property>
  <property name="meta.attr.0.stream.creation_time.markup">2022-12-15T04:01:09.000000Z</property>
  <property name="meta.attr.0.stream.handler_name.markup">Core Media Audio</property>
  <property name="meta.attr.0.stream.vendor_id.markup">[0][0][0][0]</property>
  <property name="meta.attr.major_brand.markup">M4A </property>
  <property name="meta.attr.minor_version.markup">0</property>
  <property name="meta.attr.compatible_brands.markup">M4A isommp42</property>
  <property name="meta.attr.creation_time.markup">2022-12-15T04:01:09.000000Z</property>
  <property name="meta.attr.title.markup">05d shape</property>
  <property name="meta.attr.voice-memo-uuid.markup">C714E4AA-DE1C-4896-8BD9-8A32FD32D0A7</property>
  <property name="meta.attr.encoder.markup">com.apple.VoiceMemos (Blues (null))</property>
  <property name="seekable">1</property>
  <property name="kdenlive:clipname"/>
  <property name="kdenlive:clip_type">1</property>
  <property name="kdenlive:folderid">-1</property>
  <property name="kdenlive:id">23</property>
  <property name="kdenlive:file_size">167258</property>
  <property name="kdenlive:file_hash">fd48af07b29289d635500719b2147e5c</property>
  <property name="xml">was here</property>
  <property name="set.test_audio">0</property>
  <property name="set.test_image">1</property>
 </chain>
 <chain id="producer79" out="00:00:05.939">
  <property name="length">179</property>
  <property name="eof">pause</property>
  <property name="resource">06a near.m4a</property>
  <property name="mlt_service">avformat-novalidate</property>
  <property name="audio_index">0</property>
  <property name="video_index">-1</property>
  <property name="meta.media.nb_streams">1</property>
  <property name="meta.media.0.stream.type">audio</property>
  <property name="meta.media.0.codec.sample_fmt">fltp</property>
  <property name="meta.media.0.codec.sample_rate">48000</property>
  <property name="meta.media.0.codec.channels">1</property>
  <property name="meta.media.0.codec.name">aac</property>
  <property name="meta.media.0.codec.long_name">AAC (Advanced Audio Coding)</property>
  <property name="meta.media.0.codec.bit_rate">65787</property>
  <property name="meta.attr.0.stream.creation_time.markup">2022-12-15T03:46:48.000000Z</property>
  <property name="meta.attr.0.stream.handler_name.markup">Core Media Audio</property>
  <property name="meta.attr.0.stream.vendor_id.markup">[0][0][0][0]</property>
  <property name="meta.attr.major_brand.markup">M4A </property>
  <property name="meta.attr.minor_version.markup">0</property>
  <property name="meta.attr.compatible_brands.markup">M4A isommp42</property>
  <property name="meta.attr.creation_time.markup">2022-12-15T03:46:48.000000Z</property>
  <property name="meta.attr.title.markup">06a near</property>
  <property name="meta.attr.voice-memo-uuid.markup">874FDF8F-DB03-4675-B183-8C4B5737F602</property>
  <property name="meta.attr.encoder.markup">com.apple.VoiceMemos (Blues (null))</property>
  <property name="seekable">1</property>
  <property name="kdenlive:clipname"/>
  <property name="kdenlive:clip_type">1</property>
  <property name="kdenlive:folderid">-1</property>
  <property name="kdenlive:id">29</property>
  <property name="kdenlive:file_size">53868</property>
  <property name="kdenlive:file_hash">63e40861b35d39d45d7631d7e2a070e3</property>
  <property name="xml">was here</property>
  <property name="set.test_audio">0</property>
  <property name="set.test_image">1</property>
 </chain>
 <chain id="producer80" out="00:00:23.223">
  <property name="length">697</property>
  <property name="eof">pause</property>
  <property name="resource">06b platform.m4a</property>
  <property name="mlt_service">avformat-novalidate</property>
  <property name="audio_index">0</property>
  <property name="video_index">-1</property>
  <property name="meta.media.nb_streams">1</property>
  <property name="meta.media.0.stream.type">audio</property>
  <property name="meta.media.0.codec.sample_fmt">fltp</property>
  <property name="meta.media.0.codec.sample_rate">48000</property>
  <property name="meta.media.0.codec.channels">1</property>
  <property name="meta.media.0.codec.name">aac</property>
  <property name="meta.media.0.codec.long_name">AAC (Advanced Audio Coding)</property>
  <property name="meta.media.0.codec.bit_rate">64824</property>
  <property name="meta.attr.0.stream.creation_time.markup">2022-12-15T03:48:53.000000Z</property>
  <property name="meta.attr.0.stream.handler_name.markup">Core Media Audio</property>
  <property name="meta.attr.0.stream.vendor_id.markup">[0][0][0][0]</property>
  <property name="meta.attr.major_brand.markup">M4A </property>
  <property name="meta.attr.minor_version.markup">0</property>
  <property name="meta.attr.compatible_brands.markup">M4A isommp42</property>
  <property name="meta.attr.creation_time.markup">2022-12-15T03:48:53.000000Z</property>
  <property name="meta.attr.title.markup">06b platform</property>
  <property name="meta.attr.voice-memo-uuid.markup">35D9E15F-73CC-47FE-89BE-36FED419BD1E</property>
  <property name="meta.attr.encoder.markup">com.apple.VoiceMemos (Blues (null))</property>
  <property name="seekable">1</property>
  <property name="kdenlive:clipname"/>
  <property name="kdenlive:clip_type">1</property>
  <property name="kdenlive:folderid">-1</property>
  <property name="kdenlive:id">30</property>
  <property name="kdenlive:file_size">206793</property>
  <property name="kdenlive:file_hash">d637cfecf5ecd84013d02b05bebee545</property>
  <property name="xml">was here</property>
  <property name="set.test_audio">0</property>
  <property name="set.test_image">1</property>
 </chain>
 <chain id="producer81" out="00:00:36.904">
  <property name="length">1107</property>
  <property name="eof">pause</property>
  <property name="resource">06c subscribe.m4a</property>
  <property name="mlt_service">avformat-novalidate</property>
  <property name="audio_index">0</property>
  <property name="video_index">-1</property>
  <property name="meta.media.nb_streams">1</property>
  <property name="meta.media.0.stream.type">audio</property>
  <property name="meta.media.0.codec.sample_fmt">fltp</property>
  <property name="meta.media.0.codec.sample_rate">48000</property>
  <property name="meta.media.0.codec.channels">1</property>
  <property name="meta.media.0.codec.name">aac</property>
  <property name="meta.media.0.codec.long_name">AAC (Advanced Audio Coding)</property>
  <property name="meta.media.0.codec.bit_rate">64984</property>
  <property name="meta.attr.0.stream.creation_time.markup">2022-12-15T04:14:02.000000Z</property>
  <property name="meta.attr.0.stream.handler_name.markup">Core Media Audio</property>
  <property name="meta.attr.0.stream.vendor_id.markup">[0][0][0][0]</property>
  <property name="meta.attr.major_brand.markup">M4A </property>
  <property name="meta.attr.minor_version.markup">0</property>
  <property name="meta.attr.compatible_brands.markup">M4A isommp42</property>
  <property name="meta.attr.creation_time.markup">2022-12-15T04:14:02.000000Z</property>
  <property name="meta.attr.title.markup">06d subscribe</property>
  <property name="meta.attr.voice-memo-uuid.markup">CF6EA5DB-EC7B-4138-9E85-902FB02DF8CB</property>
  <property name="meta.attr.encoder.markup">com.apple.VoiceMemos (Blues (null))</property>
  <property name="seekable">1</property>
  <property name="kdenlive:clipname"/>
  <property name="kdenlive:clip_type">1</property>
  <property name="kdenlive:folderid">-1</property>
  <property name="kdenlive:id">31</property>
  <property name="kdenlive:file_size">327568</property>
  <property name="kdenlive:file_hash">57dc803bc5fac608ff718081ee057b87</property>
  <property name="xml">was here</property>
  <property name="set.test_audio">0</property>
  <property name="set.test_image">1</property>
 </chain>
 <chain id="producer82" out="00:00:24.024">
  <property name="length">721</property>
  <property name="eof">pause</property>
  <property name="resource">06d sort.m4a</property>
  <property name="mlt_service">avformat-novalidate</property>
  <property name="audio_index">0</property>
  <property name="video_index">-1</property>
  <property name="meta.media.nb_streams">1</property>
  <property name="meta.media.0.stream.type">audio</property>
  <property name="meta.media.0.codec.sample_fmt">fltp</property>
  <property name="meta.media.0.codec.sample_rate">48000</property>
  <property name="meta.media.0.codec.channels">1</property>
  <property name="meta.media.0.codec.name">aac</property>
  <property name="meta.media.0.codec.long_name">AAC (Advanced Audio Coding)</property>
  <property name="meta.media.0.codec.bit_rate">64770</property>
  <property name="meta.attr.0.stream.creation_time.markup">2022-12-15T03:49:48.000000Z</property>
  <property name="meta.attr.0.stream.handler_name.markup">Core Media Audio</property>
  <property name="meta.attr.0.stream.vendor_id.markup">[0][0][0][0]</property>
  <property name="meta.attr.major_brand.markup">M4A </property>
  <property name="meta.attr.minor_version.markup">0</property>
  <property name="meta.attr.compatible_brands.markup">M4A isommp42</property>
  <property name="meta.attr.creation_time.markup">2022-12-15T03:49:48.000000Z</property>
  <property name="meta.attr.title.markup">06c sort</property>
  <property name="meta.attr.voice-memo-uuid.markup">C084D194-1236-4B53-9B63-92174D9D62E0</property>
  <property name="meta.attr.encoder.markup">com.apple.VoiceMemos (Blues (null))</property>
  <property name="seekable">1</property>
  <property name="kdenlive:clipname"/>
  <property name="kdenlive:clip_type">1</property>
  <property name="kdenlive:folderid">-1</property>
  <property name="kdenlive:id">32</property>
  <property name="kdenlive:file_size">207966</property>
  <property name="kdenlive:file_hash">49955dca600555eb8885c154f6a1dfb5</property>
  <property name="xml">was here</property>
  <property name="set.test_audio">0</property>
  <property name="set.test_image">1</property>
 </chain>
 <chain id="producer83" out="00:00:30.230">
  <property name="length">907</property>
  <property name="eof">pause</property>
  <property name="resource">06e filter.m4a</property>
  <property name="mlt_service">avformat-novalidate</property>
  <property name="audio_index">0</property>
  <property name="video_index">-1</property>
  <property name="meta.media.nb_streams">1</property>
  <property name="meta.media.0.stream.type">audio</property>
  <property name="meta.media.0.codec.sample_fmt">fltp</property>
  <property name="meta.media.0.codec.sample_rate">48000</property>
  <property name="meta.media.0.codec.channels">1</property>
  <property name="meta.media.0.codec.name">aac</property>
  <property name="meta.media.0.codec.long_name">AAC (Advanced Audio Coding)</property>
  <property name="meta.media.0.codec.bit_rate">65279</property>
  <property name="meta.attr.0.stream.creation_time.markup">2022-12-15T04:16:42.000000Z</property>
  <property name="meta.attr.0.stream.handler_name.markup">Core Media Audio</property>
  <property name="meta.attr.0.stream.vendor_id.markup">[0][0][0][0]</property>
  <property name="meta.attr.major_brand.markup">M4A </property>
  <property name="meta.attr.minor_version.markup">0</property>
  <property name="meta.attr.compatible_brands.markup">M4A isommp42</property>
  <property name="meta.attr.creation_time.markup">2022-12-15T04:16:42.000000Z</property>
  <property name="meta.attr.title.markup">06e filter</property>
  <property name="meta.attr.voice-memo-uuid.markup">1D581806-29A4-46ED-9527-F0652D3324D5</property>
  <property name="meta.attr.encoder.markup">com.apple.VoiceMemos (Blues (null))</property>
  <property name="seekable">1</property>
  <property name="kdenlive:clipname"/>
  <property name="kdenlive:clip_type">1</property>
  <property name="kdenlive:folderid">-1</property>
  <property name="kdenlive:id">33</property>
  <property name="kdenlive:file_size">269904</property>
  <property name="kdenlive:file_hash">d9e2ab791a6dc6c6c2b9cfc235264404</property>
  <property name="xml">was here</property>
  <property name="set.test_audio">0</property>
  <property name="set.test_image">1</property>
 </chain>
 <chain id="producer84" out="00:00:38.071">
  <property name="length">1142</property>
  <property name="eof">pause</property>
  <property name="resource">06f contribute.m4a</property>
  <property name="mlt_service">avformat-novalidate</property>
  <property name="audio_index">0</property>
  <property name="video_index">-1</property>
  <property name="meta.media.nb_streams">1</property>
  <property name="meta.media.0.stream.type">audio</property>
  <property name="meta.media.0.codec.sample_fmt">fltp</property>
  <property name="meta.media.0.codec.sample_rate">48000</property>
  <property name="meta.media.0.codec.channels">1</property>
  <property name="meta.media.0.codec.name">aac</property>
  <property name="meta.media.0.codec.long_name">AAC (Advanced Audio Coding)</property>
  <property name="meta.media.0.codec.bit_rate">64967</property>
  <property name="meta.attr.0.stream.creation_time.markup">2022-12-15T04:38:55.000000Z</property>
  <property name="meta.attr.0.stream.handler_name.markup">Core Media Audio</property>
  <property name="meta.attr.0.stream.vendor_id.markup">[0][0][0][0]</property>
  <property name="meta.attr.major_brand.markup">M4A </property>
  <property name="meta.attr.minor_version.markup">0</property>
  <property name="meta.attr.compatible_brands.markup">M4A isommp42</property>
  <property name="meta.attr.creation_time.markup">2022-12-15T04:38:55.000000Z</property>
  <property name="meta.attr.title.markup">06f contribute</property>
  <property name="meta.attr.voice-memo-uuid.markup">3CD2C5C4-EB01-42C2-B35B-8F785CD00886</property>
  <property name="meta.attr.encoder.markup">com.apple.VoiceMemos (Blues (null))</property>
  <property name="seekable">1</property>
  <property name="kdenlive:clipname"/>
  <property name="kdenlive:clip_type">1</property>
  <property name="kdenlive:folderid">-1</property>
  <property name="kdenlive:id">34</property>
  <property name="kdenlive:file_size">337517</property>
  <property name="kdenlive:file_hash">43bb63b039d14bfc8e5fee9873f582cd</property>
  <property name="xml">was here</property>
  <property name="set.test_audio">0</property>
  <property name="set.test_image">1</property>
 </chain>
 <chain id="producer85" out="00:00:24.558">
  <property name="length">737</property>
  <property name="eof">pause</property>
  <property name="resource">06g curate.m4a</property>
  <property name="mlt_service">avformat-novalidate</property>
  <property name="audio_index">0</property>
  <property name="video_index">-1</property>
  <property name="meta.media.nb_streams">1</property>
  <property name="meta.media.0.stream.type">audio</property>
  <property name="meta.media.0.codec.sample_fmt">fltp</property>
  <property name="meta.media.0.codec.sample_rate">48000</property>
  <property name="meta.media.0.codec.channels">1</property>
  <property name="meta.media.0.codec.name">aac</property>
  <property name="meta.media.0.codec.long_name">AAC (Advanced Audio Coding)</property>
  <property name="meta.media.0.codec.bit_rate">65150</property>
  <property name="meta.attr.0.stream.creation_time.markup">2022-12-15T04:41:10.000000Z</property>
  <property name="meta.attr.0.stream.handler_name.markup">Core Media Audio</property>
  <property name="meta.attr.0.stream.vendor_id.markup">[0][0][0][0]</property>
  <property name="meta.attr.major_brand.markup">M4A </property>
  <property name="meta.attr.minor_version.markup">0</property>
  <property name="meta.attr.compatible_brands.markup">M4A isommp42</property>
  <property name="meta.attr.creation_time.markup">2022-12-15T04:41:10.000000Z</property>
  <property name="meta.attr.title.markup">06g curate</property>
  <property name="meta.attr.voice-memo-uuid.markup">BCBFC26A-4DDB-4801-8286-527FA20F6A5D</property>
  <property name="meta.attr.encoder.markup">com.apple.VoiceMemos (Blues (null))</property>
  <property name="seekable">1</property>
  <property name="kdenlive:clipname"/>
  <property name="kdenlive:clip_type">1</property>
  <property name="kdenlive:folderid">-1</property>
  <property name="kdenlive:id">35</property>
  <property name="kdenlive:file_size">219571</property>
  <property name="kdenlive:file_hash">e133f0766157578a48326a3288f0f939</property>
  <property name="xml">was here</property>
  <property name="set.test_audio">0</property>
  <property name="set.test_image">1</property>
 </chain>
 <chain id="producer86" out="00:00:45.679">
  <property name="length">1370</property>
  <property name="eof">pause</property>
  <property name="resource">06h nope.m4a</property>
  <property name="mlt_service">avformat-novalidate</property>
  <property name="audio_index">0</property>
  <property name="video_index">-1</property>
  <property name="meta.media.nb_streams">1</property>
  <property name="meta.media.0.stream.type">audio</property>
  <property name="meta.media.0.codec.sample_fmt">fltp</property>
  <property name="meta.media.0.codec.sample_rate">48000</property>
  <property name="meta.media.0.codec.channels">1</property>
  <property name="meta.media.0.codec.name">aac</property>
  <property name="meta.media.0.codec.long_name">AAC (Advanced Audio Coding)</property>
  <property name="meta.media.0.codec.bit_rate">64998</property>
  <property name="meta.attr.0.stream.creation_time.markup">2022-12-15T04:48:43.000000Z</property>
  <property name="meta.attr.0.stream.handler_name.markup">Core Media Audio</property>
  <property name="meta.attr.0.stream.vendor_id.markup">[0][0][0][0]</property>
  <property name="meta.attr.major_brand.markup">M4A </property>
  <property name="meta.attr.minor_version.markup">0</property>
  <property name="meta.attr.compatible_brands.markup">M4A isommp42</property>
  <property name="meta.attr.creation_time.markup">2022-12-15T04:48:43.000000Z</property>
  <property name="meta.attr.title.markup">06h nope</property>
  <property name="meta.attr.voice-memo-uuid.markup">6505D5B8-054B-4065-9131-28C3C120385B</property>
  <property name="meta.attr.encoder.markup">com.apple.VoiceMemos (Blues (null))</property>
  <property name="seekable">1</property>
  <property name="kdenlive:clipname"/>
  <property name="kdenlive:clip_type">1</property>
  <property name="kdenlive:folderid">-1</property>
  <property name="kdenlive:id">36</property>
  <property name="kdenlive:file_size">394410</property>
  <property name="kdenlive:file_hash">18b43bd5d43b98449dd4546dd844e99c</property>
  <property name="xml">was here</property>
  <property name="set.test_audio">0</property>
  <property name="set.test_image">1</property>
 </chain>
 <chain id="producer87" out="00:00:30.831">
  <property name="length">925</property>
  <property name="eof">pause</property>
  <property name="resource">06i masto.m4a</property>
  <property name="mlt_service">avformat-novalidate</property>
  <property name="audio_index">0</property>
  <property name="video_index">-1</property>
  <property name="meta.media.nb_streams">1</property>
  <property name="meta.media.0.stream.type">audio</property>
  <property name="meta.media.0.codec.sample_fmt">fltp</property>
  <property name="meta.media.0.codec.sample_rate">48000</property>
  <property name="meta.media.0.codec.channels">1</property>
  <property name="meta.media.0.codec.name">aac</property>
  <property name="meta.media.0.codec.long_name">AAC (Advanced Audio Coding)</property>
  <property name="meta.media.0.codec.bit_rate">65079</property>
  <property name="meta.attr.0.stream.creation_time.markup">2022-12-15T04:53:24.000000Z</property>
  <property name="meta.attr.0.stream.handler_name.markup">Core Media Audio</property>
  <property name="meta.attr.0.stream.vendor_id.markup">[0][0][0][0]</property>
  <property name="meta.attr.major_brand.markup">M4A </property>
  <property name="meta.attr.minor_version.markup">0</property>
  <property name="meta.attr.compatible_brands.markup">M4A isommp42</property>
  <property name="meta.attr.creation_time.markup">2022-12-15T04:53:24.000000Z</property>
  <property name="meta.attr.title.markup">06i masto</property>
  <property name="meta.attr.voice-memo-uuid.markup">7ED64CA9-808C-4CDB-821B-6F44B0AC8035</property>
  <property name="meta.attr.encoder.markup">com.apple.VoiceMemos (Blues (null))</property>
  <property name="seekable">1</property>
  <property name="kdenlive:clipname"/>
  <property name="kdenlive:clip_type">1</property>
  <property name="kdenlive:folderid">-1</property>
  <property name="kdenlive:id">37</property>
  <property name="kdenlive:file_size">274525</property>
  <property name="kdenlive:file_hash">0bc2d2a5066b4f5479863db680a92da6</property>
  <property name="xml">was here</property>
  <property name="set.test_audio">0</property>
  <property name="set.test_image">1</property>
 </chain>
 <chain id="producer88" out="00:00:07.841">
  <property name="length">236</property>
  <property name="eof">pause</property>
  <property name="resource">06j not.m4a</property>
  <property name="mlt_service">avformat-novalidate</property>
  <property name="audio_index">0</property>
  <property name="video_index">-1</property>
  <property name="meta.media.nb_streams">1</property>
  <property name="meta.media.0.stream.type">audio</property>
  <property name="meta.media.0.codec.sample_fmt">fltp</property>
  <property name="meta.media.0.codec.sample_rate">48000</property>
  <property name="meta.media.0.codec.channels">1</property>
  <property name="meta.media.0.codec.name">aac</property>
  <property name="meta.media.0.codec.long_name">AAC (Advanced Audio Coding)</property>
  <property name="meta.media.0.codec.bit_rate">65826</property>
  <property name="meta.attr.0.stream.creation_time.markup">2022-12-15T05:03:58.000000Z</property>
  <property name="meta.attr.0.stream.handler_name.markup">Core Media Audio</property>
  <property name="meta.attr.0.stream.vendor_id.markup">[0][0][0][0]</property>
  <property name="meta.attr.major_brand.markup">M4A </property>
  <property name="meta.attr.minor_version.markup">0</property>
  <property name="meta.attr.compatible_brands.markup">M4A isommp42</property>
  <property name="meta.attr.creation_time.markup">2022-12-15T05:03:58.000000Z</property>
  <property name="meta.attr.title.markup">06j not</property>
  <property name="meta.attr.voice-memo-uuid.markup">DC1AF005-834B-4D78-8AA4-792704B0161A</property>
  <property name="meta.attr.encoder.markup">com.apple.VoiceMemos (Blues (null))</property>
  <property name="seekable">1</property>
  <property name="kdenlive:clipname"/>
  <property name="kdenlive:clip_type">1</property>
  <property name="kdenlive:folderid">-1</property>
  <property name="kdenlive:id">38</property>
  <property name="kdenlive:file_size">70588</property>
  <property name="kdenlive:file_hash">f69eda00f1eb6cdcbe8927c2aa40a94d</property>
  <property name="xml">was here</property>
  <property name="set.test_audio">0</property>
  <property name="set.test_image">1</property>
 </chain>
 <chain id="producer89" out="00:00:12.946">
  <property name="length">389</property>
  <property name="eof">pause</property>
  <property name="resource">06k bad.m4a</property>
  <property name="mlt_service">avformat-novalidate</property>
  <property name="audio_index">0</property>
  <property name="video_index">-1</property>
  <property name="meta.media.nb_streams">1</property>
  <property name="meta.media.0.stream.type">audio</property>
  <property name="meta.media.0.codec.sample_fmt">fltp</property>
  <property name="meta.media.0.codec.sample_rate">48000</property>
  <property name="meta.media.0.codec.channels">1</property>
  <property name="meta.media.0.codec.name">aac</property>
  <property name="meta.media.0.codec.long_name">AAC (Advanced Audio Coding)</property>
  <property name="meta.media.0.codec.bit_rate">64782</property>
  <property name="meta.attr.0.stream.creation_time.markup">2022-12-15T05:05:44.000000Z</property>
  <property name="meta.attr.0.stream.handler_name.markup">Core Media Audio</property>
  <property name="meta.attr.0.stream.vendor_id.markup">[0][0][0][0]</property>
  <property name="meta.attr.major_brand.markup">M4A </property>
  <property name="meta.attr.minor_version.markup">0</property>
  <property name="meta.attr.compatible_brands.markup">M4A isommp42</property>
  <property name="meta.attr.creation_time.markup">2022-12-15T05:05:44.000000Z</property>
  <property name="meta.attr.title.markup">06k bad</property>
  <property name="meta.attr.voice-memo-uuid.markup">F9D4E3CD-5395-4731-80D9-1BB348D1211D</property>
  <property name="meta.attr.encoder.markup">com.apple.VoiceMemos (Blues (null))</property>
  <property name="seekable">1</property>
  <property name="kdenlive:clipname"/>
  <property name="kdenlive:clip_type">1</property>
  <property name="kdenlive:folderid">-1</property>
  <property name="kdenlive:id">39</property>
  <property name="kdenlive:file_size">113208</property>
  <property name="kdenlive:file_hash">f1769efd9fe91290720a2a6632123648</property>
  <property name="xml">was here</property>
  <property name="set.test_audio">0</property>
  <property name="set.test_image">1</property>
 </chain>
 <chain id="producer90" out="00:00:26.460">
  <property name="length">794</property>
  <property name="eof">pause</property>
  <property name="resource">07a summary.m4a</property>
  <property name="mlt_service">avformat-novalidate</property>
  <property name="audio_index">0</property>
  <property name="video_index">-1</property>
  <property name="meta.media.nb_streams">1</property>
  <property name="meta.media.0.stream.type">audio</property>
  <property name="meta.media.0.codec.sample_fmt">fltp</property>
  <property name="meta.media.0.codec.sample_rate">48000</property>
  <property name="meta.media.0.codec.channels">1</property>
  <property name="meta.media.0.codec.name">aac</property>
  <property name="meta.media.0.codec.long_name">AAC (Advanced Audio Coding)</property>
  <property name="meta.media.0.codec.bit_rate">64997</property>
  <property name="meta.attr.0.stream.creation_time.markup">2022-12-15T05:17:15.000000Z</property>
  <property name="meta.attr.0.stream.handler_name.markup">Core Media Audio</property>
  <property name="meta.attr.0.stream.vendor_id.markup">[0][0][0][0]</property>
  <property name="meta.attr.major_brand.markup">M4A </property>
  <property name="meta.attr.minor_version.markup">0</property>
  <property name="meta.attr.compatible_brands.markup">M4A isommp42</property>
  <property name="meta.attr.creation_time.markup">2022-12-15T05:17:15.000000Z</property>
  <property name="meta.attr.title.markup">07a summary</property>
  <property name="meta.attr.voice-memo-uuid.markup">9748B85F-4D90-4E1E-9E46-4623C2E8F2AF</property>
  <property name="meta.attr.encoder.markup">com.apple.VoiceMemos (Blues (null))</property>
  <property name="seekable">1</property>
  <property name="kdenlive:clipname"/>
  <property name="kdenlive:clip_type">1</property>
  <property name="kdenlive:folderid">-1</property>
  <property name="kdenlive:id">40</property>
  <property name="kdenlive:file_size">235804</property>
  <property name="kdenlive:file_hash">93cd371c18d597ac29885745c8390fd3</property>
  <property name="xml">was here</property>
  <property name="set.test_audio">0</property>
  <property name="set.test_image">1</property>
 </chain>
 <chain id="producer91" out="00:00:19.486">
  <property name="length">585</property>
  <property name="eof">pause</property>
  <property name="resource">07b archive.m4a</property>
  <property name="mlt_service">avformat-novalidate</property>
  <property name="audio_index">0</property>
  <property name="video_index">-1</property>
  <property name="meta.media.nb_streams">1</property>
  <property name="meta.media.0.stream.type">audio</property>
  <property name="meta.media.0.codec.sample_fmt">fltp</property>
  <property name="meta.media.0.codec.sample_rate">48000</property>
  <property name="meta.media.0.codec.channels">1</property>
  <property name="meta.media.0.codec.name">aac</property>
  <property name="meta.media.0.codec.long_name">AAC (Advanced Audio Coding)</property>
  <property name="meta.media.0.codec.bit_rate">65537</property>
  <property name="meta.attr.0.stream.creation_time.markup">2022-12-15T05:27:12.000000Z</property>
  <property name="meta.attr.0.stream.handler_name.markup">Core Media Audio</property>
  <property name="meta.attr.0.stream.vendor_id.markup">[0][0][0][0]</property>
  <property name="meta.attr.major_brand.markup">M4A </property>
  <property name="meta.attr.minor_version.markup">0</property>
  <property name="meta.attr.compatible_brands.markup">M4A isommp42</property>
  <property name="meta.attr.creation_time.markup">2022-12-15T05:27:12.000000Z</property>
  <property name="meta.attr.title.markup">07b archive</property>
  <property name="meta.attr.voice-memo-uuid.markup">D52A94BB-5499-43ED-90C0-D57C94EFB3C8</property>
  <property name="meta.attr.encoder.markup">com.apple.VoiceMemos (Blues (null))</property>
  <property name="seekable">1</property>
  <property name="kdenlive:clipname"/>
  <property name="kdenlive:clip_type">1</property>
  <property name="kdenlive:folderid">-1</property>
  <property name="kdenlive:id">41</property>
  <property name="kdenlive:file_size">175771</property>
  <property name="kdenlive:file_hash">3282507f967c125afd931f8de60a6706</property>
  <property name="xml">was here</property>
  <property name="set.test_audio">0</property>
  <property name="set.test_image">1</property>
 </chain>
 <chain id="producer92" out="00:00:15.616">
  <property name="length">469</property>
  <property name="eof">pause</property>
  <property name="resource">07c more.m4a</property>
  <property name="mlt_service">avformat-novalidate</property>
  <property name="audio_index">0</property>
  <property name="video_index">-1</property>
  <property name="meta.media.nb_streams">1</property>
  <property name="meta.media.0.stream.type">audio</property>
  <property name="meta.media.0.codec.sample_fmt">fltp</property>
  <property name="meta.media.0.codec.sample_rate">48000</property>
  <property name="meta.media.0.codec.channels">1</property>
  <property name="meta.media.0.codec.name">aac</property>
  <property name="meta.media.0.codec.long_name">AAC (Advanced Audio Coding)</property>
  <property name="meta.media.0.codec.bit_rate">64935</property>
  <property name="meta.attr.0.stream.creation_time.markup">2022-12-15T05:28:35.000000Z</property>
  <property name="meta.attr.0.stream.handler_name.markup">Core Media Audio</property>
  <property name="meta.attr.0.stream.vendor_id.markup">[0][0][0][0]</property>
  <property name="meta.attr.major_brand.markup">M4A </property>
  <property name="meta.attr.minor_version.markup">0</property>
  <property name="meta.attr.compatible_brands.markup">M4A isommp42</property>
  <property name="meta.attr.creation_time.markup">2022-12-15T05:28:35.000000Z</property>
  <property name="meta.attr.title.markup">07c more</property>
  <property name="meta.attr.voice-memo-uuid.markup">2230973A-37B5-429D-8394-84BC88F946D1</property>
  <property name="meta.attr.encoder.markup">com.apple.VoiceMemos (Blues (null))</property>
  <property name="seekable">1</property>
  <property name="kdenlive:clipname"/>
  <property name="kdenlive:clip_type">1</property>
  <property name="kdenlive:folderid">-1</property>
  <property name="kdenlive:id">42</property>
  <property name="kdenlive:file_size">136310</property>
  <property name="kdenlive:file_hash">20241e3c21168fa6983ddde5528f8aee</property>
  <property name="xml">was here</property>
  <property name="set.test_audio">0</property>
  <property name="set.test_image">1</property>
 </chain>
 <chain id="producer93" out="00:00:16.383">
  <property name="length">492</property>
  <property name="eof">pause</property>
  <property name="resource">07d attention.m4a</property>
  <property name="mlt_service">avformat-novalidate</property>
  <property name="audio_index">0</property>
  <property name="video_index">-1</property>
  <property name="meta.media.nb_streams">1</property>
  <property name="meta.media.0.stream.type">audio</property>
  <property name="meta.media.0.codec.sample_fmt">fltp</property>
  <property name="meta.media.0.codec.sample_rate">48000</property>
  <property name="meta.media.0.codec.channels">1</property>
  <property name="meta.media.0.codec.name">aac</property>
  <property name="meta.media.0.codec.long_name">AAC (Advanced Audio Coding)</property>
  <property name="meta.media.0.codec.bit_rate">65780</property>
  <property name="meta.attr.0.stream.creation_time.markup">2022-12-15T05:29:53.000000Z</property>
  <property name="meta.attr.0.stream.handler_name.markup">Core Media Audio</property>
  <property name="meta.attr.0.stream.vendor_id.markup">[0][0][0][0]</property>
  <property name="meta.attr.major_brand.markup">M4A </property>
  <property name="meta.attr.minor_version.markup">0</property>
  <property name="meta.attr.compatible_brands.markup">M4A isommp42</property>
  <property name="meta.attr.creation_time.markup">2022-12-15T05:29:53.000000Z</property>
  <property name="meta.attr.title.markup">07d attention</property>
  <property name="meta.attr.voice-memo-uuid.markup">351E5F21-0DC8-4851-B585-2A97FFD05F0C</property>
  <property name="meta.attr.encoder.markup">com.apple.VoiceMemos (Blues (null))</property>
  <property name="seekable">1</property>
  <property name="kdenlive:clipname"/>
  <property name="kdenlive:clip_type">1</property>
  <property name="kdenlive:folderid">-1</property>
  <property name="kdenlive:id">43</property>
  <property name="kdenlive:file_size">148932</property>
  <property name="kdenlive:file_hash">e15826524b461637c86bf55f8022d12b</property>
  <property name="xml">was here</property>
  <property name="set.test_audio">0</property>
  <property name="set.test_image">1</property>
 </chain>
 <chain id="producer94" out="00:00:14.414">
  <property name="length">433</property>
  <property name="eof">pause</property>
  <property name="resource">07e agitate.m4a</property>
  <property name="mlt_service">avformat-novalidate</property>
  <property name="audio_index">0</property>
  <property name="video_index">-1</property>
  <property name="meta.media.nb_streams">1</property>
  <property name="meta.media.0.stream.type">audio</property>
  <property name="meta.media.0.codec.sample_fmt">fltp</property>
  <property name="meta.media.0.codec.sample_rate">48000</property>
  <property name="meta.media.0.codec.channels">1</property>
  <property name="meta.media.0.codec.name">aac</property>
  <property name="meta.media.0.codec.long_name">AAC (Advanced Audio Coding)</property>
  <property name="meta.media.0.codec.bit_rate">65751</property>
  <property name="meta.attr.0.stream.creation_time.markup">2022-12-15T05:37:53.000000Z</property>
  <property name="meta.attr.0.stream.handler_name.markup">Core Media Audio</property>
  <property name="meta.attr.0.stream.vendor_id.markup">[0][0][0][0]</property>
  <property name="meta.attr.major_brand.markup">M4A </property>
  <property name="meta.attr.minor_version.markup">0</property>
  <property name="meta.attr.compatible_brands.markup">M4A isommp42</property>
  <property name="meta.attr.creation_time.markup">2022-12-15T05:37:53.000000Z</property>
  <property name="meta.attr.title.markup">07e agitate</property>
  <property name="meta.attr.voice-memo-uuid.markup">4612E3BC-CD2A-4CEC-9051-C5AD4FE4FDAA</property>
  <property name="meta.attr.encoder.markup">com.apple.VoiceMemos (Blues (null))</property>
  <property name="seekable">1</property>
  <property name="kdenlive:clipname"/>
  <property name="kdenlive:clip_type">1</property>
  <property name="kdenlive:folderid">-1</property>
  <property name="kdenlive:id">44</property>
  <property name="kdenlive:file_size">131269</property>
  <property name="kdenlive:file_hash">c699ad2275d4ba19264e0420b91d4a85</property>
  <property name="xml">was here</property>
  <property name="set.test_audio">0</property>
  <property name="set.test_image">1</property>
 </chain>
 <chain id="producer95" out="00:00:40.073">
  <property name="length">1202</property>
  <property name="eof">pause</property>
  <property name="resource">07f climb.m4a</property>
  <property name="mlt_service">avformat-novalidate</property>
  <property name="audio_index">0</property>
  <property name="video_index">-1</property>
  <property name="meta.media.nb_streams">1</property>
  <property name="meta.media.0.stream.type">audio</property>
  <property name="meta.media.0.codec.sample_fmt">fltp</property>
  <property name="meta.media.0.codec.sample_rate">48000</property>
  <property name="meta.media.0.codec.channels">1</property>
  <property name="meta.media.0.codec.name">aac</property>
  <property name="meta.media.0.codec.long_name">AAC (Advanced Audio Coding)</property>
  <property name="meta.media.0.codec.bit_rate">64731</property>
  <property name="meta.attr.0.stream.creation_time.markup">2022-12-15T05:38:53.000000Z</property>
  <property name="meta.attr.0.stream.handler_name.markup">Core Media Audio</property>
  <property name="meta.attr.0.stream.vendor_id.markup">[0][0][0][0]</property>
  <property name="meta.attr.major_brand.markup">M4A </property>
  <property name="meta.attr.minor_version.markup">0</property>
  <property name="meta.attr.compatible_brands.markup">M4A isommp42</property>
  <property name="meta.attr.creation_time.markup">2022-12-15T05:38:53.000000Z</property>
  <property name="meta.attr.title.markup">07f climb</property>
  <property name="meta.attr.voice-memo-uuid.markup">D9CBF2EF-E2BE-453D-8A8A-21258C965864</property>
  <property name="meta.attr.encoder.markup">com.apple.VoiceMemos (Blues (null))</property>
  <property name="seekable">1</property>
  <property name="kdenlive:clipname"/>
  <property name="kdenlive:clip_type">1</property>
  <property name="kdenlive:folderid">-1</property>
  <property name="kdenlive:id">45</property>
  <property name="kdenlive:file_size">353917</property>
  <property name="kdenlive:file_hash">1de1a8d9cb557ffafa2e7b9985f02d50</property>
  <property name="xml">was here</property>
  <property name="set.test_audio">0</property>
  <property name="set.test_image">1</property>
 </chain>
 <chain id="producer96" out="00:00:44.211">
  <property name="length">1326</property>
  <property name="eof">pause</property>
  <property name="resource">07g ignore.m4a</property>
  <property name="mlt_service">avformat-novalidate</property>
  <property name="audio_index">0</property>
  <property name="video_index">-1</property>
  <property name="meta.media.nb_streams">1</property>
  <property name="meta.media.0.stream.type">audio</property>
  <property name="meta.media.0.codec.sample_fmt">fltp</property>
  <property name="meta.media.0.codec.sample_rate">48000</property>
  <property name="meta.media.0.codec.channels">1</property>
  <property name="meta.media.0.codec.name">aac</property>
  <property name="meta.media.0.codec.long_name">AAC (Advanced Audio Coding)</property>
  <property name="meta.media.0.codec.bit_rate">64726</property>
  <property name="meta.attr.0.stream.creation_time.markup">2022-12-15T05:41:02.000000Z</property>
  <property name="meta.attr.0.stream.handler_name.markup">Core Media Audio</property>
  <property name="meta.attr.0.stream.vendor_id.markup">[0][0][0][0]</property>
  <property name="meta.attr.major_brand.markup">M4A </property>
  <property name="meta.attr.minor_version.markup">0</property>
  <property name="meta.attr.compatible_brands.markup">M4A isommp42</property>
  <property name="meta.attr.creation_time.markup">2022-12-15T05:41:02.000000Z</property>
  <property name="meta.attr.title.markup">07g ignore</property>
  <property name="meta.attr.voice-memo-uuid.markup">8B740E15-255F-4EB8-9543-4E24AD103FAD</property>
  <property name="meta.attr.encoder.markup">com.apple.VoiceMemos (Blues (null))</property>
  <property name="seekable">1</property>
  <property name="kdenlive:clipname"/>
  <property name="kdenlive:clip_type">1</property>
  <property name="kdenlive:folderid">-1</property>
  <property name="kdenlive:id">46</property>
  <property name="kdenlive:file_size">390123</property>
  <property name="kdenlive:file_hash">045a1267d095187d9b7952ab5200d530</property>
  <property name="xml">was here</property>
  <property name="set.test_audio">0</property>
  <property name="set.test_image">1</property>
 </chain>
 <chain id="producer97" out="00:00:19.820">
  <property name="length">595</property>
  <property name="eof">pause</property>
  <property name="resource">07h compete.m4a</property>
  <property name="mlt_service">avformat-novalidate</property>
  <property name="audio_index">0</property>
  <property name="video_index">-1</property>
  <property name="meta.media.nb_streams">1</property>
  <property name="meta.media.0.stream.type">audio</property>
  <property name="meta.media.0.codec.sample_fmt">fltp</property>
  <property name="meta.media.0.codec.sample_rate">48000</property>
  <property name="meta.media.0.codec.channels">1</property>
  <property name="meta.media.0.codec.name">aac</property>
  <property name="meta.media.0.codec.long_name">AAC (Advanced Audio Coding)</property>
  <property name="meta.media.0.codec.bit_rate">64672</property>
  <property name="meta.attr.0.stream.creation_time.markup">2022-12-15T05:49:08.000000Z</property>
  <property name="meta.attr.0.stream.handler_name.markup">Core Media Audio</property>
  <property name="meta.attr.0.stream.vendor_id.markup">[0][0][0][0]</property>
  <property name="meta.attr.major_brand.markup">M4A </property>
  <property name="meta.attr.minor_version.markup">0</property>
  <property name="meta.attr.compatible_brands.markup">M4A isommp42</property>
  <property name="meta.attr.creation_time.markup">2022-12-15T05:49:08.000000Z</property>
  <property name="meta.attr.title.markup">07h compete</property>
  <property name="meta.attr.voice-memo-uuid.markup">5AE1E82D-A381-4DE7-B461-2AE3E3F41955</property>
  <property name="meta.attr.encoder.markup">com.apple.VoiceMemos (Blues (null))</property>
  <property name="seekable">1</property>
  <property name="kdenlive:clipname"/>
  <property name="kdenlive:clip_type">1</property>
  <property name="kdenlive:folderid">-1</property>
  <property name="kdenlive:id">47</property>
  <property name="kdenlive:file_size">176421</property>
  <property name="kdenlive:file_hash">aa2866d9ec6c915cef8ffcec0b5d35d1</property>
  <property name="xml">was here</property>
  <property name="set.test_audio">0</property>
  <property name="set.test_image">1</property>
 </chain>
 <chain id="producer98" out="00:00:49.449">
  <property name="length">1483</property>
  <property name="eof">pause</property>
  <property name="resource">07i AI.m4a</property>
  <property name="mlt_service">avformat-novalidate</property>
  <property name="audio_index">0</property>
  <property name="video_index">-1</property>
  <property name="meta.media.nb_streams">1</property>
  <property name="meta.media.0.stream.type">audio</property>
  <property name="meta.media.0.codec.sample_fmt">fltp</property>
  <property name="meta.media.0.codec.sample_rate">48000</property>
  <property name="meta.media.0.codec.channels">1</property>
  <property name="meta.media.0.codec.name">aac</property>
  <property name="meta.media.0.codec.long_name">AAC (Advanced Audio Coding)</property>
  <property name="meta.media.0.codec.bit_rate">64866</property>
  <property name="meta.attr.0.stream.creation_time.markup">2022-12-15T05:52:53.000000Z</property>
  <property name="meta.attr.0.stream.handler_name.markup">Core Media Audio</property>
  <property name="meta.attr.0.stream.vendor_id.markup">[0][0][0][0]</property>
  <property name="meta.attr.major_brand.markup">M4A </property>
  <property name="meta.attr.minor_version.markup">0</property>
  <property name="meta.attr.compatible_brands.markup">M4A isommp42</property>
  <property name="meta.attr.creation_time.markup">2022-12-15T05:52:53.000000Z</property>
  <property name="meta.attr.title.markup">07i AI</property>
  <property name="meta.attr.voice-memo-uuid.markup">734B0568-A71A-4410-B60A-3A54D929FD98</property>
  <property name="meta.attr.encoder.markup">com.apple.VoiceMemos (Blues (null))</property>
  <property name="seekable">1</property>
  <property name="kdenlive:clipname"/>
  <property name="kdenlive:clip_type">1</property>
  <property name="kdenlive:folderid">-1</property>
  <property name="kdenlive:id">48</property>
  <property name="kdenlive:file_size">426193</property>
  <property name="kdenlive:file_hash">0f197c188ee2cd3c5ef15896aa946fc4</property>
  <property name="xml">was here</property>
  <property name="set.test_audio">0</property>
  <property name="set.test_image">1</property>
 </chain>
 <chain id="producer99" out="00:00:09.142">
  <property name="length">275</property>
  <property name="eof">pause</property>
  <property name="resource">07j more.m4a</property>
  <property name="mlt_service">avformat-novalidate</property>
  <property name="audio_index">0</property>
  <property name="video_index">-1</property>
  <property name="meta.media.nb_streams">1</property>
  <property name="meta.media.0.stream.type">audio</property>
  <property name="meta.media.0.codec.sample_fmt">fltp</property>
  <property name="meta.media.0.codec.sample_rate">48000</property>
  <property name="meta.media.0.codec.channels">1</property>
  <property name="meta.media.0.codec.name">aac</property>
  <property name="meta.media.0.codec.long_name">AAC (Advanced Audio Coding)</property>
  <property name="meta.media.0.codec.bit_rate">64452</property>
  <property name="meta.attr.0.stream.creation_time.markup">2022-12-15T05:54:44.000000Z</property>
  <property name="meta.attr.0.stream.handler_name.markup">Core Media Audio</property>
  <property name="meta.attr.0.stream.vendor_id.markup">[0][0][0][0]</property>
  <property name="meta.attr.major_brand.markup">M4A </property>
  <property name="meta.attr.minor_version.markup">0</property>
  <property name="meta.attr.compatible_brands.markup">M4A isommp42</property>
  <property name="meta.attr.creation_time.markup">2022-12-15T05:54:44.000000Z</property>
  <property name="meta.attr.title.markup">07j more</property>
  <property name="meta.attr.voice-memo-uuid.markup">52A66064-F670-4323-A067-33F8C57338E9</property>
  <property name="meta.attr.encoder.markup">com.apple.VoiceMemos (Blues (null))</property>
  <property name="seekable">1</property>
  <property name="kdenlive:clipname"/>
  <property name="kdenlive:clip_type">1</property>
  <property name="kdenlive:folderid">-1</property>
  <property name="kdenlive:id">50</property>
  <property name="kdenlive:file_size">80345</property>
  <property name="kdenlive:file_hash">b66a3a12a79414a43734be1c8449c407</property>
  <property name="xml">was here</property>
  <property name="set.test_audio">0</property>
  <property name="set.test_image">1</property>
 </chain>
 <chain id="producer100" out="00:00:09.409">
  <property name="length">283</property>
  <property name="eof">pause</property>
  <property name="resource">07k bye.m4a</property>
  <property name="mlt_service">avformat-novalidate</property>
  <property name="audio_index">0</property>
  <property name="video_index">-1</property>
  <property name="meta.media.nb_streams">1</property>
  <property name="meta.media.0.stream.type">audio</property>
  <property name="meta.media.0.codec.sample_fmt">fltp</property>
  <property name="meta.media.0.codec.sample_rate">48000</property>
  <property name="meta.media.0.codec.channels">1</property>
  <property name="meta.media.0.codec.name">aac</property>
  <property name="meta.media.0.codec.long_name">AAC (Advanced Audio Coding)</property>
  <property name="meta.media.0.codec.bit_rate">64930</property>
  <property name="meta.attr.0.stream.creation_time.markup">2022-12-15T05:56:17.000000Z</property>
  <property name="meta.attr.0.stream.handler_name.markup">Core Media Audio</property>
  <property name="meta.attr.0.stream.vendor_id.markup">[0][0][0][0]</property>
  <property name="meta.attr.major_brand.markup">M4A </property>
  <property name="meta.attr.minor_version.markup">0</property>
  <property name="meta.attr.compatible_brands.markup">M4A isommp42</property>
  <property name="meta.attr.creation_time.markup">2022-12-15T05:56:17.000000Z</property>
  <property name="meta.attr.title.markup">07k bye</property>
  <property name="meta.attr.voice-memo-uuid.markup">FD9D4A6A-0F34-4B02-B124-4EA08848B53F</property>
  <property name="meta.attr.encoder.markup">com.apple.VoiceMemos (Blues (null))</property>
  <property name="seekable">1</property>
  <property name="kdenlive:clipname"/>
  <property name="kdenlive:clip_type">1</property>
  <property name="kdenlive:folderid">-1</property>
  <property name="kdenlive:id">49</property>
  <property name="kdenlive:file_size">83071</property>
  <property name="kdenlive:file_hash">ae5cff9b3e4a3769f21cb3332cfc4709</property>
  <property name="xml">was here</property>
  <property name="set.test_audio">0</property>
  <property name="set.test_image">1</property>
 </chain>
 <playlist id="playlist2">
  <property name="kdenlive:audio_track">1</property>
  <entry producer="chain0" in="00:00:00.000" out="00:00:08.809">
   <property name="kdenlive:id">2</property>
  </entry>
  <entry producer="producer53" in="00:00:00.667" out="00:00:09.977">
   <property name="kdenlive:id">3</property>
  </entry>
  <entry producer="producer54" in="00:00:00.000" out="00:00:14.715">
   <property name="kdenlive:id">4</property>
  </entry>
  <blank length="00:00:00.100"/>
  <entry producer="producer55" in="00:00:00.934" out="00:00:11.778">
   <property name="kdenlive:id">5</property>
  </entry>
  <entry producer="producer55" in="00:00:12.813" out="00:00:24.091">
   <property name="kdenlive:id">5</property>
  </entry>
  <entry producer="producer56" in="00:00:00.300" out="00:00:08.275">
   <property name="kdenlive:id">6</property>
  </entry>
  <entry producer="producer56" in="00:00:08.575" out="00:00:18.385">
   <property name="kdenlive:id">6</property>
  </entry>
  <entry producer="producer56" in="00:00:18.452" out="00:00:28.061">
   <property name="kdenlive:id">6</property>
  </entry>
  <blank length="00:00:00.601"/>
  <entry producer="producer57" in="00:00:00.234" out="00:00:08.508">
   <property name="kdenlive:id">7</property>
  </entry>
  <blank length="00:00:00.467"/>
  <entry producer="producer58" in="00:00:00.734" out="00:00:08.876">
   <property name="kdenlive:id">8</property>
  </entry>
  <entry producer="producer58" in="00:00:09.042" out="00:00:16.216">
   <property name="kdenlive:id">8</property>
  </entry>
  <entry producer="producer58" in="00:00:16.416" out="00:00:24.858">
   <property name="kdenlive:id">8</property>
  </entry>
  <blank length="00:00:00.501"/>
  <entry producer="producer59" in="00:00:01.168" out="00:00:20.087">
   <property name="kdenlive:id">9</property>
  </entry>
  <entry producer="producer60" in="00:00:00.000" out="00:00:48.882">
   <property name="kdenlive:id">10</property>
  </entry>
  <blank length="00:00:01.602"/>
  <entry producer="producer61" in="00:00:00.000" out="00:01:02.269">
   <property name="kdenlive:id">11</property>
  </entry>
  <entry producer="producer62" in="00:00:00.000" out="00:00:12.346">
   <property name="kdenlive:id">12</property>
  </entry>
  <blank length="00:00:03.437"/>
  <entry producer="producer63" in="00:00:00.000" out="00:00:14.348">
   <property name="kdenlive:id">13</property>
  </entry>
  <entry producer="producer64" in="00:00:00.000" out="00:00:28.695">
   <property name="kdenlive:id">14</property>
  </entry>
  <entry producer="producer65" in="00:00:00.000" out="00:00:17.284">
   <property name="kdenlive:id">15</property>
  </entry>
  <blank length="00:00:04.071"/>
  <entry producer="producer66" in="00:00:00.334" out="00:00:12.846">
   <property name="kdenlive:id">16</property>
  </entry>
  <entry producer="producer67" in="00:00:00.000" out="00:00:18.919">
   <property name="kdenlive:id">18</property>
  </entry>
  <entry producer="producer68" in="00:00:00.000" out="00:00:48.815">
   <property name="kdenlive:id">19</property>
  </entry>
  <entry producer="producer69" in="00:00:00.000" out="00:00:27.394">
   <property name="kdenlive:id">20</property>
  </entry>
  <entry producer="producer70" in="00:00:00.000" out="00:00:11.912">
   <property name="kdenlive:id">21</property>
  </entry>
  <entry producer="producer71" in="00:00:00.000" out="00:00:45.913">
   <property name="kdenlive:id">22</property>
  </entry>
  <entry producer="producer72" in="00:00:00.000" out="00:00:18.218">
   <property name="kdenlive:id">17</property>
  </entry>
  <entry producer="producer73" in="00:00:00.000" out="00:00:21.822">
   <property name="kdenlive:id">24</property>
  </entry>
  <blank length="00:00:00.067"/>
  <entry producer="producer73" in="00:00:23.056" out="00:00:26.026">
   <property name="kdenlive:id">24</property>
  </entry>
  <blank length="00:00:01.134"/>
  <entry producer="producer74" in="00:00:00.000" out="00:00:15.215">
   <property name="kdenlive:id">25</property>
  </entry>
  <entry producer="producer75" in="00:00:00.000" out="00:00:29.496">
   <property name="kdenlive:id">26</property>
  </entry>
  <entry producer="producer76" in="00:00:00.000" out="00:00:35.302">
   <property name="kdenlive:id">27</property>
  </entry>
  <entry producer="producer77" in="00:00:00.000" out="00:00:01.869">
   <property name="kdenlive:id">28</property>
  </entry>
  <entry producer="producer77" in="00:00:02.402" out="00:00:21.722">
   <property name="kdenlive:id">28</property>
  </entry>
  <blank length="00:00:00.501"/>
  <entry producer="producer78" in="00:00:00.000" out="00:00:18.652">
   <property name="kdenlive:id">23</property>
  </entry>
  <entry producer="producer79" in="00:00:00.000" out="00:00:05.939">
   <property name="kdenlive:id">29</property>
  </entry>
  <entry producer="producer80" in="00:00:00.000" out="00:00:23.223">
   <property name="kdenlive:id">30</property>
  </entry>
  <entry producer="producer81" in="00:00:00.000" out="00:00:36.904">
   <property name="kdenlive:id">31</property>
  </entry>
  <entry producer="producer82" in="00:00:00.000" out="00:00:24.024">
   <property name="kdenlive:id">32</property>
  </entry>
  <entry producer="producer83" in="00:00:00.000" out="00:00:30.230">
   <property name="kdenlive:id">33</property>
  </entry>
  <entry producer="producer84" in="00:00:00.000" out="00:00:38.071">
   <property name="kdenlive:id">34</property>
  </entry>
  <entry producer="producer85" in="00:00:00.000" out="00:00:09.643">
   <property name="kdenlive:id">35</property>
  </entry>
  <entry producer="producer85" in="00:00:09.676" out="00:00:24.558">
   <property name="kdenlive:id">35</property>
  </entry>
  <entry producer="producer86" in="00:00:00.000" out="00:00:45.679">
   <property name="kdenlive:id">36</property>
  </entry>
  <entry producer="producer87" in="00:00:00.000" out="00:00:30.831">
   <property name="kdenlive:id">37</property>
  </entry>
  <entry producer="producer88" in="00:00:00.000" out="00:00:07.841">
   <property name="kdenlive:id">38</property>
  </entry>
  <entry producer="producer89" in="00:00:00.000" out="00:00:12.946">
   <property name="kdenlive:id">39</property>
  </entry>
  <entry producer="producer90" in="00:00:00.000" out="00:00:26.460">
   <property name="kdenlive:id">40</property>
  </entry>
  <entry producer="producer91" in="00:00:00.000" out="00:00:19.486">
   <property name="kdenlive:id">41</property>
  </entry>
  <entry producer="producer92" in="00:00:00.000" out="00:00:15.616">
   <property name="kdenlive:id">42</property>
  </entry>
  <entry producer="producer93" in="00:00:00.000" out="00:00:16.383">
   <property name="kdenlive:id">43</property>
  </entry>
  <entry producer="producer94" in="00:00:00.000" out="00:00:14.414">
   <property name="kdenlive:id">44</property>
  </entry>
  <entry producer="producer95" in="00:00:00.000" out="00:00:40.073">
   <property name="kdenlive:id">45</property>
  </entry>
  <entry producer="producer96" in="00:00:00.000" out="00:00:42.376">
   <property name="kdenlive:id">46</property>
  </entry>
  <entry producer="producer97" in="00:00:00.000" out="00:00:08.742">
   <property name="kdenlive:id">47</property>
  </entry>
  <entry producer="producer97" in="00:00:08.775" out="00:00:19.820">
   <property name="kdenlive:id">47</property>
  </entry>
  <entry producer="producer98" in="00:00:00.000" out="00:00:34.401">
   <property name="kdenlive:id">48</property>
  </entry>
  <blank length="00:00:00.868"/>
  <entry producer="producer98" in="00:00:35.302" out="00:00:49.449">
   <property name="kdenlive:id">48</property>
  </entry>
  <entry producer="producer99" in="00:00:00.000" out="00:00:09.142">
   <property name="kdenlive:id">50</property>
  </entry>
  <entry producer="producer100" in="00:00:00.000" out="00:00:09.409">
   <property name="kdenlive:id">49</property>
  </entry>
 </playlist>
 <playlist id="playlist3">
  <property name="kdenlive:audio_track">1</property>
 </playlist>
 <tractor id="tractor1" in="00:00:00.000" out="00:20:02.636">
  <property name="kdenlive:audio_track">1</property>
  <property name="kdenlive:trackheight">53</property>
  <property name="kdenlive:timeline_active">1</property>
  <property name="kdenlive:collapsed">0</property>
  <property name="kdenlive:thumbs_format"/>
  <property name="kdenlive:audio_rec"/>
  <track hide="video" producer="playlist2"/>
  <track hide="video" producer="playlist3"/>
  <filter id="filter3">
   <property name="window">75</property>
   <property name="max_gain">20dB</property>
   <property name="mlt_service">volume</property>
   <property name="internal_added">237</property>
   <property name="disable">1</property>
  </filter>
  <filter id="filter4">
   <property name="channel">-1</property>
   <property name="mlt_service">panner</property>
   <property name="internal_added">237</property>
   <property name="start">0.5</property>
   <property name="disable">1</property>
  </filter>
  <filter id="filter5">
   <property name="iec_scale">0</property>
   <property name="mlt_service">audiolevel</property>
   <property name="dbpeak">1</property>
   <property name="disable">1</property>
  </filter>
 </tractor>
 <playlist id="playlist4">
  <entry producer="producer49" in="00:00:00.000" out="00:00:33.000">
   <property name="kdenlive:id">51</property>
  </entry>
  <entry producer="producer50" in="00:00:00.000" out="00:00:15.849">
   <property name="kdenlive:id">52</property>
  </entry>
  <entry producer="producer51" in="00:00:00.000" out="00:00:06.273">
   <property name="kdenlive:id">53</property>
  </entry>
  <entry producer="producer49" in="00:00:00.000" out="00:00:08.408">
   <property name="kdenlive:id">51</property>
  </entry>
  <entry producer="producer50" in="00:00:00.000" out="00:00:06.139">
   <property name="kdenlive:id">52</property>
  </entry>
  <entry producer="producer49" in="00:00:00.000" out="00:00:12.846">
   <property name="kdenlive:id">51</property>
  </entry>
  <blank length="00:00:00.434"/>
  <entry producer="producer49" in="00:00:00.000" out="00:00:32.766">
   <property name="kdenlive:id">51</property>
  </entry>
  <entry producer="producer49" in="00:00:00.000" out="00:01:09.209">
   <property name="kdenlive:id">51</property>
  </entry>
  <blank length="00:00:00.734"/>
  <entry producer="producer49" in="00:00:00.000" out="00:16:56.657">
   <property name="kdenlive:id">51</property>
  </entry>
 </playlist>
 <playlist id="playlist5"/>
 <tractor id="tractor2" in="00:00:00.000" out="00:20:02.569">
  <property name="kdenlive:trackheight">61</property>
  <property name="kdenlive:timeline_active">1</property>
  <property name="kdenlive:collapsed">0</property>
  <property name="kdenlive:thumbs_format"/>
  <property name="kdenlive:audio_rec"/>
  <track hide="audio" producer="playlist4"/>
  <track hide="audio" producer="playlist5"/>
 </tractor>
 <playlist id="playlist6"/>
 <playlist id="playlist7"/>
 <tractor id="tractor3" in="00:00:00.000">
  <property name="kdenlive:trackheight">61</property>
  <property name="kdenlive:timeline_active">1</property>
  <property name="kdenlive:collapsed">0</property>
  <property name="kdenlive:thumbs_format"/>
  <property name="kdenlive:audio_rec"/>
  <track hide="audio" producer="playlist6"/>
  <track hide="audio" producer="playlist7"/>
 </tractor>
 <tractor id="{4cc13ea3-10d0-4642-8364-2c9c3b55df9a}" in="00:00:00.000" out="00:20:02.669">
  <property name="kdenlive:uuid">{4cc13ea3-10d0-4642-8364-2c9c3b55df9a}</property>
  <property name="kdenlive:clipname">Sequence 1</property>
  <property name="kdenlive:sequenceproperties.hasAudio">1</property>
  <property name="kdenlive:sequenceproperties.hasVideo">1</property>
  <property name="kdenlive:sequenceproperties.activeTrack">1</property>
  <property name="kdenlive:sequenceproperties.tracksCount">4</property>
  <property name="kdenlive:sequenceproperties.documentuuid">{4cc13ea3-10d0-4642-8364-2c9c3b55df9a}</property>
  <property name="kdenlive:duration">00:20:02;21</property>
  <property name="kdenlive:maxduration">36045</property>
  <property name="kdenlive:producer_type">17</property>
  <property name="kdenlive:id">55</property>
  <property name="kdenlive:clip_type">0</property>
  <property name="kdenlive:file_hash">d2a1f790cd50d74c2594538da02dae72</property>
  <property name="kdenlive:folderid">54</property>
  <property name="kdenlive:sequenceproperties.groups">[
    {
        "children": [
            {
                "data": "1:18540",
                "leaf": "clip",
                "type": "Leaf"
            },
            {
                "data": "1:18597",
                "leaf": "clip",
                "type": "Leaf"
            }
        ],
        "type": "Normal"
    },
    {
        "children": [
            {
                "data": "2:0",
                "leaf": "clip",
                "type": "Leaf"
            },
            {
                "children": [
                    {
                        "data": "1:545",
                        "leaf": "clip",
                        "type": "Leaf"
                    },
                    {
                        "children": [
                            {
                                "data": "1:0",
                                "leaf": "clip",
                                "type": "Leaf"
                            },
                            {
                                "data": "1:265",
                                "leaf": "clip",
                                "type": "Leaf"
                            }
                        ],
                        "type": "Normal"
                    },
                    {
                        "children": [
                            {
                                "data": "1:990",
                                "leaf": "clip",
                                "type": "Leaf"
                            },
                            {
                                "data": "1:1316",
                                "leaf": "clip",
                                "type": "Leaf"
                            }
                        ],
                        "type": "Normal"
                    }
                ],
                "type": "Normal"
            },
            {
                "data": "1:1655",
                "leaf": "clip",
                "type": "Leaf"
            },
            {
                "data": "1:1895",
                "leaf": "clip",
                "type": "Leaf"
            },
            {
                "data": "1:2190",
                "leaf": "clip",
                "type": "Leaf"
            },
            {
                "data": "2:990",
                "leaf": "clip",
                "type": "Leaf"
            },
            {
                "data": "2:2093",
                "leaf": "clip",
                "type": "Leaf"
            },
            {
                "data": "2:1466",
                "leaf": "clip",
                "type": "Leaf"
            },
            {
                "data": "2:1908",
                "leaf": "clip",
                "type": "Leaf"
            },
            {
                "data": "2:1655",
                "leaf": "clip",
                "type": "Leaf"
            }
        ],
        "type": "Normal"
    },
    {
        "children": [
            {
                "data": "1:2760",
                "leaf": "clip",
                "type": "Leaf"
            },
            {
                "data": "1:3005",
                "leaf": "clip",
                "type": "Leaf"
            },
            {
                "data": "1:3221",
                "leaf": "clip",
                "type": "Leaf"
            }
        ],
        "type": "Normal"
    }
]
</property>
  <property name="kdenlive:sequenceproperties.zoom">10</property>
  <property name="kdenlive:sequenceproperties.verticalzoom"/>
  <property name="kdenlive:sequenceproperties.thumbnailFrame"/>
  <property name="kdenlive:sequenceproperties.guides">[
    {
        "comment": "review",
        "pos": 5572,
        "type": 0
    },
    {
        "comment": "playlists",
        "pos": 2492,
        "type": 1
    },
    {
        "comment": "good",
        "pos": 3475,
        "type": 0
    },
    {
        "comment": "stop",
        "pos": 36044,
        "type": 0
    }
]
</property>
  <property name="kdenlive:sequenceproperties.audioTarget">-1</property>
  <property name="kdenlive:sequenceproperties.videoTarget">-1</property>
  <property name="kdenlive:sequenceproperties.position">1515</property>
  <property name="kdenlive:sequenceproperties.scrollPos">0</property>
  <property name="kdenlive:sequenceproperties.zonein">0</property>
  <property name="kdenlive:sequenceproperties.zoneout">75</property>
  <property name="kdenlive:sequenceproperties.disablepreview">0</property>
  <track producer="producer52"/>
  <track producer="tractor0"/>
  <track producer="tractor1"/>
  <track producer="tractor2"/>
  <track producer="tractor3"/>
  <transition id="transition0">
   <property name="a_track">0</property>
   <property name="b_track">1</property>
   <property name="mlt_service">mix</property>
   <property name="kdenlive_id">mix</property>
   <property name="internal_added">237</property>
   <property name="always_active">1</property>
   <property name="accepts_blanks">1</property>
   <property name="sum">1</property>
  </transition>
  <transition id="transition1">
   <property name="a_track">0</property>
   <property name="b_track">2</property>
   <property name="mlt_service">mix</property>
   <property name="kdenlive_id">mix</property>
   <property name="internal_added">237</property>
   <property name="always_active">1</property>
   <property name="accepts_blanks">1</property>
   <property name="sum">1</property>
  </transition>
  <transition id="transition2">
   <property name="a_track">0</property>
   <property name="b_track">3</property>
   <property name="compositing">0</property>
   <property name="distort">0</property>
   <property name="rotate_center">0</property>
   <property name="mlt_service">qtblend</property>
   <property name="always_active">1</property>
   <property name="internal_added">237</property>
  </transition>
  <transition id="transition3">
   <property name="a_track">0</property>
   <property name="b_track">4</property>
   <property name="compositing">0</property>
   <property name="distort">0</property>
   <property name="rotate_center">0</property>
   <property name="mlt_service">qtblend</property>
   <property name="always_active">1</property>
   <property name="internal_added">237</property>
  </transition>
  <filter id="filter6">
   <property name="window">75</property>
   <property name="max_gain">20dB</property>
   <property name="mlt_service">volume</property>
   <property name="internal_added">237</property>
   <property name="disable">1</property>
  </filter>
  <filter id="filter7">
   <property name="channel">-1</property>
   <property name="mlt_service">panner</property>
   <property name="internal_added">237</property>
   <property name="start">0.5</property>
   <property name="disable">1</property>
  </filter>
  <filter id="filter8">
   <property name="window">75</property>
   <property name="max_gain">20dB</property>
   <property name="mlt_service">volume</property>
   <property name="internal_added">237</property>
   <property name="disable">1</property>
  </filter>
  <filter id="filter9">
   <property name="channel">-1</property>
   <property name="mlt_service">panner</property>
   <property name="internal_added">237</property>
   <property name="start">0.5</property>
   <property name="disable">1</property>
  </filter>
 </tractor>
 <playlist id="main_bin">
  <property name="kdenlive:folder.-1.54">Sequences</property>
  <property name="kdenlive:sequenceFolder">54</property>
  <property name="kdenlive:docproperties.audioChannels">2</property>
  <property name="kdenlive:docproperties.browserurl">/mnt/haven/rd-sgu/rsgu-draft/hell2_23-5-04/</property>
  <property name="kdenlive:docproperties.compositing">1</property>
  <property name="kdenlive:docproperties.documentid">1671095280326</property>
  <property name="kdenlive:docproperties.enableTimelineZone">0</property>
  <property name="kdenlive:docproperties.enableexternalproxy">0</property>
  <property name="kdenlive:docproperties.enableproxy">0</property>
  <property name="kdenlive:docproperties.externalproxyparams"/>
  <property name="kdenlive:docproperties.generateimageproxy">0</property>
  <property name="kdenlive:docproperties.generateproxy">0</property>
  <property name="kdenlive:docproperties.guidesCategories">[
    {
        "color": "#9b59b6",
        "comment": "Category 1",
        "index": 0
    },
    {
        "color": "#3daee9",
        "comment": "Category 2",
        "index": 1
    },
    {
        "color": "#1abc9c",
        "comment": "Category 3",
        "index": 2
    },
    {
        "color": "#1cdc9a",
        "comment": "Category 4",
        "index": 3
    },
    {
        "color": "#c9ce3b",
        "comment": "Category 5",
        "index": 4
    },
    {
        "color": "#fdbc4b",
        "comment": "Category 6",
        "index": 5
    },
    {
        "color": "#f39c1f",
        "comment": "Category 7",
        "index": 6
    },
    {
        "color": "#f47750",
        "comment": "Category 8",
        "index": 7
    },
    {
        "color": "#da4453",
        "comment": "Category 9",
        "index": 8
    }
]
</property>
  <property name="kdenlive:docproperties.kdenliveversion">23.04.1</property>
  <property name="kdenlive:docproperties.previewextension"/>
  <property name="kdenlive:docproperties.previewparameters"/>
  <property name="kdenlive:docproperties.profile">atsc_1080p_2997</property>
  <property name="kdenlive:docproperties.proxyextension">mkv</property>
  <property name="kdenlive:docproperties.proxyimageminsize">2000</property>
  <property name="kdenlive:docproperties.proxyimagesize">800</property>
  <property name="kdenlive:docproperties.proxyminsize">1000</property>
  <property name="kdenlive:docproperties.proxyparams">-vf yadif,scale=960:-2 -qscale 3 -vcodec mjpeg -acodec pcm_s16le</property>
  <property name="kdenlive:docproperties.proxyresize">640</property>
  <property name="kdenlive:docproperties.seekOffset">30000</property>
  <property name="kdenlive:docproperties.uuid">{4cc13ea3-10d0-4642-8364-2c9c3b55df9a}</property>
  <property name="kdenlive:docproperties.version">1.1</property>
  <property name="kdenlive:docproperties.verticalzoom">1</property>
  <property name="kdenlive:docproperties.zoom">9</property>
  <property name="kdenlive:expandedFolders"/>
  <property name="kdenlive:binZoom">4</property>
  <property name="kdenlive:documentnotes"/>
  <property name="kdenlive:docproperties.opensequences">{4cc13ea3-10d0-4642-8364-2c9c3b55df9a}</property>
  <property name="kdenlive:docproperties.activetimeline">{4cc13ea3-10d0-4642-8364-2c9c3b55df9a}</property>
  <property name="xml_retain">1</property>
  <entry producer="producer0" in="00:00:00.000" out="00:00:08.909"/>
  <entry producer="producer1" in="00:00:00.000" out="00:00:10.077"/>
  <entry producer="producer2" in="00:00:00.000" out="00:00:15.215"/>
  <entry producer="producer3" in="00:00:00.000" out="00:00:24.157"/>
  <entry producer="producer4" in="00:00:00.000" out="00:00:28.061"/>
  <entry producer="producer5" in="00:00:00.000" out="00:00:08.642"/>
  <entry producer="producer6" in="00:00:00.000" out="00:00:24.958"/>
  <entry producer="producer7" in="00:00:00.000" out="00:00:20.153"/>
  <entry producer="producer8" in="00:00:00.000" out="00:00:48.882"/>
  <entry producer="producer9" in="00:00:00.000" out="00:01:02.269"/>
  <entry producer="producer10" in="00:00:00.000" out="00:00:12.346"/>
  <entry producer="producer11" in="00:00:00.000" out="00:00:14.348"/>
  <entry producer="producer12" in="00:00:00.000" out="00:00:28.695"/>
  <entry producer="producer13" in="00:00:00.000" out="00:00:21.021"/>
  <entry producer="producer14" in="00:00:00.000" out="00:00:12.846"/>
  <entry producer="producer15" in="00:00:00.000" out="00:00:18.218"/>
  <entry producer="producer16" in="00:00:00.000" out="00:00:27.494"/>
  <entry producer="producer17" in="00:00:00.000" out="00:00:48.815"/>
  <entry producer="producer18" in="00:00:00.000" out="00:00:27.394"/>
  <entry producer="producer19" in="00:00:00.000" out="00:00:11.912"/>
  <entry producer="producer20" in="00:00:00.000" out="00:00:45.913"/>
  <entry producer="producer21" in="00:00:00.000" out="00:00:18.652"/>
  <entry producer="producer22" in="00:00:00.000" out="00:00:26.026"/>
  <entry producer="producer23" in="00:00:00.000" out="00:00:15.215"/>
  <entry producer="producer24" in="00:00:00.000" out="00:00:29.496"/>
  <entry producer="producer25" in="00:00:00.000" out="00:00:35.302"/>
  <entry producer="producer26" in="00:00:00.000" out="00:00:21.722"/>
  <entry producer="producer27" in="00:00:00.000" out="00:00:05.939"/>
  <entry producer="producer28" in="00:00:00.000" out="00:00:23.223"/>
  <entry producer="producer29" in="00:00:00.000" out="00:00:36.904"/>
  <entry producer="producer30" in="00:00:00.000" out="00:00:24.024"/>
  <entry producer="producer31" in="00:00:00.000" out="00:00:30.230"/>
  <entry producer="producer32" in="00:00:00.000" out="00:00:38.071"/>
  <entry producer="producer33" in="00:00:00.000" out="00:00:24.558"/>
  <entry producer="producer34" in="00:00:00.000" out="00:00:45.679"/>
  <entry producer="producer35" in="00:00:00.000" out="00:00:30.831"/>
  <entry producer="producer36" in="00:00:00.000" out="00:00:07.841"/>
  <entry producer="producer37" in="00:00:00.000" out="00:00:12.946"/>
  <entry producer="producer38" in="00:00:00.000" out="00:00:26.460"/>
  <entry producer="producer39" in="00:00:00.000" out="00:00:19.486"/>
  <entry producer="producer40" in="00:00:00.000" out="00:00:15.616"/>
  <entry producer="producer41" in="00:00:00.000" out="00:00:16.383"/>
  <entry producer="producer42" in="00:00:00.000" out="00:00:14.414"/>
  <entry producer="producer43" in="00:00:00.000" out="00:00:40.073"/>
  <entry producer="producer44" in="00:00:00.000" out="00:00:44.211"/>
  <entry producer="producer45" in="00:00:00.000" out="00:00:19.820"/>
  <entry producer="producer46" in="00:00:00.000" out="00:00:49.449"/>
  <entry producer="producer47" in="00:00:00.000" out="00:00:09.409"/>
  <entry producer="producer48" in="00:00:00.000" out="00:00:09.142"/>
  <entry producer="producer49" in="00:00:00.000" out="00:21:00.868"/>
  <entry producer="producer50" in="00:00:00.000" out="00:00:22.155"/>
  <entry producer="producer51" in="00:00:00.000" out="00:00:06.373"/>
  <entry producer="{4cc13ea3-10d0-4642-8364-2c9c3b55df9a}" in="00:00:00.000" out="00:20:02.669"/>
 </playlist>
 <tractor id="tractor4" in="00:00:00.000" out="00:20:02.669">
  <property name="kdenlive:projectTractor">1</property>
  <track producer="{4cc13ea3-10d0-4642-8364-2c9c3b55df9a}" in="00:00:00.000" out="00:20:02.669"/>
 </tractor>
</mlt>
